{
.appVersion = "895";
DisplayStrings = (
"and yet i feel\012that never was a greater artist\012than now when while the lovely valley teems\012with vapour\012around me and\012the meridian sun strikes the uppersurface of the\012impenetrable\012foliage of my\012trees and but a\012few stray gleamssteal into the\012inner sanctuary"
);
copyright = "Copyright © 2016 by William Montrose, Sláva Jevčinová. All rights reserved.";
date = "2016-08-04 16:37:45 +0000";
designer = "William Montrose, Sláva Jevčinová";
familyName = "Universal Text A";
fontMaster = (
{
ascender = 730;
capHeight = 670;
custom = Medium;
customValue = 200;
customParameters = (
{
name = paramArea;
value = "385";
},
{
name = paramDepth;
value = "14";
},
{
name = paramOver;
value = "3";
}
);
descender = -270;
guideLines = (
{
position = "{66, 540}";
},
{
position = "{79, -208}";
},
{
position = "{27, 352}";
},
{
position = "{66, 430}";
}
);
id = "C76CAC8E-7AD6-478C-8F7E-02FEF6F1EA84";
userData = {
GSOffsetHorizontal = 19;
GSOffsetMakeStroke = 1;
GSOffsetVertical = 16;
};
weightValue = 140;
xHeight = 525;
}
);
glyphs = (
{
color = 4;
glyphname = H;
lastChange = "2016-11-25 09:30:50 +0000";
layers = (
{
background = {
paths = (
{
closed = 1;
nodes = (
"264 0 LINE",
"264 670 LINE",
"124 670 LINE",
"124 0 LINE"
);
},
{
closed = 1;
nodes = (
"174 395 LINE",
"174 287 LINE",
"601 287 LINE",
"601 395 LINE"
);
},
{
closed = 1;
nodes = (
"658 0 LINE",
"658 670 LINE",
"518 670 LINE",
"518 0 LINE"
);
}
);
};
layerId = "C76CAC8E-7AD6-478C-8F7E-02FEF6F1EA84";
paths = (
{
closed = 1;
nodes = (
"666 0 LINE",
"666 670 LINE",
"518 670 LINE",
"518 0 LINE"
);
},
{
closed = 1;
nodes = (
"223 0 LINE",
"223 670 LINE",
"75 670 LINE",
"75 0 LINE"
);
},
{
closed = 1;
nodes = (
"601 272 LINE",
"601 402 LINE",
"133 402 LINE",
"133 272 LINE"
);
}
);
width = 741;
}
);
unicode = 0048;
},
{
glyphname = I;
lastChange = "2016-11-25 09:30:50 +0000";
layers = (
{
layerId = "C76CAC8E-7AD6-478C-8F7E-02FEF6F1EA84";
paths = (
{
closed = 1;
nodes = (
"223 0 LINE",
"223 670 LINE",
"75 670 LINE",
"75 0 LINE"
);
}
);
width = 298;
}
);
unicode = 0049;
},
{
glyphname = M;
lastChange = "2016-11-25 09:30:50 +0000";
layers = (
{
layerId = "C76CAC8E-7AD6-478C-8F7E-02FEF6F1EA84";
paths = (
{
closed = 1;
nodes = (
"50 0 LINE",
"720 0 LINE",
"720 670 LINE",
"50 670 LINE"
);
}
);
width = 770;
}
);
unicode = 004D;
},
{
color = 0;
glyphname = N;
lastChange = "2016-11-25 09:30:50 +0000";
layers = (
{
background = {
paths = (
{
closed = 1;
nodes = (
"216 670 LINE",
"65 670 LINE",
"65 0 LINE",
"210 0 LINE",
"210 658 LINE",
"85 658 LINE",
"502 0 LINE",
"644 0 LINE",
"644 670 LINE",
"625 670 LINE",
"625 12 LINE",
"633 12 LINE"
);
}
);
};
layerId = "C76CAC8E-7AD6-478C-8F7E-02FEF6F1EA84";
paths = (
{
closed = 1;
nodes = (
"216 670 LINE",
"65 670 LINE",
"65 0 LINE",
"210 0 LINE",
"210 540 LINE",
"160 540 LINE",
"502 0 LINE",
"653 0 LINE",
"653 670 LINE",
"508 670 LINE",
"508 130 LINE",
"558 130 LINE"
);
}
);
width = 718;
}
);
leftMetricsKey = "=H";
rightMetricsKey = "=H";
unicode = 004E;
},
{
color = 0;
glyphname = T;
lastChange = "2016-11-25 09:30:50 +0000";
layers = (
{
background = {
paths = (
{
closed = 1;
nodes = (
"367 0 LINE",
"367 620 LINE",
"222 620 LINE",
"222 0 LINE"
);
},
{
closed = 1;
nodes = (
"584 550 LINE",
"584 670 LINE",
"7 670 LINE",
"7 550 LINE"
);
}
);
};
layerId = "C76CAC8E-7AD6-478C-8F7E-02FEF6F1EA84";
paths = (
{
closed = 1;
nodes = (
"367 0 LINE",
"367 620 LINE",
"222 620 LINE",
"222 0 LINE"
);
},
{
closed = 1;
nodes = (
"569 550 LINE",
"569 670 LINE",
"22 670 LINE",
"22 550 LINE"
);
}
);
width = 591;
}
);
unicode = 0054;
},
{
color = 0;
glyphname = Y;
lastChange = "2016-11-25 09:30:50 +0000";
layers = (
{
background = {
paths = (
{
closed = 1;
nodes = (
"415 0 LINE",
"415 323 LINE",
"409 270 LINE",
"669 670 LINE",
"520 670 LINE",
"324 360 LINE",
"361 360 LINE",
"165 670 LINE",
"16 670 LINE",
"276 270 LINE",
"270 323 LINE",
"270 0 LINE"
);
}
);
};
layerId = "C76CAC8E-7AD6-478C-8F7E-02FEF6F1EA84";
paths = (
{
closed = 1;
nodes = (
"415 0 LINE",
"415 323 LINE",
"409 270 LINE",
"669 670 LINE",
"517 670 LINE",
"321 360 LINE",
"364 360 LINE",
"168 670 LINE",
"16 670 LINE",
"276 270 LINE",
"270 323 LINE",
"270 0 LINE"
);
}
);
width = 685;
}
);
unicode = 0059;
},
{
color = 5;
glyphname = a;
lastChange = "2016-11-25 09:30:50 +0000";
layers = (
{
associatedMasterId = "2F6174A6-5E34-4AB0-BBF3-B5DC3B823A34";
background = {
paths = (
{
closed = 0;
nodes = (
"492 214 LINE",
"492 80 OFFCURVE",
"395 -13 OFFCURVE",
"264 -13 CURVE SMOOTH",
"163 -13 OFFCURVE",
"103 35 OFFCURVE",
"103 121 CURVE SMOOTH",
"103 194 OFFCURVE",
"146 233 OFFCURVE",
"236 255 CURVE SMOOTH",
"438 304 LINE SMOOTH",
"475 313 OFFCURVE",
"490 324 OFFCURVE",
"492 348 CURVE"
);
},
{
closed = 0;
nodes = (
"492 0 LINE",
"492 387 LINE SMOOTH",
"492 477 OFFCURVE",
"431 540 OFFCURVE",
"317 540 CURVE SMOOTH",
"219 540 OFFCURVE",
"153 504 OFFCURVE",
"132 434 CURVE SMOOTH",
"124 408 LINE"
);
}
);
};
layerId = "9762333F-7271-4369-B2AD-A6F30ED89E0B";
name = "Universal Jul 20 16, 17:13";
paths = (
{
closed = 0;
nodes = (
"492 214 LINE",
"492 80 OFFCURVE",
"395 -13 OFFCURVE",
"264 -13 CURVE SMOOTH",
"163 -13 OFFCURVE",
"103 35 OFFCURVE",
"103 121 CURVE SMOOTH",
"103 194 OFFCURVE",
"146 233 OFFCURVE",
"236 255 CURVE SMOOTH",
"438 304 LINE SMOOTH",
"475 313 OFFCURVE",
"490 324 OFFCURVE",
"492 348 CURVE"
);
},
{
closed = 0;
nodes = (
"492 0 LINE",
"492 387 LINE SMOOTH",
"492 477 OFFCURVE",
"431 540 OFFCURVE",
"317 540 CURVE SMOOTH",
"219 540 OFFCURVE",
"153 504 OFFCURVE",
"132 434 CURVE SMOOTH",
"124 408 LINE"
);
}
);
width = 600;
},
{
associatedMasterId = "2F6174A6-5E34-4AB0-BBF3-B5DC3B823A34";
background = {
paths = (
{
closed = 1;
nodes = (
"482 0 LINE",
"482 362 LINE SMOOTH",
"482 472 OFFCURVE",
"406 540 OFFCURVE",
"276 540 CURVE SMOOTH",
"143 540 OFFCURVE",
"70 475 OFFCURVE",
"53 379 CURVE SMOOTH",
"48 351 LINE",
"189 350 LINE",
"193 367 LINE SMOOTH",
"200 402 OFFCURVE",
"226 422 OFFCURVE",
"275 422 CURVE SMOOTH",
"324 422 OFFCURVE",
"350 396 OFFCURVE",
"350 358 CURVE SMOOTH",
"350 0 LINE"
);
},
{
closed = 1;
nodes = (
"183 183 OFFCURVE",
"201 201 OFFCURVE",
"242 210 CURVE SMOOTH",
"341 230 LINE SMOOTH",
"379 238 OFFCURVE",
"418 261 OFFCURVE",
"421 300 CURVE",
"421 363 LINE",
"394 361 LINE",
"392 337 OFFCURVE",
"376 325 OFFCURVE",
"341 318 CURVE SMOOTH",
"193 289 LINE SMOOTH",
"83 267 OFFCURVE",
"34 223 OFFCURVE",
"34 133 CURVE SMOOTH",
"34 43 OFFCURVE",
"100 -15 OFFCURVE",
"202 -15 CURVE SMOOTH",
"336 -15 OFFCURVE",
"379 80 OFFCURVE",
"373 209 CURVE",
"350 209 LINE",
"350 127 OFFCURVE",
"310 97 OFFCURVE",
"249 97 CURVE SMOOTH",
"204 97 OFFCURVE",
"183 121 OFFCURVE",
"183 153 CURVE SMOOTH"
);
}
);
};
layerId = "5958D719-7540-41AC-BC96-C92AA4CA99E2";
name = "Bold Universal Display Jul 24 16, 18:39";
paths = (
{
closed = 1;
nodes = (
"482 0 LINE",
"482 362 LINE SMOOTH",
"482 472 OFFCURVE",
"406 540 OFFCURVE",
"276 540 CURVE SMOOTH",
"143 540 OFFCURVE",
"70 475 OFFCURVE",
"53 379 CURVE SMOOTH",
"48 351 LINE",
"189 350 LINE",
"193 367 LINE SMOOTH",
"200 402 OFFCURVE",
"226 422 OFFCURVE",
"275 422 CURVE SMOOTH",
"324 422 OFFCURVE",
"350 396 OFFCURVE",
"350 358 CURVE SMOOTH",
"350 0 LINE"
);
},
{
closed = 1;
nodes = (
"183 183 OFFCURVE",
"201 201 OFFCURVE",
"242 210 CURVE SMOOTH",
"341 230 LINE SMOOTH",
"379 238 OFFCURVE",
"418 261 OFFCURVE",
"421 300 CURVE",
"421 363 LINE",
"394 361 LINE",
"392 337 OFFCURVE",
"376 325 OFFCURVE",
"341 318 CURVE SMOOTH",
"193 289 LINE SMOOTH",
"83 267 OFFCURVE",
"34 223 OFFCURVE",
"34 133 CURVE SMOOTH",
"34 43 OFFCURVE",
"100 -15 OFFCURVE",
"202 -15 CURVE SMOOTH",
"336 -15 OFFCURVE",
"379 80 OFFCURVE",
"373 209 CURVE",
"350 209 LINE",
"350 127 OFFCURVE",
"310 97 OFFCURVE",
"249 97 CURVE SMOOTH",
"204 97 OFFCURVE",
"183 121 OFFCURVE",
"183 153 CURVE SMOOTH"
);
}
);
width = 531;
},
{
associatedMasterId = "2F6174A6-5E34-4AB0-BBF3-B5DC3B823A34";
background = {
paths = (
{
closed = 1;
nodes = (
"482 0 LINE",
"482 362 LINE SMOOTH",
"482 472 OFFCURVE",
"406 540 OFFCURVE",
"276 540 CURVE SMOOTH",
"157 540 OFFCURVE",
"79 485 OFFCURVE",
"52 379 CURVE SMOOTH",
"45 351 LINE",
"188 350 LINE",
"194 367 LINE SMOOTH",
"207 405 OFFCURVE",
"231 424 OFFCURVE",
"277 424 CURVE SMOOTH",
"328 424 OFFCURVE",
"350 396 OFFCURVE",
"350 358 CURVE SMOOTH",
"350 0 LINE"
);
},
{
closed = 1;
nodes = (
"183 183 OFFCURVE",
"201 202 OFFCURVE",
"242 210 CURVE SMOOTH",
"356 233 LINE SMOOTH",
"394 241 OFFCURVE",
"433 264 OFFCURVE",
"436 303 CURVE",
"436 364 LINE",
"409 364 LINE",
"407 340 OFFCURVE",
"391 328 OFFCURVE",
"356 321 CURVE SMOOTH",
"193 289 LINE SMOOTH",
"83 267 OFFCURVE",
"34 223 OFFCURVE",
"34 133 CURVE SMOOTH",
"34 43 OFFCURVE",
"100 -15 OFFCURVE",
"202 -15 CURVE SMOOTH",
"336 -15 OFFCURVE",
"379 80 OFFCURVE",
"373 209 CURVE",
"350 209 LINE",
"350 127 OFFCURVE",
"310 97 OFFCURVE",
"249 97 CURVE SMOOTH",
"204 97 OFFCURVE",
"183 121 OFFCURVE",
"183 153 CURVE SMOOTH"
);
}
);
};
layerId = "1DB8726B-5E12-41F1-AD73-85C281DBF692";
name = "Bold Universal Display Jul 25 16, 12:01";
paths = (
{
closed = 1;
nodes = (
"183 183 OFFCURVE",
"201 202 OFFCURVE",
"242 210 CURVE SMOOTH",
"356 233 LINE SMOOTH",
"394 241 OFFCURVE",
"433 264 OFFCURVE",
"436 303 CURVE",
"436 364 LINE",
"409 364 LINE",
"407 340 OFFCURVE",
"391 328 OFFCURVE",
"356 321 CURVE SMOOTH",
"193 289 LINE SMOOTH",
"83 267 OFFCURVE",
"34 223 OFFCURVE",
"34 133 CURVE SMOOTH",
"34 43 OFFCURVE",
"100 -15 OFFCURVE",
"202 -15 CURVE SMOOTH",
"336 -15 OFFCURVE",
"379 80 OFFCURVE",
"373 209 CURVE",
"350 209 LINE",
"350 127 OFFCURVE",
"310 97 OFFCURVE",
"249 97 CURVE SMOOTH",
"204 97 OFFCURVE",
"183 121 OFFCURVE",
"183 153 CURVE SMOOTH"
);
},
{
closed = 1;
nodes = (
"194 366 LINE",
"206 405 OFFCURVE",
"231 424 OFFCURVE",
"277 424 CURVE SMOOTH",
"328 424 OFFCURVE",
"350 396 OFFCURVE",
"350 358 CURVE SMOOTH",
"350 0 LINE",
"482 0 LINE",
"482 362 LINE SMOOTH",
"482 472 OFFCURVE",
"406 540 OFFCURVE",
"277 540 CURVE SMOOTH",
"161 540 OFFCURVE",
"77 484 OFFCURVE",
"53 379 CURVE SMOOTH",
"50 366 LINE"
);
}
);
width = 531;
},
{
associatedMasterId = "2F6174A6-5E34-4AB0-BBF3-B5DC3B823A34";
background = {
paths = (
{
closed = 1;
nodes = (
"486 0 LINE",
"486 362 LINE SMOOTH",
"486 472 OFFCURVE",
"410 540 OFFCURVE",
"280 540 CURVE SMOOTH",
"161 540 OFFCURVE",
"82 485 OFFCURVE",
"56 379 CURVE SMOOTH",
"49 350 LINE",
"193 350 LINE",
"198 367 LINE SMOOTH",
"210 407 OFFCURVE",
"235 424 OFFCURVE",
"281 424 CURVE SMOOTH",
"332 424 OFFCURVE",
"354 396 OFFCURVE",
"354 358 CURVE SMOOTH",
"354 0 LINE"
);
},
{
closed = 1;
nodes = (
"180 183 OFFCURVE",
"199 202 OFFCURVE",
"242 210 CURVE SMOOTH",
"360 233 LINE SMOOTH",
"399 241 OFFCURVE",
"437 264 OFFCURVE",
"440 303 CURVE",
"440 364 LINE",
"413 364 LINE",
"411 340 OFFCURVE",
"397 328 OFFCURVE",
"360 321 CURVE SMOOTH",
"197 289 LINE SMOOTH",
"89 268 OFFCURVE",
"38 223 OFFCURVE",
"38 133 CURVE SMOOTH",
"38 44 OFFCURVE",
"104 -13 OFFCURVE",
"206 -13 CURVE SMOOTH",
"340 -13 OFFCURVE",
"383 81 OFFCURVE",
"377 209 CURVE",
"354 209 LINE",
"354 126 OFFCURVE",
"310 95 OFFCURVE",
"249 95 CURVE SMOOTH",
"202 95 OFFCURVE",
"180 120 OFFCURVE",
"180 153 CURVE SMOOTH"
);
}
);
};
layerId = "F03C1562-2733-4293-BE69-0130549A7AF1";
name = "Bold Universal Display Jul 27 16, 16:44";
paths = (
{
closed = 1;
nodes = (
"486 0 LINE",
"486 362 LINE SMOOTH",
"486 472 OFFCURVE",
"410 540 OFFCURVE",
"280 540 CURVE SMOOTH",
"161 540 OFFCURVE",
"82 485 OFFCURVE",
"56 379 CURVE SMOOTH",
"49 350 LINE",
"193 350 LINE",
"198 367 LINE SMOOTH",
"210 407 OFFCURVE",
"235 424 OFFCURVE",
"281 424 CURVE SMOOTH",
"332 424 OFFCURVE",
"354 396 OFFCURVE",
"354 358 CURVE SMOOTH",
"354 0 LINE"
);
},
{
closed = 1;
nodes = (
"180 183 OFFCURVE",
"199 202 OFFCURVE",
"242 210 CURVE SMOOTH",
"360 233 LINE SMOOTH",
"399 241 OFFCURVE",
"437 264 OFFCURVE",
"440 303 CURVE",
"440 364 LINE",
"413 364 LINE",
"411 340 OFFCURVE",
"397 328 OFFCURVE",
"360 321 CURVE SMOOTH",
"197 289 LINE SMOOTH",
"89 268 OFFCURVE",
"38 223 OFFCURVE",
"38 133 CURVE SMOOTH",
"38 44 OFFCURVE",
"104 -13 OFFCURVE",
"206 -13 CURVE SMOOTH",
"340 -13 OFFCURVE",
"383 81 OFFCURVE",
"377 209 CURVE",
"354 209 LINE",
"354 126 OFFCURVE",
"310 95 OFFCURVE",
"249 95 CURVE SMOOTH",
"202 95 OFFCURVE",
"180 120 OFFCURVE",
"180 153 CURVE SMOOTH"
);
}
);
width = 541;
},
{
associatedMasterId = "2F6174A6-5E34-4AB0-BBF3-B5DC3B823A34";
background = {
paths = (
{
closed = 0;
nodes = (
"492 214 LINE",
"492 80 OFFCURVE",
"395 -13 OFFCURVE",
"264 -13 CURVE SMOOTH",
"163 -13 OFFCURVE",
"103 35 OFFCURVE",
"103 121 CURVE SMOOTH",
"103 194 OFFCURVE",
"146 233 OFFCURVE",
"236 255 CURVE SMOOTH",
"438 304 LINE SMOOTH",
"475 313 OFFCURVE",
"490 324 OFFCURVE",
"492 348 CURVE"
);
},
{
closed = 0;
nodes = (
"492 0 LINE",
"492 387 LINE SMOOTH",
"492 477 OFFCURVE",
"431 540 OFFCURVE",
"317 540 CURVE SMOOTH",
"219 540 OFFCURVE",
"153 504 OFFCURVE",
"132 434 CURVE SMOOTH",
"124 408 LINE"
);
}
);
};
layerId = "D2C494F7-51F7-4DA2-8B41-6660AB6958E8";
name = "Universal Jul 20 16, 17:13";
paths = (
{
closed = 0;
nodes = (
"492 214 LINE",
"492 80 OFFCURVE",
"395 -13 OFFCURVE",
"264 -13 CURVE SMOOTH",
"163 -13 OFFCURVE",
"103 35 OFFCURVE",
"103 121 CURVE SMOOTH",
"103 194 OFFCURVE",
"146 233 OFFCURVE",
"236 255 CURVE SMOOTH",
"438 304 LINE SMOOTH",
"475 313 OFFCURVE",
"490 324 OFFCURVE",
"492 348 CURVE"
);
},
{
closed = 0;
nodes = (
"492 0 LINE",
"492 387 LINE SMOOTH",
"492 477 OFFCURVE",
"431 540 OFFCURVE",
"317 540 CURVE SMOOTH",
"219 540 OFFCURVE",
"153 504 OFFCURVE",
"132 434 CURVE SMOOTH",
"124 408 LINE"
);
}
);
width = 600;
},
{
associatedMasterId = "2F6174A6-5E34-4AB0-BBF3-B5DC3B823A34";
background = {
paths = (
{
closed = 1;
nodes = (
"439 0 LINE",
"439 370 LINE SMOOTH",
"439 467 OFFCURVE",
"373 530 OFFCURVE",
"266 530 CURVE SMOOTH",
"176 530 OFFCURVE",
"111 491 OFFCURVE",
"82 414 CURVE SMOOTH",
"73 390 LINE",
"93 390 LINE",
"101 411 LINE SMOOTH",
"126 478 OFFCURVE",
"181 512 OFFCURVE",
"266 512 CURVE SMOOTH",
"365 512 OFFCURVE",
"421 455 OFFCURVE",
"421 369 CURVE SMOOTH",
"421 0 LINE"
);
},
{
closed = 1;
nodes = (
"75 176 OFFCURVE",
"101 213 OFFCURVE",
"188 234 CURVE SMOOTH",
"380 282 LINE SMOOTH",
"416 290 OFFCURVE",
"431 301 OFFCURVE",
"433 324 CURVE",
"433 341 LINE",
"428 341 LINE",
"426 317 OFFCURVE",
"411 307 OFFCURVE",
"375 298 CURVE SMOOTH",
"183 250 LINE SMOOTH",
"91 228 OFFCURVE",
"55 184 OFFCURVE",
"55 117 CURVE SMOOTH",
"55 33 OFFCURVE",
"118 -15 OFFCURVE",
"214 -15 CURVE SMOOTH",
"332 -15 OFFCURVE",
"438 79 OFFCURVE",
"432 208 CURVE",
"421 208 LINE",
"421 82 OFFCURVE",
"317 3 OFFCURVE",
"215 3 CURVE SMOOTH",
"129 3 OFFCURVE",
"75 44 OFFCURVE",
"75 117 CURVE SMOOTH"
);
}
);
};
guideLines = (
{
angle = 69.444;
position = "{73, 390}";
},
{
angle = 69.4439;
position = "{93, 390}";
}
);
layerId = "3AF49E38-54B3-4D04-A4C7-32692A39E81A";
name = "Universal Display Aug 9 16, 09:56";
paths = (
{
closed = 1;
nodes = (
"439 0 LINE",
"439 370 LINE SMOOTH",
"439 467 OFFCURVE",
"373 530 OFFCURVE",
"266 530 CURVE SMOOTH",
"176 530 OFFCURVE",
"111 491 OFFCURVE",
"82 414 CURVE SMOOTH",
"73 390 LINE",
"93 390 LINE",
"101 411 LINE SMOOTH",
"126 478 OFFCURVE",
"181 512 OFFCURVE",
"266 512 CURVE SMOOTH",
"365 512 OFFCURVE",
"421 455 OFFCURVE",
"421 369 CURVE SMOOTH",
"421 0 LINE"
);
},
{
closed = 1;
nodes = (
"75 176 OFFCURVE",
"101 213 OFFCURVE",
"188 234 CURVE SMOOTH",
"380 282 LINE SMOOTH",
"416 290 OFFCURVE",
"431 301 OFFCURVE",
"433 324 CURVE",
"433 341 LINE",
"428 341 LINE",
"426 317 OFFCURVE",
"411 307 OFFCURVE",
"375 298 CURVE SMOOTH",
"183 250 LINE SMOOTH",
"91 228 OFFCURVE",
"55 184 OFFCURVE",
"55 117 CURVE SMOOTH",
"55 33 OFFCURVE",
"118 -15 OFFCURVE",
"214 -15 CURVE SMOOTH",
"332 -15 OFFCURVE",
"438 79 OFFCURVE",
"432 208 CURVE",
"421 208 LINE",
"421 82 OFFCURVE",
"317 3 OFFCURVE",
"215 3 CURVE SMOOTH",
"129 3 OFFCURVE",
"75 44 OFFCURVE",
"75 117 CURVE SMOOTH"
);
}
);
width = 514;
},
{
associatedMasterId = "C76CAC8E-7AD6-478C-8F7E-02FEF6F1EA84";
background = {
paths = (
{
closed = 0;
nodes = (
"492 214 LINE",
"492 80 OFFCURVE",
"395 -13 OFFCURVE",
"264 -13 CURVE SMOOTH",
"163 -13 OFFCURVE",
"103 35 OFFCURVE",
"103 121 CURVE SMOOTH",
"103 194 OFFCURVE",
"146 233 OFFCURVE",
"236 255 CURVE SMOOTH",
"438 304 LINE SMOOTH",
"475 313 OFFCURVE",
"490 324 OFFCURVE",
"492 348 CURVE"
);
},
{
closed = 0;
nodes = (
"492 0 LINE",
"492 387 LINE SMOOTH",
"492 477 OFFCURVE",
"431 540 OFFCURVE",
"317 540 CURVE SMOOTH",
"219 540 OFFCURVE",
"153 504 OFFCURVE",
"132 434 CURVE SMOOTH",
"124 408 LINE"
);
}
);
};
layerId = "1E11FE6A-3D7E-49AF-B88E-1F66724FB6FC";
name = "Universal Jul 20 16, 17:13";
paths = (
{
closed = 0;
nodes = (
"492 214 LINE",
"492 80 OFFCURVE",
"395 -13 OFFCURVE",
"264 -13 CURVE SMOOTH",
"163 -13 OFFCURVE",
"103 35 OFFCURVE",
"103 121 CURVE SMOOTH",
"103 194 OFFCURVE",
"146 233 OFFCURVE",
"236 255 CURVE SMOOTH",
"438 304 LINE SMOOTH",
"475 313 OFFCURVE",
"490 324 OFFCURVE",
"492 348 CURVE"
);
},
{
closed = 0;
nodes = (
"492 0 LINE",
"492 387 LINE SMOOTH",
"492 477 OFFCURVE",
"431 540 OFFCURVE",
"317 540 CURVE SMOOTH",
"219 540 OFFCURVE",
"153 504 OFFCURVE",
"132 434 CURVE SMOOTH",
"124 408 LINE"
);
}
);
width = 600;
},
{
associatedMasterId = "C76CAC8E-7AD6-478C-8F7E-02FEF6F1EA84";
background = {
paths = (
{
closed = 1;
nodes = (
"482 0 LINE",
"482 362 LINE SMOOTH",
"482 472 OFFCURVE",
"406 540 OFFCURVE",
"276 540 CURVE SMOOTH",
"143 540 OFFCURVE",
"70 475 OFFCURVE",
"53 379 CURVE SMOOTH",
"48 351 LINE",
"189 350 LINE",
"193 367 LINE SMOOTH",
"200 402 OFFCURVE",
"226 422 OFFCURVE",
"275 422 CURVE SMOOTH",
"324 422 OFFCURVE",
"350 396 OFFCURVE",
"350 358 CURVE SMOOTH",
"350 0 LINE"
);
},
{
closed = 1;
nodes = (
"183 183 OFFCURVE",
"201 201 OFFCURVE",
"242 210 CURVE SMOOTH",
"341 230 LINE SMOOTH",
"379 238 OFFCURVE",
"418 261 OFFCURVE",
"421 300 CURVE",
"421 363 LINE",
"394 361 LINE",
"392 337 OFFCURVE",
"376 325 OFFCURVE",
"341 318 CURVE SMOOTH",
"193 289 LINE SMOOTH",
"83 267 OFFCURVE",
"34 223 OFFCURVE",
"34 133 CURVE SMOOTH",
"34 43 OFFCURVE",
"100 -15 OFFCURVE",
"202 -15 CURVE SMOOTH",
"336 -15 OFFCURVE",
"379 80 OFFCURVE",
"373 209 CURVE",
"350 209 LINE",
"350 127 OFFCURVE",
"310 97 OFFCURVE",
"249 97 CURVE SMOOTH",
"204 97 OFFCURVE",
"183 121 OFFCURVE",
"183 153 CURVE SMOOTH"
);
}
);
};
layerId = "00057FBF-B9A8-465F-90EF-8639FC9FA2DE";
name = "Bold Universal Display Jul 24 16, 18:39";
paths = (
{
closed = 1;
nodes = (
"482 0 LINE",
"482 362 LINE SMOOTH",
"482 472 OFFCURVE",
"406 540 OFFCURVE",
"276 540 CURVE SMOOTH",
"143 540 OFFCURVE",
"70 475 OFFCURVE",
"53 379 CURVE SMOOTH",
"48 351 LINE",
"189 350 LINE",
"193 367 LINE SMOOTH",
"200 402 OFFCURVE",
"226 422 OFFCURVE",
"275 422 CURVE SMOOTH",
"324 422 OFFCURVE",
"350 396 OFFCURVE",
"350 358 CURVE SMOOTH",
"350 0 LINE"
);
},
{
closed = 1;
nodes = (
"183 183 OFFCURVE",
"201 201 OFFCURVE",
"242 210 CURVE SMOOTH",
"341 230 LINE SMOOTH",
"379 238 OFFCURVE",
"418 261 OFFCURVE",
"421 300 CURVE",
"421 363 LINE",
"394 361 LINE",
"392 337 OFFCURVE",
"376 325 OFFCURVE",
"341 318 CURVE SMOOTH",
"193 289 LINE SMOOTH",
"83 267 OFFCURVE",
"34 223 OFFCURVE",
"34 133 CURVE SMOOTH",
"34 43 OFFCURVE",
"100 -15 OFFCURVE",
"202 -15 CURVE SMOOTH",
"336 -15 OFFCURVE",
"379 80 OFFCURVE",
"373 209 CURVE",
"350 209 LINE",
"350 127 OFFCURVE",
"310 97 OFFCURVE",
"249 97 CURVE SMOOTH",
"204 97 OFFCURVE",
"183 121 OFFCURVE",
"183 153 CURVE SMOOTH"
);
}
);
width = 531;
},
{
associatedMasterId = "C76CAC8E-7AD6-478C-8F7E-02FEF6F1EA84";
background = {
paths = (
{
closed = 1;
nodes = (
"482 0 LINE",
"482 362 LINE SMOOTH",
"482 472 OFFCURVE",
"406 540 OFFCURVE",
"276 540 CURVE SMOOTH",
"157 540 OFFCURVE",
"79 485 OFFCURVE",
"52 379 CURVE SMOOTH",
"45 351 LINE",
"188 350 LINE",
"194 367 LINE SMOOTH",
"207 405 OFFCURVE",
"231 424 OFFCURVE",
"277 424 CURVE SMOOTH",
"328 424 OFFCURVE",
"350 396 OFFCURVE",
"350 358 CURVE SMOOTH",
"350 0 LINE"
);
},
{
closed = 1;
nodes = (
"183 183 OFFCURVE",
"201 202 OFFCURVE",
"242 210 CURVE SMOOTH",
"356 233 LINE SMOOTH",
"394 241 OFFCURVE",
"433 264 OFFCURVE",
"436 303 CURVE",
"436 364 LINE",
"409 364 LINE",
"407 340 OFFCURVE",
"391 328 OFFCURVE",
"356 321 CURVE SMOOTH",
"193 289 LINE SMOOTH",
"83 267 OFFCURVE",
"34 223 OFFCURVE",
"34 133 CURVE SMOOTH",
"34 43 OFFCURVE",
"100 -15 OFFCURVE",
"202 -15 CURVE SMOOTH",
"336 -15 OFFCURVE",
"379 80 OFFCURVE",
"373 209 CURVE",
"350 209 LINE",
"350 127 OFFCURVE",
"310 97 OFFCURVE",
"249 97 CURVE SMOOTH",
"204 97 OFFCURVE",
"183 121 OFFCURVE",
"183 153 CURVE SMOOTH"
);
}
);
};
layerId = "ACBDDB0F-AD91-453B-B620-D542F12C63F4";
name = "Bold Universal Display Jul 25 16, 12:01";
paths = (
{
closed = 1;
nodes = (
"183 183 OFFCURVE",
"201 202 OFFCURVE",
"242 210 CURVE SMOOTH",
"356 233 LINE SMOOTH",
"394 241 OFFCURVE",
"433 264 OFFCURVE",
"436 303 CURVE",
"436 364 LINE",
"409 364 LINE",
"407 340 OFFCURVE",
"391 328 OFFCURVE",
"356 321 CURVE SMOOTH",
"193 289 LINE SMOOTH",
"83 267 OFFCURVE",
"34 223 OFFCURVE",
"34 133 CURVE SMOOTH",
"34 43 OFFCURVE",
"100 -15 OFFCURVE",
"202 -15 CURVE SMOOTH",
"336 -15 OFFCURVE",
"379 80 OFFCURVE",
"373 209 CURVE",
"350 209 LINE",
"350 127 OFFCURVE",
"310 97 OFFCURVE",
"249 97 CURVE SMOOTH",
"204 97 OFFCURVE",
"183 121 OFFCURVE",
"183 153 CURVE SMOOTH"
);
},
{
closed = 1;
nodes = (
"194 366 LINE",
"206 405 OFFCURVE",
"231 424 OFFCURVE",
"277 424 CURVE SMOOTH",
"328 424 OFFCURVE",
"350 396 OFFCURVE",
"350 358 CURVE SMOOTH",
"350 0 LINE",
"482 0 LINE",
"482 362 LINE SMOOTH",
"482 472 OFFCURVE",
"406 540 OFFCURVE",
"277 540 CURVE SMOOTH",
"161 540 OFFCURVE",
"77 484 OFFCURVE",
"53 379 CURVE SMOOTH",
"50 366 LINE"
);
}
);
width = 531;
},
{
associatedMasterId = "C76CAC8E-7AD6-478C-8F7E-02FEF6F1EA84";
background = {
paths = (
{
closed = 1;
nodes = (
"486 0 LINE",
"486 362 LINE SMOOTH",
"486 472 OFFCURVE",
"410 540 OFFCURVE",
"280 540 CURVE SMOOTH",
"161 540 OFFCURVE",
"82 485 OFFCURVE",
"56 379 CURVE SMOOTH",
"49 350 LINE",
"193 350 LINE",
"198 367 LINE SMOOTH",
"210 407 OFFCURVE",
"235 424 OFFCURVE",
"281 424 CURVE SMOOTH",
"332 424 OFFCURVE",
"354 396 OFFCURVE",
"354 358 CURVE SMOOTH",
"354 0 LINE"
);
},
{
closed = 1;
nodes = (
"180 183 OFFCURVE",
"199 202 OFFCURVE",
"242 210 CURVE SMOOTH",
"360 233 LINE SMOOTH",
"399 241 OFFCURVE",
"437 264 OFFCURVE",
"440 303 CURVE",
"440 364 LINE",
"413 364 LINE",
"411 340 OFFCURVE",
"397 328 OFFCURVE",
"360 321 CURVE SMOOTH",
"197 289 LINE SMOOTH",
"89 268 OFFCURVE",
"38 223 OFFCURVE",
"38 133 CURVE SMOOTH",
"38 44 OFFCURVE",
"104 -13 OFFCURVE",
"206 -13 CURVE SMOOTH",
"340 -13 OFFCURVE",
"383 81 OFFCURVE",
"377 209 CURVE",
"354 209 LINE",
"354 126 OFFCURVE",
"310 95 OFFCURVE",
"249 95 CURVE SMOOTH",
"202 95 OFFCURVE",
"180 120 OFFCURVE",
"180 153 CURVE SMOOTH"
);
}
);
};
layerId = "330EFF1D-B076-4FFA-B6B9-83819172BE9F";
name = "Bold Universal Display Jul 27 16, 16:44";
paths = (
{
closed = 1;
nodes = (
"486 0 LINE",
"486 362 LINE SMOOTH",
"486 472 OFFCURVE",
"410 540 OFFCURVE",
"280 540 CURVE SMOOTH",
"161 540 OFFCURVE",
"82 485 OFFCURVE",
"56 379 CURVE SMOOTH",
"49 350 LINE",
"193 350 LINE",
"198 367 LINE SMOOTH",
"210 407 OFFCURVE",
"235 424 OFFCURVE",
"281 424 CURVE SMOOTH",
"332 424 OFFCURVE",
"354 396 OFFCURVE",
"354 358 CURVE SMOOTH",
"354 0 LINE"
);
},
{
closed = 1;
nodes = (
"180 183 OFFCURVE",
"199 202 OFFCURVE",
"242 210 CURVE SMOOTH",
"360 233 LINE SMOOTH",
"399 241 OFFCURVE",
"437 264 OFFCURVE",
"440 303 CURVE",
"440 364 LINE",
"413 364 LINE",
"411 340 OFFCURVE",
"397 328 OFFCURVE",
"360 321 CURVE SMOOTH",
"197 289 LINE SMOOTH",
"89 268 OFFCURVE",
"38 223 OFFCURVE",
"38 133 CURVE SMOOTH",
"38 44 OFFCURVE",
"104 -13 OFFCURVE",
"206 -13 CURVE SMOOTH",
"340 -13 OFFCURVE",
"383 81 OFFCURVE",
"377 209 CURVE",
"354 209 LINE",
"354 126 OFFCURVE",
"310 95 OFFCURVE",
"249 95 CURVE SMOOTH",
"202 95 OFFCURVE",
"180 120 OFFCURVE",
"180 153 CURVE SMOOTH"
);
}
);
width = 541;
},
{
background = {
paths = (
{
closed = 1;
nodes = (
"306 -13 OFFCURVE",
"355 17 OFFCURVE",
"371 79 CURVE",
"362 72 LINE",
"389 72 LINE",
"377 81 LINE",
"392 0 LINE",
"506 0 LINE",
"506 374 LINE SMOOTH",
"506 481 OFFCURVE",
"429 540 OFFCURVE",
"290 540 CURVE SMOOTH",
"147 540 OFFCURVE",
"66 484 OFFCURVE",
"54 388 CURVE SMOOTH",
"52 372 LINE",
"194 372 LINE",
"196 383 LINE SMOOTH",
"202 415 OFFCURVE",
"231 430 OFFCURVE",
"287 430 CURVE SMOOTH",
"350 430 OFFCURVE",
"372 403 OFFCURVE",
"372 362 CURVE SMOOTH",
"372 178 LINE SMOOTH",
"372 122 OFFCURVE",
"342 89 OFFCURVE",
"257 89 CURVE SMOOTH",
"193 89 OFFCURVE",
"173 114 OFFCURVE",
"173 153 CURVE SMOOTH",
"173 186 OFFCURVE",
"191 209 OFFCURVE",
"234 214 CURVE SMOOTH",
"378 232 LINE SMOOTH",
"418 237 OFFCURVE",
"455 263 OFFCURVE",
"458 302 CURVE",
"458 363 LINE",
"431 363 LINE",
"429 338 OFFCURVE",
"415 324 OFFCURVE",
"378 318 CURVE SMOOTH",
"209 297 LINE SMOOTH",
"82 281 OFFCURVE",
"33 224 OFFCURVE",
"33 137 CURVE SMOOTH",
"33 45 OFFCURVE",
"96 -13 OFFCURVE",
"220 -13 CURVE SMOOTH"
);
}
);
};
guideLines = (
{
angle = 79.6952;
position = "{44, 372}";
},
{
angle = 7.125;
position = "{379, 316}";
}
);
layerId = "C76CAC8E-7AD6-478C-8F7E-02FEF6F1EA84";
paths = (
{
closed = 1;
nodes = (
"306 -13 OFFCURVE",
"355 17 OFFCURVE",
"371 79 CURVE",
"362 72 LINE",
"389 72 LINE",
"377 81 LINE",
"392 0 LINE",
"506 0 LINE",
"506 374 LINE SMOOTH",
"506 481 OFFCURVE",
"429 540 OFFCURVE",
"290 540 CURVE SMOOTH",
"147 540 OFFCURVE",
"66 484 OFFCURVE",
"54 388 CURVE SMOOTH",
"52 372 LINE",
"194 372 LINE",
"196 383 LINE SMOOTH",
"202 415 OFFCURVE",
"231 430 OFFCURVE",
"287 430 CURVE SMOOTH",
"350 430 OFFCURVE",
"372 403 OFFCURVE",
"372 362 CURVE SMOOTH",
"372 178 LINE SMOOTH",
"372 122 OFFCURVE",
"342 89 OFFCURVE",
"257 89 CURVE SMOOTH",
"193 89 OFFCURVE",
"173 114 OFFCURVE",
"173 153 CURVE SMOOTH",
"173 186 OFFCURVE",
"191 209 OFFCURVE",
"234 214 CURVE SMOOTH",
"378 232 LINE SMOOTH",
"418 237 OFFCURVE",
"455 263 OFFCURVE",
"458 302 CURVE",
"458 363 LINE",
"431 363 LINE",
"429 338 OFFCURVE",
"415 324 OFFCURVE",
"378 318 CURVE SMOOTH",
"209 297 LINE SMOOTH",
"82 281 OFFCURVE",
"33 224 OFFCURVE",
"33 137 CURVE SMOOTH",
"33 45 OFFCURVE",
"96 -13 OFFCURVE",
"220 -13 CURVE SMOOTH"
);
}
);
width = 571;
},
{
associatedMasterId = "C76CAC8E-7AD6-478C-8F7E-02FEF6F1EA84";
background = {
paths = (
{
closed = 0;
nodes = (
"492 214 LINE",
"492 80 OFFCURVE",
"395 -13 OFFCURVE",
"264 -13 CURVE SMOOTH",
"163 -13 OFFCURVE",
"103 35 OFFCURVE",
"103 121 CURVE SMOOTH",
"103 194 OFFCURVE",
"146 233 OFFCURVE",
"236 255 CURVE SMOOTH",
"438 304 LINE SMOOTH",
"475 313 OFFCURVE",
"490 324 OFFCURVE",
"492 348 CURVE"
);
},
{
closed = 0;
nodes = (
"492 0 LINE",
"492 387 LINE SMOOTH",
"492 477 OFFCURVE",
"431 540 OFFCURVE",
"317 540 CURVE SMOOTH",
"219 540 OFFCURVE",
"153 504 OFFCURVE",
"132 434 CURVE SMOOTH",
"124 408 LINE"
);
}
);
};
layerId = "B42109DD-DA7D-4272-AA47-EB2F3F412D0A";
name = "Universal Jul 20 16, 17:13";
paths = (
{
closed = 0;
nodes = (
"492 214 LINE",
"492 80 OFFCURVE",
"395 -13 OFFCURVE",
"264 -13 CURVE SMOOTH",
"163 -13 OFFCURVE",
"103 35 OFFCURVE",
"103 121 CURVE SMOOTH",
"103 194 OFFCURVE",
"146 233 OFFCURVE",
"236 255 CURVE SMOOTH",
"438 304 LINE SMOOTH",
"475 313 OFFCURVE",
"490 324 OFFCURVE",
"492 348 CURVE"
);
},
{
closed = 0;
nodes = (
"492 0 LINE",
"492 387 LINE SMOOTH",
"492 477 OFFCURVE",
"431 540 OFFCURVE",
"317 540 CURVE SMOOTH",
"219 540 OFFCURVE",
"153 504 OFFCURVE",
"132 434 CURVE SMOOTH",
"124 408 LINE"
);
}
);
width = 600;
},
{
associatedMasterId = "C76CAC8E-7AD6-478C-8F7E-02FEF6F1EA84";
background = {
paths = (
{
closed = 1;
nodes = (
"439 0 LINE",
"439 370 LINE SMOOTH",
"439 467 OFFCURVE",
"373 530 OFFCURVE",
"266 530 CURVE SMOOTH",
"176 530 OFFCURVE",
"111 491 OFFCURVE",
"82 414 CURVE SMOOTH",
"73 390 LINE",
"93 390 LINE",
"101 411 LINE SMOOTH",
"126 478 OFFCURVE",
"181 512 OFFCURVE",
"266 512 CURVE SMOOTH",
"365 512 OFFCURVE",
"421 455 OFFCURVE",
"421 369 CURVE SMOOTH",
"421 0 LINE"
);
},
{
closed = 1;
nodes = (
"75 176 OFFCURVE",
"101 213 OFFCURVE",
"188 234 CURVE SMOOTH",
"380 282 LINE SMOOTH",
"416 290 OFFCURVE",
"431 301 OFFCURVE",
"433 324 CURVE",
"433 341 LINE",
"428 341 LINE",
"426 317 OFFCURVE",
"411 307 OFFCURVE",
"375 298 CURVE SMOOTH",
"183 250 LINE SMOOTH",
"91 228 OFFCURVE",
"55 184 OFFCURVE",
"55 117 CURVE SMOOTH",
"55 33 OFFCURVE",
"118 -15 OFFCURVE",
"214 -15 CURVE SMOOTH",
"332 -15 OFFCURVE",
"438 79 OFFCURVE",
"432 208 CURVE",
"421 208 LINE",
"421 82 OFFCURVE",
"317 3 OFFCURVE",
"215 3 CURVE SMOOTH",
"129 3 OFFCURVE",
"75 44 OFFCURVE",
"75 117 CURVE SMOOTH"
);
}
);
};
guideLines = (
{
angle = 69.444;
position = "{73, 390}";
},
{
angle = 69.4439;
position = "{93, 390}";
}
);
layerId = "C11778D7-3F06-455C-905E-FA02D27E08E6";
name = "Universal Display Aug 9 16, 09:56";
paths = (
{
closed = 1;
nodes = (
"439 0 LINE",
"439 370 LINE SMOOTH",
"439 467 OFFCURVE",
"373 530 OFFCURVE",
"266 530 CURVE SMOOTH",
"176 530 OFFCURVE",
"111 491 OFFCURVE",
"82 414 CURVE SMOOTH",
"73 390 LINE",
"93 390 LINE",
"101 411 LINE SMOOTH",
"126 478 OFFCURVE",
"181 512 OFFCURVE",
"266 512 CURVE SMOOTH",
"365 512 OFFCURVE",
"421 455 OFFCURVE",
"421 369 CURVE SMOOTH",
"421 0 LINE"
);
},
{
closed = 1;
nodes = (
"75 176 OFFCURVE",
"101 213 OFFCURVE",
"188 234 CURVE SMOOTH",
"380 282 LINE SMOOTH",
"416 290 OFFCURVE",
"431 301 OFFCURVE",
"433 324 CURVE",
"433 341 LINE",
"428 341 LINE",
"426 317 OFFCURVE",
"411 307 OFFCURVE",
"375 298 CURVE SMOOTH",
"183 250 LINE SMOOTH",
"91 228 OFFCURVE",
"55 184 OFFCURVE",
"55 117 CURVE SMOOTH",
"55 33 OFFCURVE",
"118 -15 OFFCURVE",
"214 -15 CURVE SMOOTH",
"332 -15 OFFCURVE",
"438 79 OFFCURVE",
"432 208 CURVE",
"421 208 LINE",
"421 82 OFFCURVE",
"317 3 OFFCURVE",
"215 3 CURVE SMOOTH",
"129 3 OFFCURVE",
"75 44 OFFCURVE",
"75 117 CURVE SMOOTH"
);
}
);
width = 514;
},
{
associatedMasterId = "062D78B0-B209-4D64-99AA-ACBF5D882D7F";
background = {
paths = (
{
closed = 0;
nodes = (
"492 214 LINE",
"492 80 OFFCURVE",
"395 -13 OFFCURVE",
"264 -13 CURVE SMOOTH",
"163 -13 OFFCURVE",
"103 35 OFFCURVE",
"103 121 CURVE SMOOTH",
"103 194 OFFCURVE",
"146 233 OFFCURVE",
"236 255 CURVE SMOOTH",
"438 304 LINE SMOOTH",
"475 313 OFFCURVE",
"490 324 OFFCURVE",
"492 348 CURVE"
);
},
{
closed = 0;
nodes = (
"492 0 LINE",
"492 387 LINE SMOOTH",
"492 477 OFFCURVE",
"431 540 OFFCURVE",
"317 540 CURVE SMOOTH",
"219 540 OFFCURVE",
"153 504 OFFCURVE",
"132 434 CURVE SMOOTH",
"124 408 LINE"
);
}
);
};
layerId = "DB7A3BD5-195E-498F-B7A6-31125EC6142A";
name = "Universal Jul 20 16, 17:13";
paths = (
{
closed = 0;
nodes = (
"492 214 LINE",
"492 80 OFFCURVE",
"395 -13 OFFCURVE",
"264 -13 CURVE SMOOTH",
"163 -13 OFFCURVE",
"103 35 OFFCURVE",
"103 121 CURVE SMOOTH",
"103 194 OFFCURVE",
"146 233 OFFCURVE",
"236 255 CURVE SMOOTH",
"438 304 LINE SMOOTH",
"475 313 OFFCURVE",
"490 324 OFFCURVE",
"492 348 CURVE"
);
},
{
closed = 0;
nodes = (
"492 0 LINE",
"492 387 LINE SMOOTH",
"492 477 OFFCURVE",
"431 540 OFFCURVE",
"317 540 CURVE SMOOTH",
"219 540 OFFCURVE",
"153 504 OFFCURVE",
"132 434 CURVE SMOOTH",
"124 408 LINE"
);
}
);
width = 600;
},
{
associatedMasterId = "062D78B0-B209-4D64-99AA-ACBF5D882D7F";
background = {
paths = (
{
closed = 1;
nodes = (
"482 0 LINE",
"482 362 LINE SMOOTH",
"482 472 OFFCURVE",
"406 540 OFFCURVE",
"276 540 CURVE SMOOTH",
"143 540 OFFCURVE",
"70 475 OFFCURVE",
"53 379 CURVE SMOOTH",
"48 351 LINE",
"189 350 LINE",
"193 367 LINE SMOOTH",
"200 402 OFFCURVE",
"226 422 OFFCURVE",
"275 422 CURVE SMOOTH",
"324 422 OFFCURVE",
"350 396 OFFCURVE",
"350 358 CURVE SMOOTH",
"350 0 LINE"
);
},
{
closed = 1;
nodes = (
"183 183 OFFCURVE",
"201 201 OFFCURVE",
"242 210 CURVE SMOOTH",
"341 230 LINE SMOOTH",
"379 238 OFFCURVE",
"418 261 OFFCURVE",
"421 300 CURVE",
"421 363 LINE",
"394 361 LINE",
"392 337 OFFCURVE",
"376 325 OFFCURVE",
"341 318 CURVE SMOOTH",
"193 289 LINE SMOOTH",
"83 267 OFFCURVE",
"34 223 OFFCURVE",
"34 133 CURVE SMOOTH",
"34 43 OFFCURVE",
"100 -15 OFFCURVE",
"202 -15 CURVE SMOOTH",
"336 -15 OFFCURVE",
"379 80 OFFCURVE",
"373 209 CURVE",
"350 209 LINE",
"350 127 OFFCURVE",
"310 97 OFFCURVE",
"249 97 CURVE SMOOTH",
"204 97 OFFCURVE",
"183 121 OFFCURVE",
"183 153 CURVE SMOOTH"
);
}
);
};
layerId = "71794957-6694-4F15-94E8-8B3C0D2DC914";
name = "Bold Universal Display Jul 24 16, 18:39";
paths = (
{
closed = 1;
nodes = (
"482 0 LINE",
"482 362 LINE SMOOTH",
"482 472 OFFCURVE",
"406 540 OFFCURVE",
"276 540 CURVE SMOOTH",
"143 540 OFFCURVE",
"70 475 OFFCURVE",
"53 379 CURVE SMOOTH",
"48 351 LINE",
"189 350 LINE",
"193 367 LINE SMOOTH",
"200 402 OFFCURVE",
"226 422 OFFCURVE",
"275 422 CURVE SMOOTH",
"324 422 OFFCURVE",
"350 396 OFFCURVE",
"350 358 CURVE SMOOTH",
"350 0 LINE"
);
},
{
closed = 1;
nodes = (
"183 183 OFFCURVE",
"201 201 OFFCURVE",
"242 210 CURVE SMOOTH",
"341 230 LINE SMOOTH",
"379 238 OFFCURVE",
"418 261 OFFCURVE",
"421 300 CURVE",
"421 363 LINE",
"394 361 LINE",
"392 337 OFFCURVE",
"376 325 OFFCURVE",
"341 318 CURVE SMOOTH",
"193 289 LINE SMOOTH",
"83 267 OFFCURVE",
"34 223 OFFCURVE",
"34 133 CURVE SMOOTH",
"34 43 OFFCURVE",
"100 -15 OFFCURVE",
"202 -15 CURVE SMOOTH",
"336 -15 OFFCURVE",
"379 80 OFFCURVE",
"373 209 CURVE",
"350 209 LINE",
"350 127 OFFCURVE",
"310 97 OFFCURVE",
"249 97 CURVE SMOOTH",
"204 97 OFFCURVE",
"183 121 OFFCURVE",
"183 153 CURVE SMOOTH"
);
}
);
width = 531;
},
{
associatedMasterId = "062D78B0-B209-4D64-99AA-ACBF5D882D7F";
background = {
paths = (
{
closed = 1;
nodes = (
"482 0 LINE",
"482 362 LINE SMOOTH",
"482 472 OFFCURVE",
"406 540 OFFCURVE",
"276 540 CURVE SMOOTH",
"157 540 OFFCURVE",
"79 485 OFFCURVE",
"52 379 CURVE SMOOTH",
"45 351 LINE",
"188 350 LINE",
"194 367 LINE SMOOTH",
"207 405 OFFCURVE",
"231 424 OFFCURVE",
"277 424 CURVE SMOOTH",
"328 424 OFFCURVE",
"350 396 OFFCURVE",
"350 358 CURVE SMOOTH",
"350 0 LINE"
);
},
{
closed = 1;
nodes = (
"183 183 OFFCURVE",
"201 202 OFFCURVE",
"242 210 CURVE SMOOTH",
"356 233 LINE SMOOTH",
"394 241 OFFCURVE",
"433 264 OFFCURVE",
"436 303 CURVE",
"436 364 LINE",
"409 364 LINE",
"407 340 OFFCURVE",
"391 328 OFFCURVE",
"356 321 CURVE SMOOTH",
"193 289 LINE SMOOTH",
"83 267 OFFCURVE",
"34 223 OFFCURVE",
"34 133 CURVE SMOOTH",
"34 43 OFFCURVE",
"100 -15 OFFCURVE",
"202 -15 CURVE SMOOTH",
"336 -15 OFFCURVE",
"379 80 OFFCURVE",
"373 209 CURVE",
"350 209 LINE",
"350 127 OFFCURVE",
"310 97 OFFCURVE",
"249 97 CURVE SMOOTH",
"204 97 OFFCURVE",
"183 121 OFFCURVE",
"183 153 CURVE SMOOTH"
);
}
);
};
layerId = "38A3B187-935B-438B-B953-5E5CAF60EF38";
name = "Bold Universal Display Jul 25 16, 12:01";
paths = (
{
closed = 1;
nodes = (
"183 183 OFFCURVE",
"201 202 OFFCURVE",
"242 210 CURVE SMOOTH",
"356 233 LINE SMOOTH",
"394 241 OFFCURVE",
"433 264 OFFCURVE",
"436 303 CURVE",
"436 364 LINE",
"409 364 LINE",
"407 340 OFFCURVE",
"391 328 OFFCURVE",
"356 321 CURVE SMOOTH",
"193 289 LINE SMOOTH",
"83 267 OFFCURVE",
"34 223 OFFCURVE",
"34 133 CURVE SMOOTH",
"34 43 OFFCURVE",
"100 -15 OFFCURVE",
"202 -15 CURVE SMOOTH",
"336 -15 OFFCURVE",
"379 80 OFFCURVE",
"373 209 CURVE",
"350 209 LINE",
"350 127 OFFCURVE",
"310 97 OFFCURVE",
"249 97 CURVE SMOOTH",
"204 97 OFFCURVE",
"183 121 OFFCURVE",
"183 153 CURVE SMOOTH"
);
},
{
closed = 1;
nodes = (
"194 366 LINE",
"206 405 OFFCURVE",
"231 424 OFFCURVE",
"277 424 CURVE SMOOTH",
"328 424 OFFCURVE",
"350 396 OFFCURVE",
"350 358 CURVE SMOOTH",
"350 0 LINE",
"482 0 LINE",
"482 362 LINE SMOOTH",
"482 472 OFFCURVE",
"406 540 OFFCURVE",
"277 540 CURVE SMOOTH",
"161 540 OFFCURVE",
"77 484 OFFCURVE",
"53 379 CURVE SMOOTH",
"50 366 LINE"
);
}
);
width = 531;
},
{
associatedMasterId = "062D78B0-B209-4D64-99AA-ACBF5D882D7F";
background = {
paths = (
{
closed = 1;
nodes = (
"486 0 LINE",
"486 362 LINE SMOOTH",
"486 472 OFFCURVE",
"410 540 OFFCURVE",
"280 540 CURVE SMOOTH",
"161 540 OFFCURVE",
"82 485 OFFCURVE",
"56 379 CURVE SMOOTH",
"49 350 LINE",
"193 350 LINE",
"198 367 LINE SMOOTH",
"210 407 OFFCURVE",
"235 424 OFFCURVE",
"281 424 CURVE SMOOTH",
"332 424 OFFCURVE",
"354 396 OFFCURVE",
"354 358 CURVE SMOOTH",
"354 0 LINE"
);
},
{
closed = 1;
nodes = (
"180 183 OFFCURVE",
"199 202 OFFCURVE",
"242 210 CURVE SMOOTH",
"360 233 LINE SMOOTH",
"399 241 OFFCURVE",
"437 264 OFFCURVE",
"440 303 CURVE",
"440 364 LINE",
"413 364 LINE",
"411 340 OFFCURVE",
"397 328 OFFCURVE",
"360 321 CURVE SMOOTH",
"197 289 LINE SMOOTH",
"89 268 OFFCURVE",
"38 223 OFFCURVE",
"38 133 CURVE SMOOTH",
"38 44 OFFCURVE",
"104 -13 OFFCURVE",
"206 -13 CURVE SMOOTH",
"340 -13 OFFCURVE",
"383 81 OFFCURVE",
"377 209 CURVE",
"354 209 LINE",
"354 126 OFFCURVE",
"310 95 OFFCURVE",
"249 95 CURVE SMOOTH",
"202 95 OFFCURVE",
"180 120 OFFCURVE",
"180 153 CURVE SMOOTH"
);
}
);
};
layerId = "EE2B7256-3357-4F88-B485-875A1D2525DB";
name = "Bold Universal Display Jul 27 16, 16:44";
paths = (
{
closed = 1;
nodes = (
"486 0 LINE",
"486 362 LINE SMOOTH",
"486 472 OFFCURVE",
"410 540 OFFCURVE",
"280 540 CURVE SMOOTH",
"161 540 OFFCURVE",
"82 485 OFFCURVE",
"56 379 CURVE SMOOTH",
"49 350 LINE",
"193 350 LINE",
"198 367 LINE SMOOTH",
"210 407 OFFCURVE",
"235 424 OFFCURVE",
"281 424 CURVE SMOOTH",
"332 424 OFFCURVE",
"354 396 OFFCURVE",
"354 358 CURVE SMOOTH",
"354 0 LINE"
);
},
{
closed = 1;
nodes = (
"180 183 OFFCURVE",
"199 202 OFFCURVE",
"242 210 CURVE SMOOTH",
"360 233 LINE SMOOTH",
"399 241 OFFCURVE",
"437 264 OFFCURVE",
"440 303 CURVE",
"440 364 LINE",
"413 364 LINE",
"411 340 OFFCURVE",
"397 328 OFFCURVE",
"360 321 CURVE SMOOTH",
"197 289 LINE SMOOTH",
"89 268 OFFCURVE",
"38 223 OFFCURVE",
"38 133 CURVE SMOOTH",
"38 44 OFFCURVE",
"104 -13 OFFCURVE",
"206 -13 CURVE SMOOTH",
"340 -13 OFFCURVE",
"383 81 OFFCURVE",
"377 209 CURVE",
"354 209 LINE",
"354 126 OFFCURVE",
"310 95 OFFCURVE",
"249 95 CURVE SMOOTH",
"202 95 OFFCURVE",
"180 120 OFFCURVE",
"180 153 CURVE SMOOTH"
);
}
);
width = 541;
},
{
associatedMasterId = "062D78B0-B209-4D64-99AA-ACBF5D882D7F";
background = {
paths = (
{
closed = 0;
nodes = (
"492 214 LINE",
"492 80 OFFCURVE",
"395 -13 OFFCURVE",
"264 -13 CURVE SMOOTH",
"163 -13 OFFCURVE",
"103 35 OFFCURVE",
"103 121 CURVE SMOOTH",
"103 194 OFFCURVE",
"146 233 OFFCURVE",
"236 255 CURVE SMOOTH",
"438 304 LINE SMOOTH",
"475 313 OFFCURVE",
"490 324 OFFCURVE",
"492 348 CURVE"
);
},
{
closed = 0;
nodes = (
"492 0 LINE",
"492 387 LINE SMOOTH",
"492 477 OFFCURVE",
"431 540 OFFCURVE",
"317 540 CURVE SMOOTH",
"219 540 OFFCURVE",
"153 504 OFFCURVE",
"132 434 CURVE SMOOTH",
"124 408 LINE"
);
}
);
};
layerId = "284387EF-6F11-44D8-B09C-C51BD54F6408";
name = "Universal Jul 20 16, 17:13";
paths = (
{
closed = 0;
nodes = (
"492 214 LINE",
"492 80 OFFCURVE",
"395 -13 OFFCURVE",
"264 -13 CURVE SMOOTH",
"163 -13 OFFCURVE",
"103 35 OFFCURVE",
"103 121 CURVE SMOOTH",
"103 194 OFFCURVE",
"146 233 OFFCURVE",
"236 255 CURVE SMOOTH",
"438 304 LINE SMOOTH",
"475 313 OFFCURVE",
"490 324 OFFCURVE",
"492 348 CURVE"
);
},
{
closed = 0;
nodes = (
"492 0 LINE",
"492 387 LINE SMOOTH",
"492 477 OFFCURVE",
"431 540 OFFCURVE",
"317 540 CURVE SMOOTH",
"219 540 OFFCURVE",
"153 504 OFFCURVE",
"132 434 CURVE SMOOTH",
"124 408 LINE"
);
}
);
width = 600;
},
{
associatedMasterId = "062D78B0-B209-4D64-99AA-ACBF5D882D7F";
background = {
paths = (
{
closed = 1;
nodes = (
"439 0 LINE",
"439 370 LINE SMOOTH",
"439 467 OFFCURVE",
"373 530 OFFCURVE",
"266 530 CURVE SMOOTH",
"176 530 OFFCURVE",
"111 491 OFFCURVE",
"82 414 CURVE SMOOTH",
"73 390 LINE",
"93 390 LINE",
"101 411 LINE SMOOTH",
"126 478 OFFCURVE",
"181 512 OFFCURVE",
"266 512 CURVE SMOOTH",
"365 512 OFFCURVE",
"421 455 OFFCURVE",
"421 369 CURVE SMOOTH",
"421 0 LINE"
);
},
{
closed = 1;
nodes = (
"75 176 OFFCURVE",
"101 213 OFFCURVE",
"188 234 CURVE SMOOTH",
"380 282 LINE SMOOTH",
"416 290 OFFCURVE",
"431 301 OFFCURVE",
"433 324 CURVE",
"433 341 LINE",
"428 341 LINE",
"426 317 OFFCURVE",
"411 307 OFFCURVE",
"375 298 CURVE SMOOTH",
"183 250 LINE SMOOTH",
"91 228 OFFCURVE",
"55 184 OFFCURVE",
"55 117 CURVE SMOOTH",
"55 33 OFFCURVE",
"118 -15 OFFCURVE",
"214 -15 CURVE SMOOTH",
"332 -15 OFFCURVE",
"438 79 OFFCURVE",
"432 208 CURVE",
"421 208 LINE",
"421 82 OFFCURVE",
"317 3 OFFCURVE",
"215 3 CURVE SMOOTH",
"129 3 OFFCURVE",
"75 44 OFFCURVE",
"75 117 CURVE SMOOTH"
);
}
);
};
guideLines = (
{
angle = 69.444;
position = "{73, 390}";
},
{
angle = 69.4439;
position = "{93, 390}";
}
);
layerId = "6FE3EC39-7DD2-4981-92A6-DB9EAE6462B4";
name = "Universal Display Aug 9 16, 09:56";
paths = (
{
closed = 1;
nodes = (
"439 0 LINE",
"439 370 LINE SMOOTH",
"439 467 OFFCURVE",
"373 530 OFFCURVE",
"266 530 CURVE SMOOTH",
"176 530 OFFCURVE",
"111 491 OFFCURVE",
"82 414 CURVE SMOOTH",
"73 390 LINE",
"93 390 LINE",
"101 411 LINE SMOOTH",
"126 478 OFFCURVE",
"181 512 OFFCURVE",
"266 512 CURVE SMOOTH",
"365 512 OFFCURVE",
"421 455 OFFCURVE",
"421 369 CURVE SMOOTH",
"421 0 LINE"
);
},
{
closed = 1;
nodes = (
"75 176 OFFCURVE",
"101 213 OFFCURVE",
"188 234 CURVE SMOOTH",
"380 282 LINE SMOOTH",
"416 290 OFFCURVE",
"431 301 OFFCURVE",
"433 324 CURVE",
"433 341 LINE",
"428 341 LINE",
"426 317 OFFCURVE",
"411 307 OFFCURVE",
"375 298 CURVE SMOOTH",
"183 250 LINE SMOOTH",
"91 228 OFFCURVE",
"55 184 OFFCURVE",
"55 117 CURVE SMOOTH",
"55 33 OFFCURVE",
"118 -15 OFFCURVE",
"214 -15 CURVE SMOOTH",
"332 -15 OFFCURVE",
"438 79 OFFCURVE",
"432 208 CURVE",
"421 208 LINE",
"421 82 OFFCURVE",
"317 3 OFFCURVE",
"215 3 CURVE SMOOTH",
"129 3 OFFCURVE",
"75 44 OFFCURVE",
"75 117 CURVE SMOOTH"
);
}
);
width = 514;
}
);
rightMetricsKey = "=n";
unicode = 0061;
},
{
color = 5;
glyphname = c;
lastChange = "2016-11-25 09:30:50 +0000";
layers = (
{
background = {
paths = (
{
closed = 1;
nodes = (
"479 -12 OFFCURVE",
"571 89 OFFCURVE",
"571 264 CURVE SMOOTH",
"571 439 OFFCURVE",
"479 540 OFFCURVE",
"305 540 CURVE SMOOTH",
"131 540 OFFCURVE",
"39 439 OFFCURVE",
"39 264 CURVE SMOOTH",
"39 89 OFFCURVE",
"131 -12 OFFCURVE",
"305 -12 CURVE SMOOTH"
);
},
{
closed = 1;
nodes = (
"221 103 OFFCURVE",
"187 160 OFFCURVE",
"187 264 CURVE SMOOTH",
"187 368 OFFCURVE",
"221 425 OFFCURVE",
"305 425 CURVE SMOOTH",
"389 425 OFFCURVE",
"423 368 OFFCURVE",
"423 264 CURVE SMOOTH",
"423 160 OFFCURVE",
"389 103 OFFCURVE",
"305 103 CURVE SMOOTH"
);
}
);
};
layerId = "C76CAC8E-7AD6-478C-8F7E-02FEF6F1EA84";
paths = (
{
closed = 1;
nodes = (
"437 -13 OFFCURVE",
"523 43 OFFCURVE",
"534 170 CURVE SMOOTH",
"535 182 LINE",
"394 182 LINE",
"393 175 LINE SMOOTH",
"386 127 OFFCURVE",
"363 102 OFFCURVE",
"302 102 CURVE SMOOTH",
"220 102 OFFCURVE",
"186 160 OFFCURVE",
"186 264 CURVE SMOOTH",
"186 368 OFFCURVE",
"220 425 OFFCURVE",
"303 425 CURVE SMOOTH",
"361 425 OFFCURVE",
"386 402 OFFCURVE",
"392 354 CURVE SMOOTH",
"393 347 LINE",
"534 347 LINE",
"533 359 LINE SMOOTH",
"522 486 OFFCURVE",
"436 540 OFFCURVE",
"299 540 CURVE SMOOTH",
"132 540 OFFCURVE",
"40 439 OFFCURVE",
"40 264 CURVE SMOOTH",
"40 88 OFFCURVE",
"132 -13 OFFCURVE",
"298 -13 CURVE SMOOTH"
);
}
);
width = 568;
}
);
leftMetricsKey = "=o";
unicode = 0063;
},
{
color = 4;
glyphname = d;
lastChange = "2016-11-25 09:30:50 +0000";
layers = (
{
associatedMasterId = "2F6174A6-5E34-4AB0-BBF3-B5DC3B823A34";
layerId = "D1781237-526E-43BB-92F1-B97ED8A3A831";
name = "Bold Universal Display Aug 3 16, 18:27";
paths = (
{
closed = 1;
nodes = (
"356 -13 OFFCURVE",
"412 48 OFFCURVE",
"426 133 CURVE",
"407 223 LINE",
"407 153 OFFCURVE",
"369 113 OFFCURVE",
"297 113 CURVE SMOOTH",
"232 113 OFFCURVE",
"188 158 OFFCURVE",
"188 260 CURVE SMOOTH",
"188 356 OFFCURVE",
"234 411 OFFCURVE",
"306 411 CURVE SMOOTH",
"372 411 OFFCURVE",
"407 369 OFFCURVE",
"407 289 CURVE",
"426 379 LINE",
"414 476 OFFCURVE",
"367 537 OFFCURVE",
"268 537 CURVE SMOOTH",
"127 537 OFFCURVE",
"40 418 OFFCURVE",
"40 261 CURVE SMOOTH",
"40 91 OFFCURVE",
"125 -13 OFFCURVE",
"253 -13 CURVE SMOOTH"
);
},
{
closed = 1;
nodes = (
"547 0 LINE",
"547 720 LINE",
"407 720 LINE",
"407 0 LINE"
);
}
);
width = 612;
},
{
associatedMasterId = "2F6174A6-5E34-4AB0-BBF3-B5DC3B823A34";
background = {
paths = (
{
closed = 1;
nodes = (
"559 0 LINE",
"559 720 LINE",
"419 720 LINE",
"419 0 LINE"
);
},
{
closed = 0;
nodes = (
"421 224 LINE",
"421 151 OFFCURVE",
"376 112 OFFCURVE",
"301 113 CURVE SMOOTH",
"227 114 OFFCURVE",
"186 167 OFFCURVE",
"186 264 CURVE SMOOTH"
);
},
{
closed = 0;
nodes = (
"38 264 LINE",
"38 110 OFFCURVE",
"121 -13 OFFCURVE",
"266 -13 CURVE SMOOTH",
"352 -13 OFFCURVE",
"425 36 OFFCURVE",
"431 119 CURVE"
);
}
);
};
layerId = "B93DE178-1C45-43C7-B222-A39E5E4202F9";
name = "Bold Universal Display Aug 3 16, 18:44";
paths = (
{
closed = 1;
nodes = (
"351 -13 OFFCURVE",
"423 47 OFFCURVE",
"429 131 CURVE",
"429 235 LINE",
"417 235 LINE",
"417 168 OFFCURVE",
"374 118 OFFCURVE",
"308 118 CURVE SMOOTH",
"231 118 OFFCURVE",
"188 168 OFFCURVE",
"188 264 CURVE SMOOTH",
"188 360 OFFCURVE",
"231 410 OFFCURVE",
"308 410 CURVE SMOOTH",
"374 410 OFFCURVE",
"417 360 OFFCURVE",
"417 293 CURVE",
"429 293 LINE",
"429 397 LINE",
"423 480 OFFCURVE",
"351 541 OFFCURVE",
"267 541 CURVE SMOOTH",
"132 541 OFFCURVE",
"40 430 OFFCURVE",
"40 264 CURVE SMOOTH",
"40 98 OFFCURVE",
"132 -13 OFFCURVE",
"268 -13 CURVE SMOOTH"
);
},
{
closed = 1;
nodes = (
"557 0 LINE",
"557 720 LINE",
"417 720 LINE",
"417 0 LINE"
);
}
);
width = 622;
},
{
associatedMasterId = "2F6174A6-5E34-4AB0-BBF3-B5DC3B823A34";
layerId = "B5272F17-9DAE-4272-91E8-5B8E16965A5B";
name = "Bold Universal Display Aug 3 16, 18:27";
paths = (
{
closed = 1;
nodes = (
"356 -13 OFFCURVE",
"412 48 OFFCURVE",
"426 133 CURVE",
"407 223 LINE",
"407 153 OFFCURVE",
"369 113 OFFCURVE",
"297 113 CURVE SMOOTH",
"232 113 OFFCURVE",
"188 158 OFFCURVE",
"188 260 CURVE SMOOTH",
"188 356 OFFCURVE",
"234 411 OFFCURVE",
"306 411 CURVE SMOOTH",
"372 411 OFFCURVE",
"407 369 OFFCURVE",
"407 289 CURVE",
"426 379 LINE",
"414 476 OFFCURVE",
"367 537 OFFCURVE",
"268 537 CURVE SMOOTH",
"127 537 OFFCURVE",
"40 418 OFFCURVE",
"40 261 CURVE SMOOTH",
"40 91 OFFCURVE",
"125 -13 OFFCURVE",
"253 -13 CURVE SMOOTH"
);
},
{
closed = 1;
nodes = (
"547 0 LINE",
"547 720 LINE",
"407 720 LINE",
"407 0 LINE"
);
}
);
width = 612;
},
{
associatedMasterId = "2F6174A6-5E34-4AB0-BBF3-B5DC3B823A34";
background = {
paths = (
{
closed = 1;
nodes = (
"559 0 LINE",
"559 720 LINE",
"419 720 LINE",
"419 0 LINE"
);
},
{
closed = 0;
nodes = (
"421 224 LINE",
"421 151 OFFCURVE",
"376 112 OFFCURVE",
"301 113 CURVE SMOOTH",
"227 114 OFFCURVE",
"186 167 OFFCURVE",
"186 264 CURVE SMOOTH"
);
},
{
closed = 0;
nodes = (
"38 264 LINE",
"38 110 OFFCURVE",
"121 -13 OFFCURVE",
"266 -13 CURVE SMOOTH",
"352 -13 OFFCURVE",
"425 36 OFFCURVE",
"431 119 CURVE"
);
}
);
};
layerId = "3B9642CD-4934-46DB-8D3D-E81EA434E5A0";
name = "Bold Universal Display Aug 3 16, 18:44";
paths = (
{
closed = 1;
nodes = (
"351 -13 OFFCURVE",
"423 47 OFFCURVE",
"429 131 CURVE",
"429 235 LINE",
"417 235 LINE",
"417 168 OFFCURVE",
"374 118 OFFCURVE",
"308 118 CURVE SMOOTH",
"231 118 OFFCURVE",
"188 168 OFFCURVE",
"188 264 CURVE SMOOTH",
"188 360 OFFCURVE",
"231 410 OFFCURVE",
"308 410 CURVE SMOOTH",
"374 410 OFFCURVE",
"417 360 OFFCURVE",
"417 293 CURVE",
"429 293 LINE",
"429 397 LINE",
"423 480 OFFCURVE",
"351 541 OFFCURVE",
"267 541 CURVE SMOOTH",
"132 541 OFFCURVE",
"40 430 OFFCURVE",
"40 264 CURVE SMOOTH",
"40 98 OFFCURVE",
"132 -13 OFFCURVE",
"268 -13 CURVE SMOOTH"
);
},
{
closed = 1;
nodes = (
"557 0 LINE",
"557 720 LINE",
"417 720 LINE",
"417 0 LINE"
);
}
);
width = 622;
},
{
associatedMasterId = "C76CAC8E-7AD6-478C-8F7E-02FEF6F1EA84";
layerId = "B80A36BB-8123-4304-BD15-7187B17A1387";
name = "Bold Universal Display Aug 3 16, 18:27";
paths = (
{
closed = 1;
nodes = (
"356 -13 OFFCURVE",
"412 48 OFFCURVE",
"426 133 CURVE",
"407 223 LINE",
"407 153 OFFCURVE",
"369 113 OFFCURVE",
"297 113 CURVE SMOOTH",
"232 113 OFFCURVE",
"188 158 OFFCURVE",
"188 260 CURVE SMOOTH",
"188 356 OFFCURVE",
"234 411 OFFCURVE",
"306 411 CURVE SMOOTH",
"372 411 OFFCURVE",
"407 369 OFFCURVE",
"407 289 CURVE",
"426 379 LINE",
"414 476 OFFCURVE",
"367 537 OFFCURVE",
"268 537 CURVE SMOOTH",
"127 537 OFFCURVE",
"40 418 OFFCURVE",
"40 261 CURVE SMOOTH",
"40 91 OFFCURVE",
"125 -13 OFFCURVE",
"253 -13 CURVE SMOOTH"
);
},
{
closed = 1;
nodes = (
"547 0 LINE",
"547 720 LINE",
"407 720 LINE",
"407 0 LINE"
);
}
);
width = 612;
},
{
associatedMasterId = "C76CAC8E-7AD6-478C-8F7E-02FEF6F1EA84";
background = {
paths = (
{
closed = 1;
nodes = (
"559 0 LINE",
"559 720 LINE",
"419 720 LINE",
"419 0 LINE"
);
},
{
closed = 0;
nodes = (
"421 224 LINE",
"421 151 OFFCURVE",
"376 112 OFFCURVE",
"301 113 CURVE SMOOTH",
"227 114 OFFCURVE",
"186 167 OFFCURVE",
"186 264 CURVE SMOOTH"
);
},
{
closed = 0;
nodes = (
"38 264 LINE",
"38 110 OFFCURVE",
"121 -13 OFFCURVE",
"266 -13 CURVE SMOOTH",
"352 -13 OFFCURVE",
"425 36 OFFCURVE",
"431 119 CURVE"
);
}
);
};
layerId = "4E5C0AD9-88BB-427E-8FED-97B9472EBED8";
name = "Bold Universal Display Aug 3 16, 18:44";
paths = (
{
closed = 1;
nodes = (
"351 -13 OFFCURVE",
"423 47 OFFCURVE",
"429 131 CURVE",
"429 235 LINE",
"417 235 LINE",
"417 168 OFFCURVE",
"374 118 OFFCURVE",
"308 118 CURVE SMOOTH",
"231 118 OFFCURVE",
"188 168 OFFCURVE",
"188 264 CURVE SMOOTH",
"188 360 OFFCURVE",
"231 410 OFFCURVE",
"308 410 CURVE SMOOTH",
"374 410 OFFCURVE",
"417 360 OFFCURVE",
"417 293 CURVE",
"429 293 LINE",
"429 397 LINE",
"423 480 OFFCURVE",
"351 541 OFFCURVE",
"267 541 CURVE SMOOTH",
"132 541 OFFCURVE",
"40 430 OFFCURVE",
"40 264 CURVE SMOOTH",
"40 98 OFFCURVE",
"132 -13 OFFCURVE",
"268 -13 CURVE SMOOTH"
);
},
{
closed = 1;
nodes = (
"557 0 LINE",
"557 720 LINE",
"417 720 LINE",
"417 0 LINE"
);
}
);
width = 622;
},
{
background = {
paths = (
{
closed = 1;
nodes = (
"376 -13 OFFCURVE",
"440 44 OFFCURVE",
"446 127 CURVE",
"444 225 LINE",
"444 156 OFFCURVE",
"403 109 OFFCURVE",
"319 109 CURVE SMOOTH",
"230 109 OFFCURVE",
"187 164 OFFCURVE",
"187 264 CURVE SMOOTH",
"187 364 OFFCURVE",
"230 419 OFFCURVE",
"319 419 CURVE SMOOTH",
"403 419 OFFCURVE",
"444 376 OFFCURVE",
"444 303 CURVE",
"448 401 LINE",
"442 484 OFFCURVE",
"378 541 OFFCURVE",
"277 541 CURVE SMOOTH",
"117 541 OFFCURVE",
"39 428 OFFCURVE",
"39 264 CURVE SMOOTH",
"39 100 OFFCURVE",
"117 -13 OFFCURVE",
"277 -13 CURVE SMOOTH"
);
},
{
closed = 1;
nodes = (
"473 91 LINE",
"473 129 LINE",
"418 129 LINE",
"418 91 LINE"
);
},
{
closed = 1;
nodes = (
"473 399 LINE",
"473 452 LINE",
"418 452 LINE",
"418 399 LINE"
);
},
{
closed = 1;
nodes = (
"584 0 LINE",
"584 710 LINE",
"444 710 LINE",
"444 122 LINE",
"461 0 LINE"
);
}
);
};
layerId = "C76CAC8E-7AD6-478C-8F7E-02FEF6F1EA84";
paths = (
{
closed = 1;
nodes = (
"376 -13 OFFCURVE",
"442 44 OFFCURVE",
"448 127 CURVE",
"444 225 LINE",
"444 156 OFFCURVE",
"403 109 OFFCURVE",
"319 109 CURVE SMOOTH",
"229 109 OFFCURVE",
"186 164 OFFCURVE",
"186 264 CURVE SMOOTH",
"186 363 OFFCURVE",
"229 418 OFFCURVE",
"319 418 CURVE SMOOTH",
"403 418 OFFCURVE",
"444 376 OFFCURVE",
"444 302 CURVE",
"448 400 LINE",
"442 484 OFFCURVE",
"376 540 OFFCURVE",
"275 540 CURVE SMOOTH",
"121 540 OFFCURVE",
"40 426 OFFCURVE",
"40 264 CURVE SMOOTH",
"40 101 OFFCURVE",
"121 -13 OFFCURVE",
"275 -13 CURVE SMOOTH"
);
},
{
closed = 1;
nodes = (
"584 0 LINE",
"584 730 LINE",
"444 730 LINE",
"444 122 LINE",
"461 0 LINE"
);
},
{
closed = 1;
nodes = (
"473 91 LINE",
"473 129 LINE",
"418 129 LINE",
"418 91 LINE"
);
},
{
closed = 1;
nodes = (
"473 399 LINE",
"473 452 LINE",
"418 452 LINE",
"418 399 LINE"
);
}
);
width = 657;
},
{
associatedMasterId = "C76CAC8E-7AD6-478C-8F7E-02FEF6F1EA84";
layerId = "0CAAC70D-8B8E-44AF-B819-FE0B2594F2C6";
name = "Bold Universal Display Aug 3 16, 18:27";
paths = (
{
closed = 1;
nodes = (
"356 -13 OFFCURVE",
"412 48 OFFCURVE",
"426 133 CURVE",
"407 223 LINE",
"407 153 OFFCURVE",
"369 113 OFFCURVE",
"297 113 CURVE SMOOTH",
"232 113 OFFCURVE",
"188 158 OFFCURVE",
"188 260 CURVE SMOOTH",
"188 356 OFFCURVE",
"234 411 OFFCURVE",
"306 411 CURVE SMOOTH",
"372 411 OFFCURVE",
"407 369 OFFCURVE",
"407 289 CURVE",
"426 379 LINE",
"414 476 OFFCURVE",
"367 537 OFFCURVE",
"268 537 CURVE SMOOTH",
"127 537 OFFCURVE",
"40 418 OFFCURVE",
"40 261 CURVE SMOOTH",
"40 91 OFFCURVE",
"125 -13 OFFCURVE",
"253 -13 CURVE SMOOTH"
);
},
{
closed = 1;
nodes = (
"547 0 LINE",
"547 720 LINE",
"407 720 LINE",
"407 0 LINE"
);
}
);
width = 612;
},
{
associatedMasterId = "C76CAC8E-7AD6-478C-8F7E-02FEF6F1EA84";
background = {
paths = (
{
closed = 1;
nodes = (
"559 0 LINE",
"559 720 LINE",
"419 720 LINE",
"419 0 LINE"
);
},
{
closed = 0;
nodes = (
"421 224 LINE",
"421 151 OFFCURVE",
"376 112 OFFCURVE",
"301 113 CURVE SMOOTH",
"227 114 OFFCURVE",
"186 167 OFFCURVE",
"186 264 CURVE SMOOTH"
);
},
{
closed = 0;
nodes = (
"38 264 LINE",
"38 110 OFFCURVE",
"121 -13 OFFCURVE",
"266 -13 CURVE SMOOTH",
"352 -13 OFFCURVE",
"425 36 OFFCURVE",
"431 119 CURVE"
);
}
);
};
layerId = "49C41623-9B8C-4B39-B80A-4A18A61F17D7";
name = "Bold Universal Display Aug 3 16, 18:44";
paths = (
{
closed = 1;
nodes = (
"351 -13 OFFCURVE",
"423 47 OFFCURVE",
"429 131 CURVE",
"429 235 LINE",
"417 235 LINE",
"417 168 OFFCURVE",
"374 118 OFFCURVE",
"308 118 CURVE SMOOTH",
"231 118 OFFCURVE",
"188 168 OFFCURVE",
"188 264 CURVE SMOOTH",
"188 360 OFFCURVE",
"231 410 OFFCURVE",
"308 410 CURVE SMOOTH",
"374 410 OFFCURVE",
"417 360 OFFCURVE",
"417 293 CURVE",
"429 293 LINE",
"429 397 LINE",
"423 480 OFFCURVE",
"351 541 OFFCURVE",
"267 541 CURVE SMOOTH",
"132 541 OFFCURVE",
"40 430 OFFCURVE",
"40 264 CURVE SMOOTH",
"40 98 OFFCURVE",
"132 -13 OFFCURVE",
"268 -13 CURVE SMOOTH"
);
},
{
closed = 1;
nodes = (
"557 0 LINE",
"557 720 LINE",
"417 720 LINE",
"417 0 LINE"
);
}
);
width = 622;
},
{
associatedMasterId = "062D78B0-B209-4D64-99AA-ACBF5D882D7F";
layerId = "56D83774-C6DD-4BB0-8291-7127C1A6DD89";
name = "Bold Universal Display Aug 3 16, 18:27";
paths = (
{
closed = 1;
nodes = (
"356 -13 OFFCURVE",
"412 48 OFFCURVE",
"426 133 CURVE",
"407 223 LINE",
"407 153 OFFCURVE",
"369 113 OFFCURVE",
"297 113 CURVE SMOOTH",
"232 113 OFFCURVE",
"188 158 OFFCURVE",
"188 260 CURVE SMOOTH",
"188 356 OFFCURVE",
"234 411 OFFCURVE",
"306 411 CURVE SMOOTH",
"372 411 OFFCURVE",
"407 369 OFFCURVE",
"407 289 CURVE",
"426 379 LINE",
"414 476 OFFCURVE",
"367 537 OFFCURVE",
"268 537 CURVE SMOOTH",
"127 537 OFFCURVE",
"40 418 OFFCURVE",
"40 261 CURVE SMOOTH",
"40 91 OFFCURVE",
"125 -13 OFFCURVE",
"253 -13 CURVE SMOOTH"
);
},
{
closed = 1;
nodes = (
"547 0 LINE",
"547 720 LINE",
"407 720 LINE",
"407 0 LINE"
);
}
);
width = 612;
},
{
associatedMasterId = "062D78B0-B209-4D64-99AA-ACBF5D882D7F";
background = {
paths = (
{
closed = 1;
nodes = (
"559 0 LINE",
"559 720 LINE",
"419 720 LINE",
"419 0 LINE"
);
},
{
closed = 0;
nodes = (
"421 224 LINE",
"421 151 OFFCURVE",
"376 112 OFFCURVE",
"301 113 CURVE SMOOTH",
"227 114 OFFCURVE",
"186 167 OFFCURVE",
"186 264 CURVE SMOOTH"
);
},
{
closed = 0;
nodes = (
"38 264 LINE",
"38 110 OFFCURVE",
"121 -13 OFFCURVE",
"266 -13 CURVE SMOOTH",
"352 -13 OFFCURVE",
"425 36 OFFCURVE",
"431 119 CURVE"
);
}
);
};
layerId = "1AD7F935-AC9F-4FBA-99AE-29AF51F4BA3B";
name = "Bold Universal Display Aug 3 16, 18:44";
paths = (
{
closed = 1;
nodes = (
"351 -13 OFFCURVE",
"423 47 OFFCURVE",
"429 131 CURVE",
"429 235 LINE",
"417 235 LINE",
"417 168 OFFCURVE",
"374 118 OFFCURVE",
"308 118 CURVE SMOOTH",
"231 118 OFFCURVE",
"188 168 OFFCURVE",
"188 264 CURVE SMOOTH",
"188 360 OFFCURVE",
"231 410 OFFCURVE",
"308 410 CURVE SMOOTH",
"374 410 OFFCURVE",
"417 360 OFFCURVE",
"417 293 CURVE",
"429 293 LINE",
"429 397 LINE",
"423 480 OFFCURVE",
"351 541 OFFCURVE",
"267 541 CURVE SMOOTH",
"132 541 OFFCURVE",
"40 430 OFFCURVE",
"40 264 CURVE SMOOTH",
"40 98 OFFCURVE",
"132 -13 OFFCURVE",
"268 -13 CURVE SMOOTH"
);
},
{
closed = 1;
nodes = (
"557 0 LINE",
"557 720 LINE",
"417 720 LINE",
"417 0 LINE"
);
}
);
width = 622;
},
{
associatedMasterId = "062D78B0-B209-4D64-99AA-ACBF5D882D7F";
layerId = "7FD27437-3839-4D45-AD3F-436A6621E7F8";
name = "Bold Universal Display Aug 3 16, 18:27";
paths = (
{
closed = 1;
nodes = (
"356 -13 OFFCURVE",
"412 48 OFFCURVE",
"426 133 CURVE",
"407 223 LINE",
"407 153 OFFCURVE",
"369 113 OFFCURVE",
"297 113 CURVE SMOOTH",
"232 113 OFFCURVE",
"188 158 OFFCURVE",
"188 260 CURVE SMOOTH",
"188 356 OFFCURVE",
"234 411 OFFCURVE",
"306 411 CURVE SMOOTH",
"372 411 OFFCURVE",
"407 369 OFFCURVE",
"407 289 CURVE",
"426 379 LINE",
"414 476 OFFCURVE",
"367 537 OFFCURVE",
"268 537 CURVE SMOOTH",
"127 537 OFFCURVE",
"40 418 OFFCURVE",
"40 261 CURVE SMOOTH",
"40 91 OFFCURVE",
"125 -13 OFFCURVE",
"253 -13 CURVE SMOOTH"
);
},
{
closed = 1;
nodes = (
"547 0 LINE",
"547 720 LINE",
"407 720 LINE",
"407 0 LINE"
);
}
);
width = 612;
},
{
associatedMasterId = "062D78B0-B209-4D64-99AA-ACBF5D882D7F";
background = {
paths = (
{
closed = 1;
nodes = (
"559 0 LINE",
"559 720 LINE",
"419 720 LINE",
"419 0 LINE"
);
},
{
closed = 0;
nodes = (
"421 224 LINE",
"421 151 OFFCURVE",
"376 112 OFFCURVE",
"301 113 CURVE SMOOTH",
"227 114 OFFCURVE",
"186 167 OFFCURVE",
"186 264 CURVE SMOOTH"
);
},
{
closed = 0;
nodes = (
"38 264 LINE",
"38 110 OFFCURVE",
"121 -13 OFFCURVE",
"266 -13 CURVE SMOOTH",
"352 -13 OFFCURVE",
"425 36 OFFCURVE",
"431 119 CURVE"
);
}
);
};
layerId = "071238B3-C364-46D5-88A9-7AE68E0DB230";
name = "Bold Universal Display Aug 3 16, 18:44";
paths = (
{
closed = 1;
nodes = (
"351 -13 OFFCURVE",
"423 47 OFFCURVE",
"429 131 CURVE",
"429 235 LINE",
"417 235 LINE",
"417 168 OFFCURVE",
"374 118 OFFCURVE",
"308 118 CURVE SMOOTH",
"231 118 OFFCURVE",
"188 168 OFFCURVE",
"188 264 CURVE SMOOTH",
"188 360 OFFCURVE",
"231 410 OFFCURVE",
"308 410 CURVE SMOOTH",
"374 410 OFFCURVE",
"417 360 OFFCURVE",
"417 293 CURVE",
"429 293 LINE",
"429 397 LINE",
"423 480 OFFCURVE",
"351 541 OFFCURVE",
"267 541 CURVE SMOOTH",
"132 541 OFFCURVE",
"40 430 OFFCURVE",
"40 264 CURVE SMOOTH",
"40 98 OFFCURVE",
"132 -13 OFFCURVE",
"268 -13 CURVE SMOOTH"
);
},
{
closed = 1;
nodes = (
"557 0 LINE",
"557 720 LINE",
"417 720 LINE",
"417 0 LINE"
);
}
);
width = 622;
}
);
leftMetricsKey = "=o";
rightMetricsKey = "=|n";
unicode = 0064;
},
{
color = 5;
glyphname = e;
lastChange = "2016-11-25 09:30:50 +0000";
layers = (
{
background = {
paths = (
{
closed = 1;
nodes = (
"439 -13 OFFCURVE",
"527 39 OFFCURVE",
"540 139 CURVE SMOOTH",
"541 147 LINE",
"401 147 LINE",
"399 141 LINE SMOOTH",
"390 113 OFFCURVE",
"359 99 OFFCURVE",
"305 99 CURVE SMOOTH",
"220 99 OFFCURVE",
"183 140 OFFCURVE",
"183 225 CURVE SMOOTH",
"183 310 LINE SMOOTH",
"183 389 OFFCURVE",
"223 430 OFFCURVE",
"301 430 CURVE SMOOTH",
"379 430 OFFCURVE",
"410 392 OFFCURVE",
"410 309 CURVE SMOOTH",
"410 287 LINE",
"425 311 LINE",
"178 311 LINE",
"178 223 LINE",
"545 223 LINE",
"545 287 LINE SMOOTH",
"545 446 OFFCURVE",
"469 540 OFFCURVE",
"300 540 CURVE SMOOTH",
"137 540 OFFCURVE",
"40 444 OFFCURVE",
"40 259 CURVE SMOOTH",
"40 94 OFFCURVE",
"119 -13 OFFCURVE",
"306 -13 CURVE SMOOTH"
);
}
);
};
guideLines = (
{
angle = 91.7357;
position = "{529, 225}";
}
);
layerId = "C76CAC8E-7AD6-478C-8F7E-02FEF6F1EA84";
paths = (
{
closed = 1;
nodes = (
"431 -13 OFFCURVE",
"513 40 OFFCURVE",
"530 136 CURVE SMOOTH",
"532 147 LINE",
"392 147 LINE",
"390 141 LINE SMOOTH",
"381 113 OFFCURVE",
"351 100 OFFCURVE",
"299 100 CURVE SMOOTH",
"218 100 OFFCURVE",
"182 141 OFFCURVE",
"182 225 CURVE SMOOTH",
"182 310 LINE SMOOTH",
"182 388 OFFCURVE",
"228 429 OFFCURVE",
"295 429 CURVE SMOOTH",
"372 429 OFFCURVE",
"399 391 OFFCURVE",
"399 309 CURVE SMOOTH",
"400 287 LINE",
"416 311 LINE",
"178 311 LINE",
"178 223 LINE",
"536 223 LINE",
"536 287 LINE SMOOTH",
"536 446 OFFCURVE",
"464 540 OFFCURVE",
"297 540 CURVE SMOOTH",
"140 540 OFFCURVE",
"40 444 OFFCURVE",
"40 259 CURVE SMOOTH",
"40 94 OFFCURVE",
"123 -13 OFFCURVE",
"300 -13 CURVE SMOOTH"
);
}
);
width = 581;
},
{
associatedMasterId = "C76CAC8E-7AD6-478C-8F7E-02FEF6F1EA84";
background = {
paths = (
{
closed = 1;
nodes = (
"439 -13 OFFCURVE",
"527 39 OFFCURVE",
"540 139 CURVE SMOOTH",
"541 147 LINE",
"401 147 LINE",
"399 141 LINE SMOOTH",
"390 113 OFFCURVE",
"359 99 OFFCURVE",
"305 99 CURVE SMOOTH",
"220 99 OFFCURVE",
"183 140 OFFCURVE",
"183 225 CURVE SMOOTH",
"183 310 LINE SMOOTH",
"183 389 OFFCURVE",
"223 430 OFFCURVE",
"301 430 CURVE SMOOTH",
"379 430 OFFCURVE",
"410 392 OFFCURVE",
"410 309 CURVE SMOOTH",
"410 287 LINE",
"425 311 LINE",
"178 311 LINE",
"178 223 LINE",
"545 223 LINE",
"545 287 LINE SMOOTH",
"545 446 OFFCURVE",
"469 540 OFFCURVE",
"300 540 CURVE SMOOTH",
"137 540 OFFCURVE",
"40 444 OFFCURVE",
"40 259 CURVE SMOOTH",
"40 94 OFFCURVE",
"119 -13 OFFCURVE",
"306 -13 CURVE SMOOTH"
);
}
);
};
guideLines = (
{
angle = 91.7357;
position = "{529, 225}";
}
);
layerId = "FABCE2CF-5EC0-4D66-8A96-758AEA6AA117";
name = "Text Autospaced Nov 11 16, 12:43";
paths = (
{
closed = 1;
nodes = (
"439 -13 OFFCURVE",
"527 39 OFFCURVE",
"540 139 CURVE SMOOTH",
"541 147 LINE",
"401 147 LINE",
"399 141 LINE SMOOTH",
"390 113 OFFCURVE",
"359 99 OFFCURVE",
"305 99 CURVE SMOOTH",
"220 99 OFFCURVE",
"183 140 OFFCURVE",
"183 225 CURVE SMOOTH",
"183 310 LINE SMOOTH",
"183 389 OFFCURVE",
"223 430 OFFCURVE",
"301 430 CURVE SMOOTH",
"379 430 OFFCURVE",
"410 392 OFFCURVE",
"410 309 CURVE SMOOTH",
"410 287 LINE",
"425 311 LINE",
"178 311 LINE",
"178 223 LINE",
"545 223 LINE",
"545 287 LINE SMOOTH",
"545 446 OFFCURVE",
"469 540 OFFCURVE",
"300 540 CURVE SMOOTH",
"137 540 OFFCURVE",
"40 444 OFFCURVE",
"40 259 CURVE SMOOTH",
"40 94 OFFCURVE",
"119 -13 OFFCURVE",
"306 -13 CURVE SMOOTH"
);
}
);
width = 590;
},
{
associatedMasterId = "062D78B0-B209-4D64-99AA-ACBF5D882D7F";
background = {
paths = (
{
closed = 1;
nodes = (
"439 -13 OFFCURVE",
"527 39 OFFCURVE",
"540 139 CURVE SMOOTH",
"541 147 LINE",
"401 147 LINE",
"399 141 LINE SMOOTH",
"390 113 OFFCURVE",
"359 99 OFFCURVE",
"305 99 CURVE SMOOTH",
"220 99 OFFCURVE",
"183 140 OFFCURVE",
"183 225 CURVE SMOOTH",
"183 310 LINE SMOOTH",
"183 389 OFFCURVE",
"223 430 OFFCURVE",
"301 430 CURVE SMOOTH",
"379 430 OFFCURVE",
"410 392 OFFCURVE",
"410 309 CURVE SMOOTH",
"410 287 LINE",
"425 311 LINE",
"178 311 LINE",
"178 223 LINE",
"545 223 LINE",
"545 287 LINE SMOOTH",
"545 446 OFFCURVE",
"469 540 OFFCURVE",
"300 540 CURVE SMOOTH",
"137 540 OFFCURVE",
"40 444 OFFCURVE",
"40 259 CURVE SMOOTH",
"40 94 OFFCURVE",
"119 -13 OFFCURVE",
"306 -13 CURVE SMOOTH"
);
}
);
};
guideLines = (
{
angle = 91.7357;
position = "{529, 225}";
}
);
layerId = "62808AA6-BA43-407D-B2FB-C8300714CF60";
name = "Text Autospaced Nov 11 16, 12:43";
paths = (
{
closed = 1;
nodes = (
"439 -13 OFFCURVE",
"527 39 OFFCURVE",
"540 139 CURVE SMOOTH",
"541 147 LINE",
"401 147 LINE",
"399 141 LINE SMOOTH",
"390 113 OFFCURVE",
"359 99 OFFCURVE",
"305 99 CURVE SMOOTH",
"220 99 OFFCURVE",
"183 140 OFFCURVE",
"183 225 CURVE SMOOTH",
"183 310 LINE SMOOTH",
"183 389 OFFCURVE",
"223 430 OFFCURVE",
"301 430 CURVE SMOOTH",
"379 430 OFFCURVE",
"410 392 OFFCURVE",
"410 309 CURVE SMOOTH",
"410 287 LINE",
"425 311 LINE",
"178 311 LINE",
"178 223 LINE",
"545 223 LINE",
"545 287 LINE SMOOTH",
"545 446 OFFCURVE",
"469 540 OFFCURVE",
"300 540 CURVE SMOOTH",
"137 540 OFFCURVE",
"40 444 OFFCURVE",
"40 259 CURVE SMOOTH",
"40 94 OFFCURVE",
"119 -13 OFFCURVE",
"306 -13 CURVE SMOOTH"
);
}
);
width = 590;
}
);
leftMetricsKey = "=o";
unicode = 0065;
},
{
color = 5;
glyphname = f;
lastChange = "2016-11-25 09:30:50 +0000";
layers = (
{
layerId = "C76CAC8E-7AD6-478C-8F7E-02FEF6F1EA84";
paths = (
{
closed = 1;
nodes = (
"391 410 LINE",
"391 525 LINE",
"25 525 LINE",
"25 410 LINE"
);
},
{
closed = 1;
nodes = (
"372 745 OFFCURVE",
"338 748 OFFCURVE",
"307 748 CURVE SMOOTH",
"182 748 OFFCURVE",
"123 692 OFFCURVE",
"123 572 CURVE SMOOTH",
"123 0 LINE",
"263 0 LINE",
"263 549 LINE SMOOTH",
"263 606 OFFCURVE",
"288 625 OFFCURVE",
"338 625 CURVE SMOOTH",
"358 625 OFFCURVE",
"381 623 OFFCURVE",
"391 621 CURVE",
"391 740 LINE"
);
}
);
width = 431;
}
);
unicode = 0066;
},
{
color = 5;
glyphname = g;
lastChange = "2016-11-25 09:30:50 +0000";
layers = (
{
background = {
paths = (
{
closed = 1;
nodes = (
"372 7 OFFCURVE",
"436 64 OFFCURVE",
"442 147 CURVE",
"438 245 LINE",
"438 179 OFFCURVE",
"398 129 OFFCURVE",
"317 129 CURVE SMOOTH",
"228 129 OFFCURVE",
"186 179 OFFCURVE",
"186 274 CURVE SMOOTH",
"186 367 OFFCURVE",
"228 418 OFFCURVE",
"317 418 CURVE SMOOTH",
"395 418 OFFCURVE",
"438 376 OFFCURVE",
"438 302 CURVE",
"442 400 LINE",
"436 485 OFFCURVE",
"370 540 OFFCURVE",
"272 540 CURVE SMOOTH",
"124 540 OFFCURVE",
"40 431 OFFCURVE",
"40 274 CURVE SMOOTH",
"40 117 OFFCURVE",
"120 7 OFFCURVE",
"273 7 CURVE SMOOTH"
);
},
{
closed = 1;
nodes = (
"467 95 LINE",
"467 133 LINE",
"412 133 LINE",
"412 95 LINE"
);
},
{
closed = 1;
nodes = (
"467 399 LINE",
"467 452 LINE",
"412 452 LINE",
"412 399 LINE"
);
},
{
closed = 1;
nodes = (
"438 -66 OFFCURVE",
"393 -104 OFFCURVE",
"305 -104 CURVE SMOOTH",
"248 -104 OFFCURVE",
"218 -90 OFFCURVE",
"209 -59 CURVE SMOOTH",
"207 -52 LINE",
"69 -52 LINE",
"72 -69 LINE SMOOTH",
"89 -167 OFFCURVE",
"178 -214 OFFCURVE",
"309 -214 CURVE SMOOTH",
"473 -214 OFFCURVE",
"578 -126 OFFCURVE",
"578 13 CURVE SMOOTH",
"578 525 LINE",
"438 525 LINE",
"438 9 LINE SMOOTH"
);
}
);
};
guideLines = (
{
angle = 270;
position = "{37, 54}";
}
);
layerId = "C76CAC8E-7AD6-478C-8F7E-02FEF6F1EA84";
paths = (
{
closed = 1;
nodes = (
"372 13 OFFCURVE",
"436 70 OFFCURVE",
"442 153 CURVE",
"438 251 LINE",
"438 185 OFFCURVE",
"398 135 OFFCURVE",
"317 135 CURVE SMOOTH",
"228 135 OFFCURVE",
"186 184 OFFCURVE",
"186 277 CURVE SMOOTH",
"186 368 OFFCURVE",
"228 418 OFFCURVE",
"317 418 CURVE SMOOTH",
"395 418 OFFCURVE",
"438 376 OFFCURVE",
"438 302 CURVE",
"442 400 LINE",
"436 485 OFFCURVE",
"370 540 OFFCURVE",
"272 540 CURVE SMOOTH",
"124 540 OFFCURVE",
"40 432 OFFCURVE",
"40 277 CURVE SMOOTH",
"40 122 OFFCURVE",
"120 13 OFFCURVE",
"273 13 CURVE SMOOTH"
);
},
{
closed = 1;
nodes = (
"467 101 LINE",
"467 139 LINE",
"412 139 LINE",
"412 101 LINE"
);
},
{
closed = 1;
nodes = (
"467 399 LINE",
"467 452 LINE",
"412 452 LINE",
"412 399 LINE"
);
},
{
closed = 1;
nodes = (
"438 -60 OFFCURVE",
"393 -98 OFFCURVE",
"305 -98 CURVE SMOOTH",
"248 -98 OFFCURVE",
"218 -84 OFFCURVE",
"209 -53 CURVE SMOOTH",
"207 -46 LINE",
"69 -46 LINE",
"72 -63 LINE SMOOTH",
"89 -161 OFFCURVE",
"178 -208 OFFCURVE",
"309 -208 CURVE SMOOTH",
"473 -208 OFFCURVE",
"578 -120 OFFCURVE",
"578 19 CURVE SMOOTH",
"578 525 LINE",
"438 525 LINE",
"438 15 LINE SMOOTH"
);
}
);
width = 651;
}
);
leftMetricsKey = "=o";
rightMetricsKey = "=|n";
unicode = 0067;
},
{
color = 4;
glyphname = h;
lastChange = "2016-11-25 09:30:50 +0000";
layers = (
{
background = {
paths = (
{
closed = 1;
nodes = (
"527 0 LINE",
"527 370 LINE SMOOTH",
"527 471 OFFCURVE",
"463 540 OFFCURVE",
"366 540 CURVE SMOOTH",
"272 540 OFFCURVE",
"210 482 OFFCURVE",
"192 380 CURVE",
"206 314 LINE",
"206 369 OFFCURVE",
"246 408 OFFCURVE",
"305 408 CURVE SMOOTH",
"358 408 OFFCURVE",
"387 375 OFFCURVE",
"387 320 CURVE SMOOTH",
"387 0 LINE"
);
},
{
closed = 1;
nodes = (
"206 0 LINE",
"206 720 LINE",
"66 720 LINE",
"66 0 LINE"
);
}
);
};
layerId = "C76CAC8E-7AD6-478C-8F7E-02FEF6F1EA84";
paths = (
{
closed = 1;
nodes = (
"213 0 LINE",
"213 316 LINE SMOOTH",
"213 373 OFFCURVE",
"250 413 OFFCURVE",
"333 413 CURVE SMOOTH",
"404 413 OFFCURVE",
"430 379 OFFCURVE",
"430 322 CURVE SMOOTH",
"430 0 LINE",
"570 0 LINE",
"570 370 LINE SMOOTH",
"570 471 OFFCURVE",
"509 540 OFFCURVE",
"397 540 CURVE SMOOTH",
"302 540 OFFCURVE",
"244 495 OFFCURVE",
"217 423 CURVE",
"234 436 LINE",
"199 436 LINE",
"214 426 LINE",
"214 730 LINE",
"73 730 LINE",
"73 0 LINE"
);
}
);
width = 635;
}
);
leftMetricsKey = "=n";
rightMetricsKey = "=n";
unicode = 0068;
},
{
color = 4;
glyphname = i;
lastChange = "2016-11-25 09:30:50 +0000";
layers = (
{
background = {
paths = (
{
closed = 1;
nodes = (
"213 0 LINE",
"213 525 LINE",
"73 525 LINE",
"73 0 LINE"
);
},
{
closed = 1;
nodes = (
"204 588 OFFCURVE",
"228 622 OFFCURVE",
"228 667 CURVE SMOOTH",
"228 723 OFFCURVE",
"194 746 OFFCURVE",
"143 746 CURVE SMOOTH",
"82 746 OFFCURVE",
"58 712 OFFCURVE",
"58 667 CURVE SMOOTH",
"58 611 OFFCURVE",
"92 588 OFFCURVE",
"143 588 CURVE SMOOTH"
);
}
);
};
layerId = "C76CAC8E-7AD6-478C-8F7E-02FEF6F1EA84";
paths = (
{
closed = 1;
nodes = (
"213 0 LINE",
"213 525 LINE",
"73 525 LINE",
"73 0 LINE"
);
},
{
closed = 1;
nodes = (
"194 588 OFFCURVE",
"228 610 OFFCURVE",
"228 664 CURVE SMOOTH",
"228 718 OFFCURVE",
"194 740 OFFCURVE",
"143 740 CURVE SMOOTH",
"92 740 OFFCURVE",
"58 718 OFFCURVE",
"58 664 CURVE SMOOTH",
"58 610 OFFCURVE",
"92 588 OFFCURVE",
"143 588 CURVE SMOOTH"
);
}
);
width = 286;
}
);
unicode = 0069;
},
{
color = 5;
glyphname = j;
lastChange = "2016-11-25 09:30:50 +0000";
layers = (
{
background = {
paths = (
{
closed = 1;
nodes = (
"-30 -176 LINE",
"-8 -183 OFFCURVE",
"27 -189 OFFCURVE",
"56 -189 CURVE SMOOTH",
"154 -189 OFFCURVE",
"213 -133 OFFCURVE",
"213 -13 CURVE SMOOTH",
"213 525 LINE",
"73 525 LINE",
"73 -8 LINE SMOOTH",
"73 -56 OFFCURVE",
"53 -68 OFFCURVE",
"22 -68 CURVE SMOOTH",
"10 -68 OFFCURVE",
"-4 -66 OFFCURVE",
"-15 -63 CURVE"
);
},
{
closed = 1;
nodes = (
"92 588 OFFCURVE",
"58 610 OFFCURVE",
"58 664 CURVE SMOOTH",
"58 718 OFFCURVE",
"92 740 OFFCURVE",
"143 740 CURVE SMOOTH",
"194 740 OFFCURVE",
"228 718 OFFCURVE",
"228 664 CURVE SMOOTH",
"228 610 OFFCURVE",
"194 588 OFFCURVE",
"143 588 CURVE SMOOTH"
);
}
);
};
layerId = "C76CAC8E-7AD6-478C-8F7E-02FEF6F1EA84";
paths = (
{
closed = 1;
nodes = (
"-29 -180 LINE",
"-16 -185 OFFCURVE",
"12 -189 OFFCURVE",
"38 -189 CURVE SMOOTH",
"154 -189 OFFCURVE",
"213 -133 OFFCURVE",
"213 -13 CURVE SMOOTH",
"213 525 LINE",
"73 525 LINE",
"73 5 LINE SMOOTH",
"73 -42 OFFCURVE",
"52 -66 OFFCURVE",
"6 -66 CURVE SMOOTH",
"-7 -66 OFFCURVE",
"-17 -65 OFFCURVE",
"-29 -63 CURVE"
);
},
{
closed = 1;
nodes = (
"92 588 OFFCURVE",
"58 610 OFFCURVE",
"58 664 CURVE SMOOTH",
"58 718 OFFCURVE",
"92 740 OFFCURVE",
"143 740 CURVE SMOOTH",
"194 740 OFFCURVE",
"228 718 OFFCURVE",
"228 664 CURVE SMOOTH",
"228 610 OFFCURVE",
"194 588 OFFCURVE",
"143 588 CURVE SMOOTH"
);
}
);
width = 286;
}
);
unicode = 006A;
},
{
color = 4;
glyphname = k;
lastChange = "2016-11-25 09:30:50 +0000";
layers = (
{
background = {
paths = (
{
closed = 1;
nodes = (
"324 280 LINE",
"348 278 LINE",
"582 525 LINE",
"409 525 LINE",
"194 298 LINE",
"193 146 LINE"
);
},
{
closed = 1;
nodes = (
"213 0 LINE",
"213 740 LINE",
"73 740 LINE",
"73 0 LINE"
);
},
{
closed = 1;
nodes = (
"597 0 LINE",
"361 329 LINE",
"245 263 LINE",
"431 0 LINE"
);
}
);
};
guideLines = (
{
angle = -43.8442;
position = "{292, 457}";
showMeasurement = 1;
},
{
angle = 46.5765;
position = "{324, 273}";
},
{
angle = 35.2345;
position = "{360, 41}";
showMeasurement = 1;
},
{
angle = 124.9569;
position = "{392, 0}";
}
);
layerId = "C76CAC8E-7AD6-478C-8F7E-02FEF6F1EA84";
paths = (
{
closed = 1;
nodes = (
"326 281 LINE",
"350 278 LINE",
"584 525 LINE",
"411 525 LINE",
"196 298 LINE",
"195 149 LINE"
);
},
{
closed = 1;
nodes = (
"213 0 LINE",
"213 730 LINE",
"73 730 LINE",
"73 0 LINE"
);
},
{
closed = 1;
nodes = (
"599 0 LINE",
"363 329 LINE",
"247 263 LINE",
"433 0 LINE"
);
},
{
closed = 1;
nodes = (
"235 241 LINE",
"235 321 LINE",
"172 321 LINE",
"172 241 LINE"
);
}
);
width = 613;
},
{
associatedMasterId = "C76CAC8E-7AD6-478C-8F7E-02FEF6F1EA84";
background = {
paths = (
{
closed = 1;
nodes = (
"205 0 LINE",
"205 272 LINE",
"187 272 LINE",
"404 0 LINE",
"587 0 LINE",
"351 282 LINE",
"351 269 LINE",
"571 525 LINE",
"391 525 LINE",
"187 276 LINE",
"205 276 LINE",
"205 720 LINE",
"65 720 LINE",
"65 0 LINE"
);
}
);
};
layerId = "E86AA8EF-C19D-4038-BC4B-935301E70026";
name = "Text Autospaced Nov 11 16, 13:48";
paths = (
{
closed = 1;
nodes = (
"205 0 LINE",
"205 272 LINE",
"187 272 LINE",
"404 0 LINE",
"587 0 LINE",
"351 282 LINE",
"351 269 LINE",
"571 525 LINE",
"391 525 LINE",
"187 276 LINE",
"205 276 LINE",
"205 720 LINE",
"65 720 LINE",
"65 0 LINE"
);
}
);
width = 592;
},
{
associatedMasterId = "062D78B0-B209-4D64-99AA-ACBF5D882D7F";
background = {
paths = (
{
closed = 1;
nodes = (
"205 0 LINE",
"205 272 LINE",
"187 272 LINE",
"404 0 LINE",
"587 0 LINE",
"351 282 LINE",
"351 269 LINE",
"571 525 LINE",
"391 525 LINE",
"187 276 LINE",
"205 276 LINE",
"205 720 LINE",
"65 720 LINE",
"65 0 LINE"
);
}
);
};
layerId = "14B729B7-F441-4874-98D0-97CC3157FEC4";
name = "Text Autospaced Nov 11 16, 13:48";
paths = (
{
closed = 1;
nodes = (
"205 0 LINE",
"205 272 LINE",
"187 272 LINE",
"404 0 LINE",
"587 0 LINE",
"351 282 LINE",
"351 269 LINE",
"571 525 LINE",
"391 525 LINE",
"187 276 LINE",
"205 276 LINE",
"205 720 LINE",
"65 720 LINE",
"65 0 LINE"
);
}
);
width = 592;
}
);
leftMetricsKey = "=n";
unicode = 006B;
},
{
color = 4;
glyphname = l;
lastChange = "2016-11-25 09:30:50 +0000";
layers = (
{
background = {
paths = (
{
closed = 1;
nodes = (
"112 0 LINE",
"112 730 LINE",
"94 730 LINE",
"94 0 LINE"
);
}
);
};
layerId = "C76CAC8E-7AD6-478C-8F7E-02FEF6F1EA84";
paths = (
{
closed = 1;
nodes = (
"213 0 LINE",
"213 730 LINE",
"73 730 LINE",
"73 0 LINE"
);
}
);
width = 286;
}
);
leftMetricsKey = "=n";
rightMetricsKey = "=|n";
unicode = 006C;
},
{
color = 4;
glyphname = m;
lastChange = "2016-11-25 09:30:50 +0000";
layers = (
{
background = {
paths = (
{
closed = 1;
nodes = (
"233 408 LINE",
"197 408 LINE",
"197 436 LINE",
"233 436 LINE"
);
},
{
closed = 1;
nodes = (
"243 499 OFFCURVE",
"301 540 OFFCURVE",
"392 540 CURVE SMOOTH",
"501 540 OFFCURVE",
"560 471 OFFCURVE",
"560 370 CURVE SMOOTH",
"560 0 LINE",
"420 0 LINE",
"420 322 LINE SMOOTH",
"420 379 OFFCURVE",
"395 413 OFFCURVE",
"327 413 CURVE SMOOTH",
"254 413 OFFCURVE",
"213 373 OFFCURVE",
"213 308 CURVE",
"213 0 LINE",
"73 0 LINE",
"73 525 LINE",
"196 525 LINE",
"215 418 LINE"
);
},
{
closed = 0;
nodes = (
"562 418 LINE",
"590 499 OFFCURVE",
"648 540 OFFCURVE",
"739 540 CURVE SMOOTH",
"848 540 OFFCURVE",
"907 471 OFFCURVE",
"907 370 CURVE SMOOTH",
"907 0 LINE",
"767 0 LINE",
"767 322 LINE SMOOTH",
"767 379 OFFCURVE",
"742 413 OFFCURVE",
"674 413 CURVE SMOOTH",
"601 413 OFFCURVE",
"560 373 OFFCURVE",
"560 308 CURVE"
);
}
);
};
layerId = "C76CAC8E-7AD6-478C-8F7E-02FEF6F1EA84";
paths = (
{
closed = 1;
nodes = (
"197 436 LINE",
"197 408 LINE",
"233 408 LINE",
"233 436 LINE"
);
},
{
closed = 1;
nodes = (
"533 429 LINE",
"533 401 LINE",
"569 401 LINE",
"569 429 LINE"
);
},
{
closed = 1;
nodes = (
"645 540 OFFCURVE",
"584 502 OFFCURVE",
"551 414 CURVE",
"537 491 OFFCURVE",
"481 540 OFFCURVE",
"390 540 CURVE SMOOTH",
"299 540 OFFCURVE",
"243 499 OFFCURVE",
"215 418 CURVE",
"196 525 LINE",
"73 525 LINE",
"73 0 LINE",
"213 0 LINE",
"213 308 LINE SMOOTH",
"213 373 OFFCURVE",
"252 413 OFFCURVE",
"325 413 CURVE SMOOTH",
"392 413 OFFCURVE",
"416 379 OFFCURVE",
"416 322 CURVE SMOOTH",
"416 0 LINE",
"556 0 LINE",
"556 308 LINE SMOOTH",
"556 373 OFFCURVE",
"595 413 OFFCURVE",
"668 413 CURVE SMOOTH",
"735 413 OFFCURVE",
"759 379 OFFCURVE",
"759 322 CURVE SMOOTH",
"759 0 LINE",
"899 0 LINE",
"899 370 LINE SMOOTH",
"899 471 OFFCURVE",
"841 540 OFFCURVE",
"733 540 CURVE SMOOTH"
);
}
);
width = 964;
}
);
leftMetricsKey = "=n";
rightMetricsKey = "=n";
unicode = 006D;
},
{
color = 4;
glyphname = n;
lastChange = "2016-11-25 09:30:50 +0000";
layers = (
{
associatedMasterId = "2F6174A6-5E34-4AB0-BBF3-B5DC3B823A34";
background = {
paths = (
{
closed = 1;
nodes = (
"516 0 LINE",
"516 370 LINE SMOOTH",
"516 468 OFFCURVE",
"450 540 OFFCURVE",
"359 540 CURVE SMOOTH",
"269 540 OFFCURVE",
"202 498 OFFCURVE",
"181 380 CURVE",
"195 343 LINE",
"217 386 OFFCURVE",
"254 408 OFFCURVE",
"304 408 CURVE SMOOTH",
"350 408 OFFCURVE",
"376 377 OFFCURVE",
"376 325 CURVE SMOOTH",
"376 0 LINE"
);
},
{
closed = 1;
nodes = (
"195 0 LINE",
"195 525 LINE",
"55 525 LINE",
"55 0 LINE"
);
}
);
};
layerId = "72194126-8E3B-41E8-8BB7-F9C4AD8F3656";
name = "Bold Universal Display Jul 22 16, 07:20";
paths = (
{
closed = 1;
nodes = (
"516 0 LINE",
"516 370 LINE SMOOTH",
"516 468 OFFCURVE",
"450 540 OFFCURVE",
"359 540 CURVE SMOOTH",
"269 540 OFFCURVE",
"202 498 OFFCURVE",
"181 380 CURVE",
"195 343 LINE",
"217 386 OFFCURVE",
"254 408 OFFCURVE",
"304 408 CURVE SMOOTH",
"350 408 OFFCURVE",
"376 377 OFFCURVE",
"376 325 CURVE SMOOTH",
"376 0 LINE"
);
},
{
closed = 1;
nodes = (
"195 0 LINE",
"195 525 LINE",
"55 525 LINE",
"55 0 LINE"
);
}
);
width = 561;
},
{
associatedMasterId = "C76CAC8E-7AD6-478C-8F7E-02FEF6F1EA84";
background = {
paths = (
{
closed = 1;
nodes = (
"516 0 LINE",
"516 370 LINE SMOOTH",
"516 468 OFFCURVE",
"450 540 OFFCURVE",
"359 540 CURVE SMOOTH",
"269 540 OFFCURVE",
"202 498 OFFCURVE",
"181 380 CURVE",
"195 343 LINE",
"217 386 OFFCURVE",
"254 408 OFFCURVE",
"304 408 CURVE SMOOTH",
"350 408 OFFCURVE",
"376 377 OFFCURVE",
"376 325 CURVE SMOOTH",
"376 0 LINE"
);
},
{
closed = 1;
nodes = (
"195 0 LINE",
"195 525 LINE",
"55 525 LINE",
"55 0 LINE"
);
}
);
};
layerId = "D2DDCADB-E372-4916-85A6-C9C85AAB5092";
name = "Bold Universal Display Jul 22 16, 07:20";
paths = (
{
closed = 1;
nodes = (
"516 0 LINE",
"516 370 LINE SMOOTH",
"516 468 OFFCURVE",
"450 540 OFFCURVE",
"359 540 CURVE SMOOTH",
"269 540 OFFCURVE",
"202 498 OFFCURVE",
"181 380 CURVE",
"195 343 LINE",
"217 386 OFFCURVE",
"254 408 OFFCURVE",
"304 408 CURVE SMOOTH",
"350 408 OFFCURVE",
"376 377 OFFCURVE",
"376 325 CURVE SMOOTH",
"376 0 LINE"
);
},
{
closed = 1;
nodes = (
"195 0 LINE",
"195 525 LINE",
"55 525 LINE",
"55 0 LINE"
);
}
);
width = 561;
},
{
background = {
paths = (
{
closed = 1;
nodes = (
"213 0 LINE",
"213 316 LINE SMOOTH",
"213 373 OFFCURVE",
"250 413 OFFCURVE",
"333 413 CURVE SMOOTH",
"404 413 OFFCURVE",
"430 379 OFFCURVE",
"430 322 CURVE SMOOTH",
"430 0 LINE",
"570 0 LINE",
"570 370 LINE SMOOTH",
"570 471 OFFCURVE",
"509 540 OFFCURVE",
"397 540 CURVE SMOOTH",
"302 540 OFFCURVE",
"244 495 OFFCURVE",
"217 423 CURVE",
"234 436 LINE",
"199 436 LINE",
"214 426 LINE",
"196 525 LINE",
"73 525 LINE",
"73 0 LINE"
);
}
);
};
layerId = "C76CAC8E-7AD6-478C-8F7E-02FEF6F1EA84";
paths = (
{
closed = 1;
nodes = (
"213 0 LINE",
"213 308 LINE SMOOTH",
"213 373 OFFCURVE",
"259 413 OFFCURVE",
"332 413 CURVE SMOOTH",
"404 413 OFFCURVE",
"430 379 OFFCURVE",
"430 322 CURVE SMOOTH",
"430 0 LINE",
"570 0 LINE",
"570 370 LINE SMOOTH",
"570 471 OFFCURVE",
"509 540 OFFCURVE",
"397 540 CURVE SMOOTH",
"302 540 OFFCURVE",
"244 495 OFFCURVE",
"217 423 CURVE",
"234 436 LINE",
"199 436 LINE",
"214 426 LINE",
"196 525 LINE",
"73 525 LINE",
"73 0 LINE"
);
}
);
width = 635;
},
{
associatedMasterId = "062D78B0-B209-4D64-99AA-ACBF5D882D7F";
background = {
paths = (
{
closed = 1;
nodes = (
"516 0 LINE",
"516 370 LINE SMOOTH",
"516 468 OFFCURVE",
"450 540 OFFCURVE",
"359 540 CURVE SMOOTH",
"269 540 OFFCURVE",
"202 498 OFFCURVE",
"181 380 CURVE",
"195 343 LINE",
"217 386 OFFCURVE",
"254 408 OFFCURVE",
"304 408 CURVE SMOOTH",
"350 408 OFFCURVE",
"376 377 OFFCURVE",
"376 325 CURVE SMOOTH",
"376 0 LINE"
);
},
{
closed = 1;
nodes = (
"195 0 LINE",
"195 525 LINE",
"55 525 LINE",
"55 0 LINE"
);
}
);
};
layerId = "E975623B-912B-4AA9-B0A8-94C2CBE145D8";
name = "Bold Universal Display Jul 22 16, 07:20";
paths = (
{
closed = 1;
nodes = (
"516 0 LINE",
"516 370 LINE SMOOTH",
"516 468 OFFCURVE",
"450 540 OFFCURVE",
"359 540 CURVE SMOOTH",
"269 540 OFFCURVE",
"202 498 OFFCURVE",
"181 380 CURVE",
"195 343 LINE",
"217 386 OFFCURVE",
"254 408 OFFCURVE",
"304 408 CURVE SMOOTH",
"350 408 OFFCURVE",
"376 377 OFFCURVE",
"376 325 CURVE SMOOTH",
"376 0 LINE"
);
},
{
closed = 1;
nodes = (
"195 0 LINE",
"195 525 LINE",
"55 525 LINE",
"55 0 LINE"
);
}
);
width = 561;
}
);
unicode = 006E;
},
{
color = 4;
glyphname = o;
lastChange = "2016-11-25 09:30:50 +0000";
layers = (
{
associatedMasterId = "2F6174A6-5E34-4AB0-BBF3-B5DC3B823A34";
background = {
paths = (
{
closed = 1;
nodes = (
"449 -15 OFFCURVE",
"552 92 OFFCURVE",
"552 263 CURVE SMOOTH",
"552 433 OFFCURVE",
"449 540 OFFCURVE",
"296 540 CURVE SMOOTH",
"143 540 OFFCURVE",
"40 433 OFFCURVE",
"40 263 CURVE SMOOTH",
"40 92 OFFCURVE",
"143 -15 OFFCURVE",
"296 -15 CURVE SMOOTH"
);
},
{
closed = 1;
nodes = (
"226 109 OFFCURVE",
"188 164 OFFCURVE",
"188 263 CURVE SMOOTH",
"188 361 OFFCURVE",
"226 416 OFFCURVE",
"296 416 CURVE SMOOTH",
"366 416 OFFCURVE",
"404 361 OFFCURVE",
"404 263 CURVE SMOOTH",
"404 164 OFFCURVE",
"366 109 OFFCURVE",
"296 109 CURVE SMOOTH"
);
}
);
};
guideLines = (
{
angle = 270;
position = "{296, 369}";
},
{
position = "{310, 384}";
}
);
layerId = "D0FBFECC-3F28-459B-9EA9-B7ADB2EA49E2";
name = "Bold Universal Display Aug 3 16, 17:58";
paths = (
{
closed = 1;
nodes = (
"467 -13 OFFCURVE",
"554 110 OFFCURVE",
"554 263 CURVE SMOOTH",
"554 417 OFFCURVE",
"467 540 OFFCURVE",
"296 540 CURVE SMOOTH",
"125 540 OFFCURVE",
"38 417 OFFCURVE",
"38 263 CURVE SMOOTH",
"38 110 OFFCURVE",
"125 -13 OFFCURVE",
"296 -13 CURVE SMOOTH"
);
},
{
closed = 1;
nodes = (
"225 111 OFFCURVE",
"186 162 OFFCURVE",
"186 263 CURVE SMOOTH",
"186 365 OFFCURVE",
"225 416 OFFCURVE",
"296 416 CURVE SMOOTH",
"367 416 OFFCURVE",
"406 365 OFFCURVE",
"406 263 CURVE SMOOTH",
"406 162 OFFCURVE",
"367 111 OFFCURVE",
"296 111 CURVE SMOOTH"
);
}
);
width = 592;
},
{
associatedMasterId = "2F6174A6-5E34-4AB0-BBF3-B5DC3B823A34";
background = {
paths = (
{
closed = 1;
nodes = (
"449 -15 OFFCURVE",
"552 92 OFFCURVE",
"552 263 CURVE SMOOTH",
"552 433 OFFCURVE",
"449 540 OFFCURVE",
"296 540 CURVE SMOOTH",
"143 540 OFFCURVE",
"40 433 OFFCURVE",
"40 263 CURVE SMOOTH",
"40 92 OFFCURVE",
"143 -15 OFFCURVE",
"296 -15 CURVE SMOOTH"
);
},
{
closed = 1;
nodes = (
"231 109 OFFCURVE",
"188 161 OFFCURVE",
"188 263 CURVE SMOOTH",
"188 367 OFFCURVE",
"231 416 OFFCURVE",
"296 416 CURVE SMOOTH",
"361 416 OFFCURVE",
"404 367 OFFCURVE",
"404 263 CURVE SMOOTH",
"404 161 OFFCURVE",
"361 109 OFFCURVE",
"296 109 CURVE SMOOTH"
);
}
);
};
guideLines = (
{
angle = 270;
position = "{296, 369}";
},
{
position = "{310, 384}";
}
);
layerId = "59E4D00D-DAAE-4BE1-B3DD-A43186AA9DD5";
name = "Bold Universal Display Aug 3 16, 17:48 Aug 3 16, 18:04";
paths = (
{
closed = 1;
nodes = (
"449 -15 OFFCURVE",
"552 92 OFFCURVE",
"552 263 CURVE SMOOTH",
"552 433 OFFCURVE",
"449 540 OFFCURVE",
"296 540 CURVE SMOOTH",
"143 540 OFFCURVE",
"40 433 OFFCURVE",
"40 263 CURVE SMOOTH",
"40 92 OFFCURVE",
"143 -15 OFFCURVE",
"296 -15 CURVE SMOOTH"
);
},
{
closed = 1;
nodes = (
"226 109 OFFCURVE",
"188 164 OFFCURVE",
"188 263 CURVE SMOOTH",
"188 361 OFFCURVE",
"226 416 OFFCURVE",
"296 416 CURVE SMOOTH",
"366 416 OFFCURVE",
"404 361 OFFCURVE",
"404 263 CURVE SMOOTH",
"404 164 OFFCURVE",
"366 109 OFFCURVE",
"296 109 CURVE SMOOTH"
);
}
);
width = 592;
},
{
associatedMasterId = "2F6174A6-5E34-4AB0-BBF3-B5DC3B823A34";
background = {
paths = (
{
closed = 0;
nodes = (
"188 263 LINE",
"188 361 OFFCURVE",
"224 416 OFFCURVE",
"297 416 CURVE SMOOTH",
"370 416 OFFCURVE",
"406 361 OFFCURVE",
"406 263 CURVE"
);
},
{
closed = 0;
nodes = (
"40 263 LINE SMOOTH",
"40 433 OFFCURVE",
"141 540 OFFCURVE",
"297 540 CURVE SMOOTH",
"453 540 OFFCURVE",
"554 433 OFFCURVE",
"554 263 CURVE SMOOTH"
);
}
);
};
guideLines = (
{
angle = 270;
position = "{297, 369}";
},
{
position = "{311, 384}";
}
);
layerId = "FAA63EE3-19FC-428D-B9CE-910D1AA89240";
name = "Bold Universal Display Aug 3 16, 18:05";
paths = (
{
closed = 1;
nodes = (
"454 -14 OFFCURVE",
"554 94 OFFCURVE",
"554 263 CURVE SMOOTH",
"554 432 OFFCURVE",
"454 540 OFFCURVE",
"297 540 CURVE SMOOTH",
"140 540 OFFCURVE",
"40 432 OFFCURVE",
"40 263 CURVE SMOOTH",
"40 94 OFFCURVE",
"140 -14 OFFCURVE",
"297 -14 CURVE SMOOTH"
);
},
{
closed = 1;
nodes = (
"225 110 OFFCURVE",
"188 163 OFFCURVE",
"188 263 CURVE SMOOTH",
"188 363 OFFCURVE",
"225 416 OFFCURVE",
"297 416 CURVE SMOOTH",
"369 416 OFFCURVE",
"406 363 OFFCURVE",
"406 263 CURVE SMOOTH",
"406 163 OFFCURVE",
"369 110 OFFCURVE",
"297 110 CURVE SMOOTH"
);
}
);
width = 594;
},
{
associatedMasterId = "2F6174A6-5E34-4AB0-BBF3-B5DC3B823A34";
background = {
paths = (
{
closed = 1;
nodes = (
"449 -15 OFFCURVE",
"552 92 OFFCURVE",
"552 263 CURVE SMOOTH",
"552 433 OFFCURVE",
"449 540 OFFCURVE",
"296 540 CURVE SMOOTH",
"143 540 OFFCURVE",
"40 433 OFFCURVE",
"40 263 CURVE SMOOTH",
"40 92 OFFCURVE",
"143 -15 OFFCURVE",
"296 -15 CURVE SMOOTH"
);
},
{
closed = 1;
nodes = (
"226 109 OFFCURVE",
"188 164 OFFCURVE",
"188 263 CURVE SMOOTH",
"188 361 OFFCURVE",
"226 416 OFFCURVE",
"296 416 CURVE SMOOTH",
"366 416 OFFCURVE",
"404 361 OFFCURVE",
"404 263 CURVE SMOOTH",
"404 164 OFFCURVE",
"366 109 OFFCURVE",
"296 109 CURVE SMOOTH"
);
}
);
};
guideLines = (
{
angle = 270;
position = "{296, 369}";
},
{
position = "{310, 384}";
}
);
layerId = "AFAC93DB-490B-4475-BA51-569F70DC00BB";
name = "Bold Universal Display Aug 3 16, 17:58";
paths = (
{
closed = 1;
nodes = (
"467 -13 OFFCURVE",
"554 110 OFFCURVE",
"554 263 CURVE SMOOTH",
"554 417 OFFCURVE",
"467 540 OFFCURVE",
"296 540 CURVE SMOOTH",
"125 540 OFFCURVE",
"38 417 OFFCURVE",
"38 263 CURVE SMOOTH",
"38 110 OFFCURVE",
"125 -13 OFFCURVE",
"296 -13 CURVE SMOOTH"
);
},
{
closed = 1;
nodes = (
"225 111 OFFCURVE",
"186 162 OFFCURVE",
"186 263 CURVE SMOOTH",
"186 365 OFFCURVE",
"225 416 OFFCURVE",
"296 416 CURVE SMOOTH",
"367 416 OFFCURVE",
"406 365 OFFCURVE",
"406 263 CURVE SMOOTH",
"406 162 OFFCURVE",
"367 111 OFFCURVE",
"296 111 CURVE SMOOTH"
);
}
);
width = 592;
},
{
associatedMasterId = "2F6174A6-5E34-4AB0-BBF3-B5DC3B823A34";
background = {
paths = (
{
closed = 1;
nodes = (
"449 -15 OFFCURVE",
"552 92 OFFCURVE",
"552 263 CURVE SMOOTH",
"552 433 OFFCURVE",
"449 540 OFFCURVE",
"296 540 CURVE SMOOTH",
"143 540 OFFCURVE",
"40 433 OFFCURVE",
"40 263 CURVE SMOOTH",
"40 92 OFFCURVE",
"143 -15 OFFCURVE",
"296 -15 CURVE SMOOTH"
);
},
{
closed = 1;
nodes = (
"231 109 OFFCURVE",
"188 161 OFFCURVE",
"188 263 CURVE SMOOTH",
"188 367 OFFCURVE",
"231 416 OFFCURVE",
"296 416 CURVE SMOOTH",
"361 416 OFFCURVE",
"404 367 OFFCURVE",
"404 263 CURVE SMOOTH",
"404 161 OFFCURVE",
"361 109 OFFCURVE",
"296 109 CURVE SMOOTH"
);
}
);
};
guideLines = (
{
angle = 270;
position = "{296, 369}";
},
{
position = "{310, 384}";
}
);
layerId = "F2A3FF11-4A22-474B-95DA-16978BA4594F";
name = "Bold Universal Display Aug 3 16, 17:48 Aug 3 16, 18:04";
paths = (
{
closed = 1;
nodes = (
"449 -15 OFFCURVE",
"552 92 OFFCURVE",
"552 263 CURVE SMOOTH",
"552 433 OFFCURVE",
"449 540 OFFCURVE",
"296 540 CURVE SMOOTH",
"143 540 OFFCURVE",
"40 433 OFFCURVE",
"40 263 CURVE SMOOTH",
"40 92 OFFCURVE",
"143 -15 OFFCURVE",
"296 -15 CURVE SMOOTH"
);
},
{
closed = 1;
nodes = (
"226 109 OFFCURVE",
"188 164 OFFCURVE",
"188 263 CURVE SMOOTH",
"188 361 OFFCURVE",
"226 416 OFFCURVE",
"296 416 CURVE SMOOTH",
"366 416 OFFCURVE",
"404 361 OFFCURVE",
"404 263 CURVE SMOOTH",
"404 164 OFFCURVE",
"366 109 OFFCURVE",
"296 109 CURVE SMOOTH"
);
}
);
width = 592;
},
{
associatedMasterId = "2F6174A6-5E34-4AB0-BBF3-B5DC3B823A34";
background = {
paths = (
{
closed = 0;
nodes = (
"188 263 LINE",
"188 361 OFFCURVE",
"224 416 OFFCURVE",
"297 416 CURVE SMOOTH",
"370 416 OFFCURVE",
"406 361 OFFCURVE",
"406 263 CURVE"
);
},
{
closed = 0;
nodes = (
"40 263 LINE SMOOTH",
"40 433 OFFCURVE",
"141 540 OFFCURVE",
"297 540 CURVE SMOOTH",
"453 540 OFFCURVE",
"554 433 OFFCURVE",
"554 263 CURVE SMOOTH"
);
}
);
};
guideLines = (
{
angle = 270;
position = "{297, 369}";
},
{
position = "{311, 384}";
}
);
layerId = "EF213432-C0D3-45CF-8EC2-04B8A21E30F6";
name = "Bold Universal Display Aug 3 16, 18:05";
paths = (
{
closed = 1;
nodes = (
"454 -14 OFFCURVE",
"554 94 OFFCURVE",
"554 263 CURVE SMOOTH",
"554 432 OFFCURVE",
"454 540 OFFCURVE",
"297 540 CURVE SMOOTH",
"140 540 OFFCURVE",
"40 432 OFFCURVE",
"40 263 CURVE SMOOTH",
"40 94 OFFCURVE",
"140 -14 OFFCURVE",
"297 -14 CURVE SMOOTH"
);
},
{
closed = 1;
nodes = (
"225 110 OFFCURVE",
"188 163 OFFCURVE",
"188 263 CURVE SMOOTH",
"188 363 OFFCURVE",
"225 416 OFFCURVE",
"297 416 CURVE SMOOTH",
"369 416 OFFCURVE",
"406 363 OFFCURVE",
"406 263 CURVE SMOOTH",
"406 163 OFFCURVE",
"369 110 OFFCURVE",
"297 110 CURVE SMOOTH"
);
}
);
width = 594;
},
{
associatedMasterId = "C76CAC8E-7AD6-478C-8F7E-02FEF6F1EA84";
background = {
paths = (
{
closed = 1;
nodes = (
"449 -15 OFFCURVE",
"552 92 OFFCURVE",
"552 263 CURVE SMOOTH",
"552 433 OFFCURVE",
"449 540 OFFCURVE",
"296 540 CURVE SMOOTH",
"143 540 OFFCURVE",
"40 433 OFFCURVE",
"40 263 CURVE SMOOTH",
"40 92 OFFCURVE",
"143 -15 OFFCURVE",
"296 -15 CURVE SMOOTH"
);
},
{
closed = 1;
nodes = (
"226 109 OFFCURVE",
"188 164 OFFCURVE",
"188 263 CURVE SMOOTH",
"188 361 OFFCURVE",
"226 416 OFFCURVE",
"296 416 CURVE SMOOTH",
"366 416 OFFCURVE",
"404 361 OFFCURVE",
"404 263 CURVE SMOOTH",
"404 164 OFFCURVE",
"366 109 OFFCURVE",
"296 109 CURVE SMOOTH"
);
}
);
};
guideLines = (
{
angle = 270;
position = "{296, 369}";
},
{
position = "{310, 384}";
}
);
layerId = "620B9D82-47AA-42A4-8989-C656B30C5AF1";
name = "Bold Universal Display Aug 3 16, 17:58";
paths = (
{
closed = 1;
nodes = (
"467 -13 OFFCURVE",
"554 110 OFFCURVE",
"554 263 CURVE SMOOTH",
"554 417 OFFCURVE",
"467 540 OFFCURVE",
"296 540 CURVE SMOOTH",
"125 540 OFFCURVE",
"38 417 OFFCURVE",
"38 263 CURVE SMOOTH",
"38 110 OFFCURVE",
"125 -13 OFFCURVE",
"296 -13 CURVE SMOOTH"
);
},
{
closed = 1;
nodes = (
"225 111 OFFCURVE",
"186 162 OFFCURVE",
"186 263 CURVE SMOOTH",
"186 365 OFFCURVE",
"225 416 OFFCURVE",
"296 416 CURVE SMOOTH",
"367 416 OFFCURVE",
"406 365 OFFCURVE",
"406 263 CURVE SMOOTH",
"406 162 OFFCURVE",
"367 111 OFFCURVE",
"296 111 CURVE SMOOTH"
);
}
);
width = 592;
},
{
associatedMasterId = "C76CAC8E-7AD6-478C-8F7E-02FEF6F1EA84";
background = {
paths = (
{
closed = 1;
nodes = (
"449 -15 OFFCURVE",
"552 92 OFFCURVE",
"552 263 CURVE SMOOTH",
"552 433 OFFCURVE",
"449 540 OFFCURVE",
"296 540 CURVE SMOOTH",
"143 540 OFFCURVE",
"40 433 OFFCURVE",
"40 263 CURVE SMOOTH",
"40 92 OFFCURVE",
"143 -15 OFFCURVE",
"296 -15 CURVE SMOOTH"
);
},
{
closed = 1;
nodes = (
"231 109 OFFCURVE",
"188 161 OFFCURVE",
"188 263 CURVE SMOOTH",
"188 367 OFFCURVE",
"231 416 OFFCURVE",
"296 416 CURVE SMOOTH",
"361 416 OFFCURVE",
"404 367 OFFCURVE",
"404 263 CURVE SMOOTH",
"404 161 OFFCURVE",
"361 109 OFFCURVE",
"296 109 CURVE SMOOTH"
);
}
);
};
guideLines = (
{
angle = 270;
position = "{296, 369}";
},
{
position = "{310, 384}";
}
);
layerId = "B4BA4B96-9DC8-4CEB-ADF3-56E448971E26";
name = "Bold Universal Display Aug 3 16, 17:48 Aug 3 16, 18:04";
paths = (
{
closed = 1;
nodes = (
"449 -15 OFFCURVE",
"552 92 OFFCURVE",
"552 263 CURVE SMOOTH",
"552 433 OFFCURVE",
"449 540 OFFCURVE",
"296 540 CURVE SMOOTH",
"143 540 OFFCURVE",
"40 433 OFFCURVE",
"40 263 CURVE SMOOTH",
"40 92 OFFCURVE",
"143 -15 OFFCURVE",
"296 -15 CURVE SMOOTH"
);
},
{
closed = 1;
nodes = (
"226 109 OFFCURVE",
"188 164 OFFCURVE",
"188 263 CURVE SMOOTH",
"188 361 OFFCURVE",
"226 416 OFFCURVE",
"296 416 CURVE SMOOTH",
"366 416 OFFCURVE",
"404 361 OFFCURVE",
"404 263 CURVE SMOOTH",
"404 164 OFFCURVE",
"366 109 OFFCURVE",
"296 109 CURVE SMOOTH"
);
}
);
width = 592;
},
{
associatedMasterId = "C76CAC8E-7AD6-478C-8F7E-02FEF6F1EA84";
background = {
paths = (
{
closed = 0;
nodes = (
"188 263 LINE",
"188 361 OFFCURVE",
"224 416 OFFCURVE",
"297 416 CURVE SMOOTH",
"370 416 OFFCURVE",
"406 361 OFFCURVE",
"406 263 CURVE"
);
},
{
closed = 0;
nodes = (
"40 263 LINE SMOOTH",
"40 433 OFFCURVE",
"141 540 OFFCURVE",
"297 540 CURVE SMOOTH",
"453 540 OFFCURVE",
"554 433 OFFCURVE",
"554 263 CURVE SMOOTH"
);
}
);
};
guideLines = (
{
angle = 270;
position = "{297, 369}";
},
{
position = "{311, 384}";
}
);
layerId = "9567B459-7102-4B21-BF14-2FC9457E8630";
name = "Bold Universal Display Aug 3 16, 18:05";
paths = (
{
closed = 1;
nodes = (
"454 -14 OFFCURVE",
"554 94 OFFCURVE",
"554 263 CURVE SMOOTH",
"554 432 OFFCURVE",
"454 540 OFFCURVE",
"297 540 CURVE SMOOTH",
"140 540 OFFCURVE",
"40 432 OFFCURVE",
"40 263 CURVE SMOOTH",
"40 94 OFFCURVE",
"140 -14 OFFCURVE",
"297 -14 CURVE SMOOTH"
);
},
{
closed = 1;
nodes = (
"225 110 OFFCURVE",
"188 163 OFFCURVE",
"188 263 CURVE SMOOTH",
"188 363 OFFCURVE",
"225 416 OFFCURVE",
"297 416 CURVE SMOOTH",
"369 416 OFFCURVE",
"406 363 OFFCURVE",
"406 263 CURVE SMOOTH",
"406 163 OFFCURVE",
"369 110 OFFCURVE",
"297 110 CURVE SMOOTH"
);
}
);
width = 594;
},
{
associatedMasterId = "C76CAC8E-7AD6-478C-8F7E-02FEF6F1EA84";
background = {
paths = (
{
closed = 1;
nodes = (
"449 -15 OFFCURVE",
"552 92 OFFCURVE",
"552 263 CURVE SMOOTH",
"552 433 OFFCURVE",
"449 540 OFFCURVE",
"296 540 CURVE SMOOTH",
"143 540 OFFCURVE",
"40 433 OFFCURVE",
"40 263 CURVE SMOOTH",
"40 92 OFFCURVE",
"143 -15 OFFCURVE",
"296 -15 CURVE SMOOTH"
);
},
{
closed = 1;
nodes = (
"226 109 OFFCURVE",
"188 164 OFFCURVE",
"188 263 CURVE SMOOTH",
"188 361 OFFCURVE",
"226 416 OFFCURVE",
"296 416 CURVE SMOOTH",
"366 416 OFFCURVE",
"404 361 OFFCURVE",
"404 263 CURVE SMOOTH",
"404 164 OFFCURVE",
"366 109 OFFCURVE",
"296 109 CURVE SMOOTH"
);
}
);
};
guideLines = (
{
angle = 270;
position = "{296, 369}";
},
{
position = "{310, 384}";
}
);
layerId = "6EEC109B-5E75-4EC7-85E0-EADA8AB7CE71";
name = "Bold Universal Display Aug 3 16, 17:58";
paths = (
{
closed = 1;
nodes = (
"467 -13 OFFCURVE",
"554 110 OFFCURVE",
"554 263 CURVE SMOOTH",
"554 417 OFFCURVE",
"467 540 OFFCURVE",
"296 540 CURVE SMOOTH",
"125 540 OFFCURVE",
"38 417 OFFCURVE",
"38 263 CURVE SMOOTH",
"38 110 OFFCURVE",
"125 -13 OFFCURVE",
"296 -13 CURVE SMOOTH"
);
},
{
closed = 1;
nodes = (
"225 111 OFFCURVE",
"186 162 OFFCURVE",
"186 263 CURVE SMOOTH",
"186 365 OFFCURVE",
"225 416 OFFCURVE",
"296 416 CURVE SMOOTH",
"367 416 OFFCURVE",
"406 365 OFFCURVE",
"406 263 CURVE SMOOTH",
"406 162 OFFCURVE",
"367 111 OFFCURVE",
"296 111 CURVE SMOOTH"
);
}
);
width = 592;
},
{
associatedMasterId = "C76CAC8E-7AD6-478C-8F7E-02FEF6F1EA84";
background = {
paths = (
{
closed = 1;
nodes = (
"449 -15 OFFCURVE",
"552 92 OFFCURVE",
"552 263 CURVE SMOOTH",
"552 433 OFFCURVE",
"449 540 OFFCURVE",
"296 540 CURVE SMOOTH",
"143 540 OFFCURVE",
"40 433 OFFCURVE",
"40 263 CURVE SMOOTH",
"40 92 OFFCURVE",
"143 -15 OFFCURVE",
"296 -15 CURVE SMOOTH"
);
},
{
closed = 1;
nodes = (
"231 109 OFFCURVE",
"188 161 OFFCURVE",
"188 263 CURVE SMOOTH",
"188 367 OFFCURVE",
"231 416 OFFCURVE",
"296 416 CURVE SMOOTH",
"361 416 OFFCURVE",
"404 367 OFFCURVE",
"404 263 CURVE SMOOTH",
"404 161 OFFCURVE",
"361 109 OFFCURVE",
"296 109 CURVE SMOOTH"
);
}
);
};
guideLines = (
{
angle = 270;
position = "{296, 369}";
},
{
position = "{310, 384}";
}
);
layerId = "588A745B-5170-4EEF-AC62-F85C02ED1DEC";
name = "Bold Universal Display Aug 3 16, 17:48 Aug 3 16, 18:04";
paths = (
{
closed = 1;
nodes = (
"449 -15 OFFCURVE",
"552 92 OFFCURVE",
"552 263 CURVE SMOOTH",
"552 433 OFFCURVE",
"449 540 OFFCURVE",
"296 540 CURVE SMOOTH",
"143 540 OFFCURVE",
"40 433 OFFCURVE",
"40 263 CURVE SMOOTH",
"40 92 OFFCURVE",
"143 -15 OFFCURVE",
"296 -15 CURVE SMOOTH"
);
},
{
closed = 1;
nodes = (
"226 109 OFFCURVE",
"188 164 OFFCURVE",
"188 263 CURVE SMOOTH",
"188 361 OFFCURVE",
"226 416 OFFCURVE",
"296 416 CURVE SMOOTH",
"366 416 OFFCURVE",
"404 361 OFFCURVE",
"404 263 CURVE SMOOTH",
"404 164 OFFCURVE",
"366 109 OFFCURVE",
"296 109 CURVE SMOOTH"
);
}
);
width = 592;
},
{
associatedMasterId = "C76CAC8E-7AD6-478C-8F7E-02FEF6F1EA84";
background = {
paths = (
{
closed = 0;
nodes = (
"188 263 LINE",
"188 361 OFFCURVE",
"224 416 OFFCURVE",
"297 416 CURVE SMOOTH",
"370 416 OFFCURVE",
"406 361 OFFCURVE",
"406 263 CURVE"
);
},
{
closed = 0;
nodes = (
"40 263 LINE SMOOTH",
"40 433 OFFCURVE",
"141 540 OFFCURVE",
"297 540 CURVE SMOOTH",
"453 540 OFFCURVE",
"554 433 OFFCURVE",
"554 263 CURVE SMOOTH"
);
}
);
};
guideLines = (
{
angle = 270;
position = "{297, 369}";
},
{
position = "{311, 384}";
}
);
layerId = "AE518C1A-6360-4320-8D32-46CA6A8548D5";
name = "Bold Universal Display Aug 3 16, 18:05";
paths = (
{
closed = 1;
nodes = (
"454 -14 OFFCURVE",
"554 94 OFFCURVE",
"554 263 CURVE SMOOTH",
"554 432 OFFCURVE",
"454 540 OFFCURVE",
"297 540 CURVE SMOOTH",
"140 540 OFFCURVE",
"40 432 OFFCURVE",
"40 263 CURVE SMOOTH",
"40 94 OFFCURVE",
"140 -14 OFFCURVE",
"297 -14 CURVE SMOOTH"
);
},
{
closed = 1;
nodes = (
"225 110 OFFCURVE",
"188 163 OFFCURVE",
"188 263 CURVE SMOOTH",
"188 363 OFFCURVE",
"225 416 OFFCURVE",
"297 416 CURVE SMOOTH",
"369 416 OFFCURVE",
"406 363 OFFCURVE",
"406 263 CURVE SMOOTH",
"406 163 OFFCURVE",
"369 110 OFFCURVE",
"297 110 CURVE SMOOTH"
);
}
);
width = 594;
},
{
background = {
paths = (
{
closed = 1;
nodes = (
"484 -12 OFFCURVE",
"577 89 OFFCURVE",
"577 264 CURVE SMOOTH",
"577 439 OFFCURVE",
"484 540 OFFCURVE",
"308 540 CURVE SMOOTH",
"132 540 OFFCURVE",
"39 439 OFFCURVE",
"39 264 CURVE SMOOTH",
"39 89 OFFCURVE",
"132 -12 OFFCURVE",
"308 -12 CURVE SMOOTH"
);
},
{
closed = 1;
nodes = (
"222 103 OFFCURVE",
"187 160 OFFCURVE",
"187 264 CURVE SMOOTH",
"187 368 OFFCURVE",
"222 425 OFFCURVE",
"308 425 CURVE SMOOTH",
"394 425 OFFCURVE",
"429 368 OFFCURVE",
"429 264 CURVE SMOOTH",
"429 160 OFFCURVE",
"394 103 OFFCURVE",
"308 103 CURVE SMOOTH"
);
}
);
};
guideLines = (
{
position = "{175, 419}";
}
);
layerId = "C76CAC8E-7AD6-478C-8F7E-02FEF6F1EA84";
paths = (
{
closed = 1;
nodes = (
"484 -12 OFFCURVE",
"576 89 OFFCURVE",
"576 264 CURVE SMOOTH",
"576 439 OFFCURVE",
"484 540 OFFCURVE",
"308 540 CURVE SMOOTH",
"132 540 OFFCURVE",
"40 439 OFFCURVE",
"40 264 CURVE SMOOTH",
"40 89 OFFCURVE",
"132 -12 OFFCURVE",
"308 -12 CURVE SMOOTH"
);
},
{
closed = 1;
nodes = (
"221 103 OFFCURVE",
"186 160 OFFCURVE",
"186 264 CURVE SMOOTH",
"186 368 OFFCURVE",
"221 425 OFFCURVE",
"308 425 CURVE SMOOTH",
"395 425 OFFCURVE",
"430 368 OFFCURVE",
"430 264 CURVE SMOOTH",
"430 160 OFFCURVE",
"395 103 OFFCURVE",
"308 103 CURVE SMOOTH"
);
}
);
width = 616;
},
{
associatedMasterId = "062D78B0-B209-4D64-99AA-ACBF5D882D7F";
background = {
paths = (
{
closed = 1;
nodes = (
"449 -15 OFFCURVE",
"552 92 OFFCURVE",
"552 263 CURVE SMOOTH",
"552 433 OFFCURVE",
"449 540 OFFCURVE",
"296 540 CURVE SMOOTH",
"143 540 OFFCURVE",
"40 433 OFFCURVE",
"40 263 CURVE SMOOTH",
"40 92 OFFCURVE",
"143 -15 OFFCURVE",
"296 -15 CURVE SMOOTH"
);
},
{
closed = 1;
nodes = (
"226 109 OFFCURVE",
"188 164 OFFCURVE",
"188 263 CURVE SMOOTH",
"188 361 OFFCURVE",
"226 416 OFFCURVE",
"296 416 CURVE SMOOTH",
"366 416 OFFCURVE",
"404 361 OFFCURVE",
"404 263 CURVE SMOOTH",
"404 164 OFFCURVE",
"366 109 OFFCURVE",
"296 109 CURVE SMOOTH"
);
}
);
};
guideLines = (
{
angle = 270;
position = "{296, 369}";
},
{
position = "{310, 384}";
}
);
layerId = "7F0CEE6A-AD61-47B7-A80F-FAC9D8BA2E5A";
name = "Bold Universal Display Aug 3 16, 17:58";
paths = (
{
closed = 1;
nodes = (
"467 -13 OFFCURVE",
"554 110 OFFCURVE",
"554 263 CURVE SMOOTH",
"554 417 OFFCURVE",
"467 540 OFFCURVE",
"296 540 CURVE SMOOTH",
"125 540 OFFCURVE",
"38 417 OFFCURVE",
"38 263 CURVE SMOOTH",
"38 110 OFFCURVE",
"125 -13 OFFCURVE",
"296 -13 CURVE SMOOTH"
);
},
{
closed = 1;
nodes = (
"225 111 OFFCURVE",
"186 162 OFFCURVE",
"186 263 CURVE SMOOTH",
"186 365 OFFCURVE",
"225 416 OFFCURVE",
"296 416 CURVE SMOOTH",
"367 416 OFFCURVE",
"406 365 OFFCURVE",
"406 263 CURVE SMOOTH",
"406 162 OFFCURVE",
"367 111 OFFCURVE",
"296 111 CURVE SMOOTH"
);
}
);
width = 592;
},
{
associatedMasterId = "062D78B0-B209-4D64-99AA-ACBF5D882D7F";
background = {
paths = (
{
closed = 1;
nodes = (
"449 -15 OFFCURVE",
"552 92 OFFCURVE",
"552 263 CURVE SMOOTH",
"552 433 OFFCURVE",
"449 540 OFFCURVE",
"296 540 CURVE SMOOTH",
"143 540 OFFCURVE",
"40 433 OFFCURVE",
"40 263 CURVE SMOOTH",
"40 92 OFFCURVE",
"143 -15 OFFCURVE",
"296 -15 CURVE SMOOTH"
);
},
{
closed = 1;
nodes = (
"231 109 OFFCURVE",
"188 161 OFFCURVE",
"188 263 CURVE SMOOTH",
"188 367 OFFCURVE",
"231 416 OFFCURVE",
"296 416 CURVE SMOOTH",
"361 416 OFFCURVE",
"404 367 OFFCURVE",
"404 263 CURVE SMOOTH",
"404 161 OFFCURVE",
"361 109 OFFCURVE",
"296 109 CURVE SMOOTH"
);
}
);
};
guideLines = (
{
angle = 270;
position = "{296, 369}";
},
{
position = "{310, 384}";
}
);
layerId = "CE1328B2-50BF-45A2-A1FC-6071C0495899";
name = "Bold Universal Display Aug 3 16, 17:48 Aug 3 16, 18:04";
paths = (
{
closed = 1;
nodes = (
"449 -15 OFFCURVE",
"552 92 OFFCURVE",
"552 263 CURVE SMOOTH",
"552 433 OFFCURVE",
"449 540 OFFCURVE",
"296 540 CURVE SMOOTH",
"143 540 OFFCURVE",
"40 433 OFFCURVE",
"40 263 CURVE SMOOTH",
"40 92 OFFCURVE",
"143 -15 OFFCURVE",
"296 -15 CURVE SMOOTH"
);
},
{
closed = 1;
nodes = (
"226 109 OFFCURVE",
"188 164 OFFCURVE",
"188 263 CURVE SMOOTH",
"188 361 OFFCURVE",
"226 416 OFFCURVE",
"296 416 CURVE SMOOTH",
"366 416 OFFCURVE",
"404 361 OFFCURVE",
"404 263 CURVE SMOOTH",
"404 164 OFFCURVE",
"366 109 OFFCURVE",
"296 109 CURVE SMOOTH"
);
}
);
width = 592;
},
{
associatedMasterId = "062D78B0-B209-4D64-99AA-ACBF5D882D7F";
background = {
paths = (
{
closed = 0;
nodes = (
"188 263 LINE",
"188 361 OFFCURVE",
"224 416 OFFCURVE",
"297 416 CURVE SMOOTH",
"370 416 OFFCURVE",
"406 361 OFFCURVE",
"406 263 CURVE"
);
},
{
closed = 0;
nodes = (
"40 263 LINE SMOOTH",
"40 433 OFFCURVE",
"141 540 OFFCURVE",
"297 540 CURVE SMOOTH",
"453 540 OFFCURVE",
"554 433 OFFCURVE",
"554 263 CURVE SMOOTH"
);
}
);
};
guideLines = (
{
angle = 270;
position = "{297, 369}";
},
{
position = "{311, 384}";
}
);
layerId = "86583267-114F-4231-901B-6CAD67ADC61F";
name = "Bold Universal Display Aug 3 16, 18:05";
paths = (
{
closed = 1;
nodes = (
"454 -14 OFFCURVE",
"554 94 OFFCURVE",
"554 263 CURVE SMOOTH",
"554 432 OFFCURVE",
"454 540 OFFCURVE",
"297 540 CURVE SMOOTH",
"140 540 OFFCURVE",
"40 432 OFFCURVE",
"40 263 CURVE SMOOTH",
"40 94 OFFCURVE",
"140 -14 OFFCURVE",
"297 -14 CURVE SMOOTH"
);
},
{
closed = 1;
nodes = (
"225 110 OFFCURVE",
"188 163 OFFCURVE",
"188 263 CURVE SMOOTH",
"188 363 OFFCURVE",
"225 416 OFFCURVE",
"297 416 CURVE SMOOTH",
"369 416 OFFCURVE",
"406 363 OFFCURVE",
"406 263 CURVE SMOOTH",
"406 163 OFFCURVE",
"369 110 OFFCURVE",
"297 110 CURVE SMOOTH"
);
}
);
width = 594;
},
{
associatedMasterId = "062D78B0-B209-4D64-99AA-ACBF5D882D7F";
background = {
paths = (
{
closed = 1;
nodes = (
"449 -15 OFFCURVE",
"552 92 OFFCURVE",
"552 263 CURVE SMOOTH",
"552 433 OFFCURVE",
"449 540 OFFCURVE",
"296 540 CURVE SMOOTH",
"143 540 OFFCURVE",
"40 433 OFFCURVE",
"40 263 CURVE SMOOTH",
"40 92 OFFCURVE",
"143 -15 OFFCURVE",
"296 -15 CURVE SMOOTH"
);
},
{
closed = 1;
nodes = (
"226 109 OFFCURVE",
"188 164 OFFCURVE",
"188 263 CURVE SMOOTH",
"188 361 OFFCURVE",
"226 416 OFFCURVE",
"296 416 CURVE SMOOTH",
"366 416 OFFCURVE",
"404 361 OFFCURVE",
"404 263 CURVE SMOOTH",
"404 164 OFFCURVE",
"366 109 OFFCURVE",
"296 109 CURVE SMOOTH"
);
}
);
};
guideLines = (
{
angle = 270;
position = "{296, 369}";
},
{
position = "{310, 384}";
}
);
layerId = "70124F64-10ED-4A6A-A4AE-607840B100CB";
name = "Bold Universal Display Aug 3 16, 17:58";
paths = (
{
closed = 1;
nodes = (
"467 -13 OFFCURVE",
"554 110 OFFCURVE",
"554 263 CURVE SMOOTH",
"554 417 OFFCURVE",
"467 540 OFFCURVE",
"296 540 CURVE SMOOTH",
"125 540 OFFCURVE",
"38 417 OFFCURVE",
"38 263 CURVE SMOOTH",
"38 110 OFFCURVE",
"125 -13 OFFCURVE",
"296 -13 CURVE SMOOTH"
);
},
{
closed = 1;
nodes = (
"225 111 OFFCURVE",
"186 162 OFFCURVE",
"186 263 CURVE SMOOTH",
"186 365 OFFCURVE",
"225 416 OFFCURVE",
"296 416 CURVE SMOOTH",
"367 416 OFFCURVE",
"406 365 OFFCURVE",
"406 263 CURVE SMOOTH",
"406 162 OFFCURVE",
"367 111 OFFCURVE",
"296 111 CURVE SMOOTH"
);
}
);
width = 592;
},
{
associatedMasterId = "062D78B0-B209-4D64-99AA-ACBF5D882D7F";
background = {
paths = (
{
closed = 1;
nodes = (
"449 -15 OFFCURVE",
"552 92 OFFCURVE",
"552 263 CURVE SMOOTH",
"552 433 OFFCURVE",
"449 540 OFFCURVE",
"296 540 CURVE SMOOTH",
"143 540 OFFCURVE",
"40 433 OFFCURVE",
"40 263 CURVE SMOOTH",
"40 92 OFFCURVE",
"143 -15 OFFCURVE",
"296 -15 CURVE SMOOTH"
);
},
{
closed = 1;
nodes = (
"231 109 OFFCURVE",
"188 161 OFFCURVE",
"188 263 CURVE SMOOTH",
"188 367 OFFCURVE",
"231 416 OFFCURVE",
"296 416 CURVE SMOOTH",
"361 416 OFFCURVE",
"404 367 OFFCURVE",
"404 263 CURVE SMOOTH",
"404 161 OFFCURVE",
"361 109 OFFCURVE",
"296 109 CURVE SMOOTH"
);
}
);
};
guideLines = (
{
angle = 270;
position = "{296, 369}";
},
{
position = "{310, 384}";
}
);
layerId = "485C1B63-9B24-4B5F-ACFB-0BC42A9E2342";
name = "Bold Universal Display Aug 3 16, 17:48 Aug 3 16, 18:04";
paths = (
{
closed = 1;
nodes = (
"449 -15 OFFCURVE",
"552 92 OFFCURVE",
"552 263 CURVE SMOOTH",
"552 433 OFFCURVE",
"449 540 OFFCURVE",
"296 540 CURVE SMOOTH",
"143 540 OFFCURVE",
"40 433 OFFCURVE",
"40 263 CURVE SMOOTH",
"40 92 OFFCURVE",
"143 -15 OFFCURVE",
"296 -15 CURVE SMOOTH"
);
},
{
closed = 1;
nodes = (
"226 109 OFFCURVE",
"188 164 OFFCURVE",
"188 263 CURVE SMOOTH",
"188 361 OFFCURVE",
"226 416 OFFCURVE",
"296 416 CURVE SMOOTH",
"366 416 OFFCURVE",
"404 361 OFFCURVE",
"404 263 CURVE SMOOTH",
"404 164 OFFCURVE",
"366 109 OFFCURVE",
"296 109 CURVE SMOOTH"
);
}
);
width = 592;
},
{
associatedMasterId = "062D78B0-B209-4D64-99AA-ACBF5D882D7F";
background = {
paths = (
{
closed = 0;
nodes = (
"188 263 LINE",
"188 361 OFFCURVE",
"224 416 OFFCURVE",
"297 416 CURVE SMOOTH",
"370 416 OFFCURVE",
"406 361 OFFCURVE",
"406 263 CURVE"
);
},
{
closed = 0;
nodes = (
"40 263 LINE SMOOTH",
"40 433 OFFCURVE",
"141 540 OFFCURVE",
"297 540 CURVE SMOOTH",
"453 540 OFFCURVE",
"554 433 OFFCURVE",
"554 263 CURVE SMOOTH"
);
}
);
};
guideLines = (
{
angle = 270;
position = "{297, 369}";
},
{
position = "{311, 384}";
}
);
layerId = "4DDE842D-94F9-4A18-817B-622A7B07EF91";
name = "Bold Universal Display Aug 3 16, 18:05";
paths = (
{
closed = 1;
nodes = (
"454 -14 OFFCURVE",
"554 94 OFFCURVE",
"554 263 CURVE SMOOTH",
"554 432 OFFCURVE",
"454 540 OFFCURVE",
"297 540 CURVE SMOOTH",
"140 540 OFFCURVE",
"40 432 OFFCURVE",
"40 263 CURVE SMOOTH",
"40 94 OFFCURVE",
"140 -14 OFFCURVE",
"297 -14 CURVE SMOOTH"
);
},
{
closed = 1;
nodes = (
"225 110 OFFCURVE",
"188 163 OFFCURVE",
"188 263 CURVE SMOOTH",
"188 363 OFFCURVE",
"225 416 OFFCURVE",
"297 416 CURVE SMOOTH",
"369 416 OFFCURVE",
"406 363 OFFCURVE",
"406 263 CURVE SMOOTH",
"406 163 OFFCURVE",
"369 110 OFFCURVE",
"297 110 CURVE SMOOTH"
);
}
);
width = 594;
}
);
unicode = 006F;
},
{
color = 4;
glyphname = p;
lastChange = "2016-11-25 09:30:50 +0000";
layers = (
{
associatedMasterId = "2F6174A6-5E34-4AB0-BBF3-B5DC3B823A34";
background = {
paths = (
{
closed = 1;
nodes = (
"90 515 LINE",
"90 -247 LINE",
"108 -247 LINE",
"108 515 LINE"
);
},
{
closed = 0;
nodes = (
"108 515 LINE",
"90 515 LINE"
);
},
{
closed = 1;
nodes = (
"413 512 OFFCURVE",
"496 427 OFFCURVE",
"496 257 CURVE SMOOTH",
"496 88 OFFCURVE",
"408 3 OFFCURVE",
"292 3 CURVE SMOOTH",
"192 3 OFFCURVE",
"108 81 OFFCURVE",
"108 206 CURVE",
"97 206 LINE",
"91 78 OFFCURVE",
"177 -15 OFFCURVE",
"292 -15 CURVE SMOOTH",
"420 -15 OFFCURVE",
"516 79 OFFCURVE",
"516 257 CURVE SMOOTH",
"516 436 OFFCURVE",
"425 530 OFFCURVE",
"303 530 CURVE",
"183 530 OFFCURVE",
"91 433 OFFCURVE",
"97 300 CURVE",
"108 300 LINE",
"108 430 OFFCURVE",
"197 512 OFFCURVE",
"303 512 CURVE"
);
}
);
};
layerId = "D0D14A43-8C13-47EE-A9AE-0E9A62E0BFFF";
name = "Bold Universal Display Aug 3 16, 20:06";
paths = (
{
closed = 1;
nodes = (
"256 538 OFFCURVE",
"200 477 OFFCURVE",
"186 392 CURVE",
"205 302 LINE",
"205 372 OFFCURVE",
"243 412 OFFCURVE",
"315 412 CURVE SMOOTH",
"380 412 OFFCURVE",
"424 367 OFFCURVE",
"424 265 CURVE SMOOTH",
"424 169 OFFCURVE",
"378 114 OFFCURVE",
"306 114 CURVE SMOOTH",
"240 114 OFFCURVE",
"205 156 OFFCURVE",
"205 236 CURVE",
"186 146 LINE",
"198 49 OFFCURVE",
"245 -12 OFFCURVE",
"344 -12 CURVE SMOOTH",
"485 -12 OFFCURVE",
"572 107 OFFCURVE",
"572 264 CURVE SMOOTH",
"572 434 OFFCURVE",
"487 538 OFFCURVE",
"359 538 CURVE SMOOTH"
);
},
{
closed = 1;
nodes = (
"65 525 LINE",
"65 -195 LINE",
"205 -195 LINE",
"205 525 LINE"
);
}
);
width = 612;
},
{
associatedMasterId = "2F6174A6-5E34-4AB0-BBF3-B5DC3B823A34";
background = {
paths = (
{
closed = 1;
nodes = (
"90 515 LINE",
"90 -247 LINE",
"108 -247 LINE",
"108 515 LINE"
);
},
{
closed = 0;
nodes = (
"108 515 LINE",
"90 515 LINE"
);
},
{
closed = 1;
nodes = (
"413 512 OFFCURVE",
"496 427 OFFCURVE",
"496 257 CURVE SMOOTH",
"496 88 OFFCURVE",
"408 3 OFFCURVE",
"292 3 CURVE SMOOTH",
"192 3 OFFCURVE",
"108 81 OFFCURVE",
"108 206 CURVE",
"97 206 LINE",
"91 78 OFFCURVE",
"177 -15 OFFCURVE",
"292 -15 CURVE SMOOTH",
"420 -15 OFFCURVE",
"516 79 OFFCURVE",
"516 257 CURVE SMOOTH",
"516 436 OFFCURVE",
"425 530 OFFCURVE",
"303 530 CURVE",
"183 530 OFFCURVE",
"91 433 OFFCURVE",
"97 300 CURVE",
"108 300 LINE",
"108 430 OFFCURVE",
"197 512 OFFCURVE",
"303 512 CURVE"
);
}
);
};
layerId = "1C597566-0591-4CDB-9894-6AFA1242D8C1";
name = "Bold Universal Display Aug 3 16, 20:06";
paths = (
{
closed = 1;
nodes = (
"256 538 OFFCURVE",
"200 477 OFFCURVE",
"186 392 CURVE",
"205 302 LINE",
"205 372 OFFCURVE",
"243 412 OFFCURVE",
"315 412 CURVE SMOOTH",
"380 412 OFFCURVE",
"424 367 OFFCURVE",
"424 265 CURVE SMOOTH",
"424 169 OFFCURVE",
"378 114 OFFCURVE",
"306 114 CURVE SMOOTH",
"240 114 OFFCURVE",
"205 156 OFFCURVE",
"205 236 CURVE",
"186 146 LINE",
"198 49 OFFCURVE",
"245 -12 OFFCURVE",
"344 -12 CURVE SMOOTH",
"485 -12 OFFCURVE",
"572 107 OFFCURVE",
"572 264 CURVE SMOOTH",
"572 434 OFFCURVE",
"487 538 OFFCURVE",
"359 538 CURVE SMOOTH"
);
},
{
closed = 1;
nodes = (
"65 525 LINE",
"65 -195 LINE",
"205 -195 LINE",
"205 525 LINE"
);
}
);
width = 612;
},
{
associatedMasterId = "C76CAC8E-7AD6-478C-8F7E-02FEF6F1EA84";
background = {
paths = (
{
closed = 1;
nodes = (
"90 515 LINE",
"90 -247 LINE",
"108 -247 LINE",
"108 515 LINE"
);
},
{
closed = 0;
nodes = (
"108 515 LINE",
"90 515 LINE"
);
},
{
closed = 1;
nodes = (
"413 512 OFFCURVE",
"496 427 OFFCURVE",
"496 257 CURVE SMOOTH",
"496 88 OFFCURVE",
"408 3 OFFCURVE",
"292 3 CURVE SMOOTH",
"192 3 OFFCURVE",
"108 81 OFFCURVE",
"108 206 CURVE",
"97 206 LINE",
"91 78 OFFCURVE",
"177 -15 OFFCURVE",
"292 -15 CURVE SMOOTH",
"420 -15 OFFCURVE",
"516 79 OFFCURVE",
"516 257 CURVE SMOOTH",
"516 436 OFFCURVE",
"425 530 OFFCURVE",
"303 530 CURVE",
"183 530 OFFCURVE",
"91 433 OFFCURVE",
"97 300 CURVE",
"108 300 LINE",
"108 430 OFFCURVE",
"197 512 OFFCURVE",
"303 512 CURVE"
);
}
);
};
layerId = "21F1BE2C-2A3F-460D-BFEC-12FDA4E4DF22";
name = "Bold Universal Display Aug 3 16, 20:06";
paths = (
{
closed = 1;
nodes = (
"256 538 OFFCURVE",
"200 477 OFFCURVE",
"186 392 CURVE",
"205 302 LINE",
"205 372 OFFCURVE",
"243 412 OFFCURVE",
"315 412 CURVE SMOOTH",
"380 412 OFFCURVE",
"424 367 OFFCURVE",
"424 265 CURVE SMOOTH",
"424 169 OFFCURVE",
"378 114 OFFCURVE",
"306 114 CURVE SMOOTH",
"240 114 OFFCURVE",
"205 156 OFFCURVE",
"205 236 CURVE",
"186 146 LINE",
"198 49 OFFCURVE",
"245 -12 OFFCURVE",
"344 -12 CURVE SMOOTH",
"485 -12 OFFCURVE",
"572 107 OFFCURVE",
"572 264 CURVE SMOOTH",
"572 434 OFFCURVE",
"487 538 OFFCURVE",
"359 538 CURVE SMOOTH"
);
},
{
closed = 1;
nodes = (
"65 525 LINE",
"65 -195 LINE",
"205 -195 LINE",
"205 525 LINE"
);
}
);
width = 612;
},
{
background = {
paths = (
{
closed = 1;
nodes = (
"85 515 LINE",
"85 -247 LINE",
"103 -247 LINE",
"103 515 LINE"
);
},
{
closed = 0;
nodes = (
"103 515 LINE",
"85 515 LINE"
);
},
{
closed = 1;
nodes = (
"408 512 OFFCURVE",
"491 427 OFFCURVE",
"491 257 CURVE SMOOTH",
"491 88 OFFCURVE",
"403 3 OFFCURVE",
"287 3 CURVE SMOOTH",
"187 3 OFFCURVE",
"103 81 OFFCURVE",
"103 206 CURVE",
"92 206 LINE",
"86 78 OFFCURVE",
"172 -15 OFFCURVE",
"287 -15 CURVE SMOOTH",
"415 -15 OFFCURVE",
"511 79 OFFCURVE",
"511 257 CURVE SMOOTH",
"511 436 OFFCURVE",
"420 530 OFFCURVE",
"298 530 CURVE",
"178 530 OFFCURVE",
"86 433 OFFCURVE",
"92 300 CURVE",
"103 300 LINE",
"103 430 OFFCURVE",
"192 512 OFFCURVE",
"298 512 CURVE"
);
}
);
};
components = (
{
name = d;
transform = "{-1, 0, 0, -1, 657, 525}";
}
);
layerId = "C76CAC8E-7AD6-478C-8F7E-02FEF6F1EA84";
width = 657;
},
{
associatedMasterId = "C76CAC8E-7AD6-478C-8F7E-02FEF6F1EA84";
background = {
paths = (
{
closed = 1;
nodes = (
"90 515 LINE",
"90 -247 LINE",
"108 -247 LINE",
"108 515 LINE"
);
},
{
closed = 0;
nodes = (
"108 515 LINE",
"90 515 LINE"
);
},
{
closed = 1;
nodes = (
"413 512 OFFCURVE",
"496 427 OFFCURVE",
"496 257 CURVE SMOOTH",
"496 88 OFFCURVE",
"408 3 OFFCURVE",
"292 3 CURVE SMOOTH",
"192 3 OFFCURVE",
"108 81 OFFCURVE",
"108 206 CURVE",
"97 206 LINE",
"91 78 OFFCURVE",
"177 -15 OFFCURVE",
"292 -15 CURVE SMOOTH",
"420 -15 OFFCURVE",
"516 79 OFFCURVE",
"516 257 CURVE SMOOTH",
"516 436 OFFCURVE",
"425 530 OFFCURVE",
"303 530 CURVE",
"183 530 OFFCURVE",
"91 433 OFFCURVE",
"97 300 CURVE",
"108 300 LINE",
"108 430 OFFCURVE",
"197 512 OFFCURVE",
"303 512 CURVE"
);
}
);
};
layerId = "C64140CE-205D-4119-8603-C2EF8ACEA278";
name = "Bold Universal Display Aug 3 16, 20:06";
paths = (
{
closed = 1;
nodes = (
"256 538 OFFCURVE",
"200 477 OFFCURVE",
"186 392 CURVE",
"205 302 LINE",
"205 372 OFFCURVE",
"243 412 OFFCURVE",
"315 412 CURVE SMOOTH",
"380 412 OFFCURVE",
"424 367 OFFCURVE",
"424 265 CURVE SMOOTH",
"424 169 OFFCURVE",
"378 114 OFFCURVE",
"306 114 CURVE SMOOTH",
"240 114 OFFCURVE",
"205 156 OFFCURVE",
"205 236 CURVE",
"186 146 LINE",
"198 49 OFFCURVE",
"245 -12 OFFCURVE",
"344 -12 CURVE SMOOTH",
"485 -12 OFFCURVE",
"572 107 OFFCURVE",
"572 264 CURVE SMOOTH",
"572 434 OFFCURVE",
"487 538 OFFCURVE",
"359 538 CURVE SMOOTH"
);
},
{
closed = 1;
nodes = (
"65 525 LINE",
"65 -195 LINE",
"205 -195 LINE",
"205 525 LINE"
);
}
);
width = 612;
},
{
associatedMasterId = "062D78B0-B209-4D64-99AA-ACBF5D882D7F";
background = {
paths = (
{
closed = 1;
nodes = (
"90 515 LINE",
"90 -247 LINE",
"108 -247 LINE",
"108 515 LINE"
);
},
{
closed = 0;
nodes = (
"108 515 LINE",
"90 515 LINE"
);
},
{
closed = 1;
nodes = (
"413 512 OFFCURVE",
"496 427 OFFCURVE",
"496 257 CURVE SMOOTH",
"496 88 OFFCURVE",
"408 3 OFFCURVE",
"292 3 CURVE SMOOTH",
"192 3 OFFCURVE",
"108 81 OFFCURVE",
"108 206 CURVE",
"97 206 LINE",
"91 78 OFFCURVE",
"177 -15 OFFCURVE",
"292 -15 CURVE SMOOTH",
"420 -15 OFFCURVE",
"516 79 OFFCURVE",
"516 257 CURVE SMOOTH",
"516 436 OFFCURVE",
"425 530 OFFCURVE",
"303 530 CURVE",
"183 530 OFFCURVE",
"91 433 OFFCURVE",
"97 300 CURVE",
"108 300 LINE",
"108 430 OFFCURVE",
"197 512 OFFCURVE",
"303 512 CURVE"
);
}
);
};
layerId = "E8F6176F-ACE7-40AE-89CA-927034F2C45F";
name = "Bold Universal Display Aug 3 16, 20:06";
paths = (
{
closed = 1;
nodes = (
"256 538 OFFCURVE",
"200 477 OFFCURVE",
"186 392 CURVE",
"205 302 LINE",
"205 372 OFFCURVE",
"243 412 OFFCURVE",
"315 412 CURVE SMOOTH",
"380 412 OFFCURVE",
"424 367 OFFCURVE",
"424 265 CURVE SMOOTH",
"424 169 OFFCURVE",
"378 114 OFFCURVE",
"306 114 CURVE SMOOTH",
"240 114 OFFCURVE",
"205 156 OFFCURVE",
"205 236 CURVE",
"186 146 LINE",
"198 49 OFFCURVE",
"245 -12 OFFCURVE",
"344 -12 CURVE SMOOTH",
"485 -12 OFFCURVE",
"572 107 OFFCURVE",
"572 264 CURVE SMOOTH",
"572 434 OFFCURVE",
"487 538 OFFCURVE",
"359 538 CURVE SMOOTH"
);
},
{
closed = 1;
nodes = (
"65 525 LINE",
"65 -195 LINE",
"205 -195 LINE",
"205 525 LINE"
);
}
);
width = 612;
},
{
associatedMasterId = "062D78B0-B209-4D64-99AA-ACBF5D882D7F";
background = {
paths = (
{
closed = 1;
nodes = (
"90 515 LINE",
"90 -247 LINE",
"108 -247 LINE",
"108 515 LINE"
);
},
{
closed = 0;
nodes = (
"108 515 LINE",
"90 515 LINE"
);
},
{
closed = 1;
nodes = (
"413 512 OFFCURVE",
"496 427 OFFCURVE",
"496 257 CURVE SMOOTH",
"496 88 OFFCURVE",
"408 3 OFFCURVE",
"292 3 CURVE SMOOTH",
"192 3 OFFCURVE",
"108 81 OFFCURVE",
"108 206 CURVE",
"97 206 LINE",
"91 78 OFFCURVE",
"177 -15 OFFCURVE",
"292 -15 CURVE SMOOTH",
"420 -15 OFFCURVE",
"516 79 OFFCURVE",
"516 257 CURVE SMOOTH",
"516 436 OFFCURVE",
"425 530 OFFCURVE",
"303 530 CURVE",
"183 530 OFFCURVE",
"91 433 OFFCURVE",
"97 300 CURVE",
"108 300 LINE",
"108 430 OFFCURVE",
"197 512 OFFCURVE",
"303 512 CURVE"
);
}
);
};
layerId = "77E783B6-F811-452E-BF52-494E4E682C97";
name = "Bold Universal Display Aug 3 16, 20:06";
paths = (
{
closed = 1;
nodes = (
"256 538 OFFCURVE",
"200 477 OFFCURVE",
"186 392 CURVE",
"205 302 LINE",
"205 372 OFFCURVE",
"243 412 OFFCURVE",
"315 412 CURVE SMOOTH",
"380 412 OFFCURVE",
"424 367 OFFCURVE",
"424 265 CURVE SMOOTH",
"424 169 OFFCURVE",
"378 114 OFFCURVE",
"306 114 CURVE SMOOTH",
"240 114 OFFCURVE",
"205 156 OFFCURVE",
"205 236 CURVE",
"186 146 LINE",
"198 49 OFFCURVE",
"245 -12 OFFCURVE",
"344 -12 CURVE SMOOTH",
"485 -12 OFFCURVE",
"572 107 OFFCURVE",
"572 264 CURVE SMOOTH",
"572 434 OFFCURVE",
"487 538 OFFCURVE",
"359 538 CURVE SMOOTH"
);
},
{
closed = 1;
nodes = (
"65 525 LINE",
"65 -195 LINE",
"205 -195 LINE",
"205 525 LINE"
);
}
);
width = 612;
}
);
unicode = 0070;
},
{
color = 5;
glyphname = r;
lastChange = "2016-11-25 09:30:50 +0000";
layers = (
{
background = {
paths = (
{
closed = 1;
nodes = (
"213 0 LINE",
"213 525 LINE",
"73 525 LINE",
"73 0 LINE"
);
},
{
closed = 1;
nodes = (
"213 363 OFFCURVE",
"267 402 OFFCURVE",
"342 402 CURVE SMOOTH",
"365 402 OFFCURVE",
"385 400 OFFCURVE",
"400 397 CURVE",
"400 534 LINE",
"386 537 OFFCURVE",
"375 538 OFFCURVE",
"362 538 CURVE SMOOTH",
"257 538 OFFCURVE",
"212 455 OFFCURVE",
"202 354 CURVE",
"213 288 LINE"
);
}
);
};
layerId = "C76CAC8E-7AD6-478C-8F7E-02FEF6F1EA84";
paths = (
{
closed = 1;
nodes = (
"234 431 LINE",
"199 431 LINE",
"214 426 LINE",
"196 525 LINE",
"73 525 LINE",
"73 0 LINE",
"213 0 LINE",
"213 288 LINE SMOOTH",
"213 363 OFFCURVE",
"273 402 OFFCURVE",
"349 402 CURVE SMOOTH",
"371 402 OFFCURVE",
"390 400 OFFCURVE",
"406 397 CURVE",
"406 534 LINE",
"394 537 OFFCURVE",
"379 538 OFFCURVE",
"367 538 CURVE SMOOTH",
"263 538 OFFCURVE",
"212 455 OFFCURVE",
"202 354 CURVE"
);
}
);
width = 426;
}
);
leftMetricsKey = "=n";
unicode = 0072;
},
{
color = 5;
glyphname = s;
lastChange = "2016-11-25 09:30:50 +0000";
layers = (
{
associatedMasterId = "2F6174A6-5E34-4AB0-BBF3-B5DC3B823A34";
background = {
paths = (
{
closed = 1;
nodes = (
"195 339 OFFCURVE",
"184 358 OFFCURVE",
"184 380 CURVE SMOOTH",
"184 408 OFFCURVE",
"206 428 OFFCURVE",
"239 428 CURVE SMOOTH",
"279 428 OFFCURVE",
"298 402 OFFCURVE",
"301 364 CURVE",
"437 364 LINE",
"426 460 OFFCURVE",
"377 540 OFFCURVE",
"237 540 CURVE SMOOTH",
"122 540 OFFCURVE",
"47 474 OFFCURVE",
"47 375 CURVE SMOOTH",
"47 289 OFFCURVE",
"92 241 OFFCURVE",
"199 213 CURVE SMOOTH",
"260 196 LINE SMOOTH",
"290 188 OFFCURVE",
"302 171 OFFCURVE",
"302 148 CURVE SMOOTH",
"302 113 OFFCURVE",
"278 97 OFFCURVE",
"242 97 CURVE SMOOTH",
"202 97 OFFCURVE",
"176 120 OFFCURVE",
"171 160 CURVE",
"35 160 LINE",
"44 49 OFFCURVE",
"121 -15 OFFCURVE",
"240 -15 CURVE SMOOTH",
"354 -15 OFFCURVE",
"439 41 OFFCURVE",
"439 155 CURVE SMOOTH",
"439 241 OFFCURVE",
"387 287 OFFCURVE",
"279 316 CURVE SMOOTH",
"227 330 LINE SMOOTH"
);
}
);
};
layerId = "2117C87A-EE86-456B-BE80-E751A6C78C76";
name = "Bold Universal Display Jul 22 16, 13:02";
paths = (
{
closed = 1;
nodes = (
"196 334 OFFCURVE",
"185 355 OFFCURVE",
"185 378 CURVE SMOOTH",
"185 404 OFFCURVE",
"207 426 OFFCURVE",
"240 426 CURVE SMOOTH",
"281 426 OFFCURVE",
"301 398 OFFCURVE",
"302 357 CURVE",
"441 357 LINE",
"432 457 OFFCURVE",
"381 540 OFFCURVE",
"238 540 CURVE SMOOTH",
"116 540 OFFCURVE",
"41 474 OFFCURVE",
"41 375 CURVE SMOOTH",
"41 289 OFFCURVE",
"88 241 OFFCURVE",
"199 213 CURVE SMOOTH",
"260 196 LINE SMOOTH",
"290 188 OFFCURVE",
"302 171 OFFCURVE",
"302 148 CURVE SMOOTH",
"302 113 OFFCURVE",
"278 97 OFFCURVE",
"242 97 CURVE SMOOTH",
"202 97 OFFCURVE",
"176 123 OFFCURVE",
"171 163 CURVE",
"31 163 LINE",
"39 51 OFFCURVE",
"118 -15 OFFCURVE",
"240 -15 CURVE SMOOTH",
"356 -15 OFFCURVE",
"443 41 OFFCURVE",
"443 155 CURVE SMOOTH",
"443 238 OFFCURVE",
"389 281 OFFCURVE",
"279 311 CURVE SMOOTH",
"227 325 LINE SMOOTH"
);
}
);
width = 469;
},
{
associatedMasterId = "2F6174A6-5E34-4AB0-BBF3-B5DC3B823A34";
background = {
paths = (
{
closed = 1;
nodes = (
"200 335 OFFCURVE",
"184 349 OFFCURVE",
"184 377 CURVE SMOOTH",
"184 409 OFFCURVE",
"209 426 OFFCURVE",
"246 426 CURVE SMOOTH",
"296 426 OFFCURVE",
"315 398 OFFCURVE",
"317 357 CURVE",
"455 357 LINE",
"446 457 OFFCURVE",
"393 540 OFFCURVE",
"245 540 CURVE SMOOTH",
"119 540 OFFCURVE",
"41 474 OFFCURVE",
"41 375 CURVE SMOOTH",
"41 289 OFFCURVE",
"91 245 OFFCURVE",
"206 213 CURVE SMOOTH",
"266 196 LINE SMOOTH",
"302 187 OFFCURVE",
"315 172 OFFCURVE",
"315 147 CURVE SMOOTH",
"315 116 OFFCURVE",
"291 97 OFFCURVE",
"250 97 CURVE SMOOTH",
"199 97 OFFCURVE",
"175 123 OFFCURVE",
"171 163 CURVE",
"30 163 LINE",
"38 51 OFFCURVE",
"117 -15 OFFCURVE",
"245 -15 CURVE SMOOTH",
"363 -15 OFFCURVE",
"458 40 OFFCURVE",
"458 151 CURVE SMOOTH",
"458 239 OFFCURVE",
"399 280 OFFCURVE",
"297 308 CURVE SMOOTH",
"241 324 LINE SMOOTH"
);
}
);
};
layerId = "BA2D6560-29A0-4C88-924F-59A3E6BADC73";
name = "Bold Universal Display Jul 24 16, 19:32";
paths = (
{
closed = 1;
nodes = (
"200 335 OFFCURVE",
"184 349 OFFCURVE",
"184 377 CURVE SMOOTH",
"184 409 OFFCURVE",
"209 426 OFFCURVE",
"246 426 CURVE SMOOTH",
"296 426 OFFCURVE",
"315 398 OFFCURVE",
"317 357 CURVE",
"455 357 LINE",
"446 457 OFFCURVE",
"393 540 OFFCURVE",
"245 540 CURVE SMOOTH",
"119 540 OFFCURVE",
"41 474 OFFCURVE",
"41 375 CURVE SMOOTH",
"41 289 OFFCURVE",
"91 245 OFFCURVE",
"206 213 CURVE SMOOTH",
"266 196 LINE SMOOTH",
"302 187 OFFCURVE",
"315 172 OFFCURVE",
"315 147 CURVE SMOOTH",
"315 116 OFFCURVE",
"291 97 OFFCURVE",
"250 97 CURVE SMOOTH",
"199 97 OFFCURVE",
"175 123 OFFCURVE",
"171 163 CURVE",
"30 163 LINE",
"38 51 OFFCURVE",
"117 -15 OFFCURVE",
"245 -15 CURVE SMOOTH",
"363 -15 OFFCURVE",
"458 40 OFFCURVE",
"458 151 CURVE SMOOTH",
"458 239 OFFCURVE",
"399 280 OFFCURVE",
"297 308 CURVE SMOOTH",
"241 324 LINE SMOOTH"
);
}
);
width = 487;
},
{
associatedMasterId = "2F6174A6-5E34-4AB0-BBF3-B5DC3B823A34";
background = {
paths = (
{
closed = 1;
nodes = (
"110 300 OFFCURVE",
"79 334 OFFCURVE",
"80 393 CURVE SMOOTH",
"81 464 OFFCURVE",
"141 512 OFFCURVE",
"225 512 CURVE SMOOTH",
"301 512 OFFCURVE",
"353 479 OFFCURVE",
"373 405 CURVE SMOOTH",
"377 390 LINE",
"397 390 LINE",
"392 408 LINE SMOOTH",
"369 492 OFFCURVE",
"312 530 OFFCURVE",
"225 530 CURVE SMOOTH",
"130 530 OFFCURVE",
"60 474 OFFCURVE",
"60 393 CURVE SMOOTH",
"60 325 OFFCURVE",
"98 285 OFFCURVE",
"187 262 CURVE SMOOTH",
"262 243 LINE SMOOTH",
"333 225 OFFCURVE",
"378 199 OFFCURVE",
"378 127 CURVE SMOOTH",
"378 46 OFFCURVE",
"313 3 OFFCURVE",
"228 3 CURVE SMOOTH",
"154 3 OFFCURVE",
"83 34 OFFCURVE",
"62 127 CURVE",
"41 127 LINE",
"63 23 OFFCURVE",
"144 -15 OFFCURVE",
"228 -15 CURVE SMOOTH",
"319 -15 OFFCURVE",
"398 34 OFFCURVE",
"398 127 CURVE SMOOTH",
"398 205 OFFCURVE",
"346 241 OFFCURVE",
"265 261 CURVE SMOOTH",
"190 280 LINE SMOOTH"
);
}
);
};
guideLines = (
{
angle = -74.4759;
position = "{397, 390}";
}
);
layerId = "AF6A659A-DFCB-49A8-97DD-563ADDA79FC1";
name = "Universal Display Jul 28 16, 10:44";
paths = (
{
closed = 1;
nodes = (
"110 301 OFFCURVE",
"80 334 OFFCURVE",
"80 393 CURVE SMOOTH",
"80 464 OFFCURVE",
"141 512 OFFCURVE",
"225 512 CURVE SMOOTH",
"301 512 OFFCURVE",
"353 480 OFFCURVE",
"373 405 CURVE SMOOTH",
"377 390 LINE",
"397 390 LINE",
"392 408 LINE SMOOTH",
"368 494 OFFCURVE",
"311 530 OFFCURVE",
"225 530 CURVE SMOOTH",
"130 530 OFFCURVE",
"60 474 OFFCURVE",
"60 393 CURVE SMOOTH",
"60 325 OFFCURVE",
"98 286 OFFCURVE",
"187 262 CURVE SMOOTH",
"262 243 LINE SMOOTH",
"347 221 OFFCURVE",
"378 190 OFFCURVE",
"378 125 CURVE SMOOTH",
"378 50 OFFCURVE",
"317 3 OFFCURVE",
"228 3 CURVE SMOOTH",
"155 3 OFFCURVE",
"84 34 OFFCURVE",
"63 127 CURVE",
"42 127 LINE",
"64 23 OFFCURVE",
"145 -15 OFFCURVE",
"228 -15 CURVE SMOOTH",
"326 -15 OFFCURVE",
"398 40 OFFCURVE",
"398 125 CURVE SMOOTH",
"398 197 OFFCURVE",
"359 237 OFFCURVE",
"265 261 CURVE SMOOTH",
"190 280 LINE SMOOTH"
);
}
);
width = 438;
},
{
associatedMasterId = "2F6174A6-5E34-4AB0-BBF3-B5DC3B823A34";
background = {
paths = (
{
closed = 1;
nodes = (
"208 335 OFFCURVE",
"192 349 OFFCURVE",
"192 377 CURVE SMOOTH",
"192 409 OFFCURVE",
"218 427 OFFCURVE",
"255 427 CURVE SMOOTH",
"295 427 OFFCURVE",
"316 408 OFFCURVE",
"324 374 CURVE SMOOTH",
"328 357 LINE",
"466 357 LINE",
"461 382 LINE SMOOTH",
"441 487 OFFCURVE",
"370 540 OFFCURVE",
"253 540 CURVE SMOOTH",
"127 540 OFFCURVE",
"49 474 OFFCURVE",
"49 375 CURVE SMOOTH",
"49 289 OFFCURVE",
"99 245 OFFCURVE",
"214 213 CURVE SMOOTH",
"274 196 LINE SMOOTH",
"310 187 OFFCURVE",
"323 172 OFFCURVE",
"323 147 CURVE SMOOTH",
"323 116 OFFCURVE",
"299 97 OFFCURVE",
"258 97 CURVE SMOOTH",
"207 97 OFFCURVE",
"183 123 OFFCURVE",
"179 163 CURVE",
"38 163 LINE",
"46 51 OFFCURVE",
"125 -15 OFFCURVE",
"253 -15 CURVE SMOOTH",
"371 -15 OFFCURVE",
"466 40 OFFCURVE",
"466 151 CURVE SMOOTH",
"466 239 OFFCURVE",
"407 280 OFFCURVE",
"305 308 CURVE SMOOTH",
"249 324 LINE SMOOTH"
);
}
);
};
layerId = "9F945BE4-9614-48E0-B2CD-FEBB7380B97B";
name = "Bold Universal Display Aug 4 16, 17:12";
paths = (
{
closed = 1;
nodes = (
"207 336 OFFCURVE",
"191 350 OFFCURVE",
"191 377 CURVE SMOOTH",
"191 410 OFFCURVE",
"217 428 OFFCURVE",
"255 428 CURVE SMOOTH",
"295 428 OFFCURVE",
"316 409 OFFCURVE",
"324 374 CURVE SMOOTH",
"328 357 LINE",
"466 357 LINE",
"461 382 LINE SMOOTH",
"441 487 OFFCURVE",
"370 540 OFFCURVE",
"253 540 CURVE SMOOTH",
"128 540 OFFCURVE",
"50 474 OFFCURVE",
"50 375 CURVE SMOOTH",
"50 290 OFFCURVE",
"100 246 OFFCURVE",
"214 214 CURVE SMOOTH",
"274 197 LINE SMOOTH",
"311 188 OFFCURVE",
"324 173 OFFCURVE",
"324 147 CURVE SMOOTH",
"324 116 OFFCURVE",
"300 97 OFFCURVE",
"258 97 CURVE SMOOTH",
"207 97 OFFCURVE",
"183 123 OFFCURVE",
"179 163 CURVE",
"39 163 LINE",
"47 51 OFFCURVE",
"128 -15 OFFCURVE",
"253 -15 CURVE SMOOTH",
"370 -15 OFFCURVE",
"465 40 OFFCURVE",
"465 151 CURVE SMOOTH",
"465 240 OFFCURVE",
"406 281 OFFCURVE",
"305 309 CURVE SMOOTH",
"249 325 LINE SMOOTH"
);
}
);
width = 504;
},
{
associatedMasterId = "2F6174A6-5E34-4AB0-BBF3-B5DC3B823A34";
background = {
paths = (
{
closed = 1;
nodes = (
"110 300 OFFCURVE",
"80 334 OFFCURVE",
"80 393 CURVE SMOOTH",
"80 464 OFFCURVE",
"141 512 OFFCURVE",
"225 512 CURVE SMOOTH",
"301 512 OFFCURVE",
"353 480 OFFCURVE",
"373 405 CURVE SMOOTH",
"377 390 LINE",
"397 390 LINE",
"392 408 LINE SMOOTH",
"368 494 OFFCURVE",
"311 530 OFFCURVE",
"225 530 CURVE SMOOTH",
"130 530 OFFCURVE",
"60 474 OFFCURVE",
"60 393 CURVE SMOOTH",
"60 325 OFFCURVE",
"98 285 OFFCURVE",
"187 262 CURVE SMOOTH",
"262 243 LINE SMOOTH",
"347 221 OFFCURVE",
"378 190 OFFCURVE",
"378 125 CURVE SMOOTH",
"378 50 OFFCURVE",
"317 3 OFFCURVE",
"228 3 CURVE SMOOTH",
"155 3 OFFCURVE",
"84 34 OFFCURVE",
"63 127 CURVE",
"42 127 LINE",
"64 23 OFFCURVE",
"145 -15 OFFCURVE",
"228 -15 CURVE SMOOTH",
"326 -15 OFFCURVE",
"398 40 OFFCURVE",
"398 125 CURVE SMOOTH",
"398 197 OFFCURVE",
"359 237 OFFCURVE",
"265 261 CURVE SMOOTH",
"190 280 LINE SMOOTH"
);
}
);
};
guideLines = (
{
angle = -74.4759;
position = "{397, 390}";
}
);
layerId = "E9A4C234-0E7B-4C2C-88D7-EA248715B3C1";
name = "Universal Display Aug 4 16, 17:22";
paths = (
{
closed = 1;
nodes = (
"110 300 OFFCURVE",
"80 334 OFFCURVE",
"80 393 CURVE SMOOTH",
"80 464 OFFCURVE",
"141 512 OFFCURVE",
"225 512 CURVE SMOOTH",
"301 512 OFFCURVE",
"353 480 OFFCURVE",
"373 405 CURVE SMOOTH",
"377 390 LINE",
"397 390 LINE",
"392 408 LINE SMOOTH",
"368 494 OFFCURVE",
"311 530 OFFCURVE",
"225 530 CURVE SMOOTH",
"130 530 OFFCURVE",
"60 474 OFFCURVE",
"60 393 CURVE SMOOTH",
"60 325 OFFCURVE",
"98 285 OFFCURVE",
"187 262 CURVE SMOOTH",
"262 243 LINE SMOOTH",
"347 221 OFFCURVE",
"378 190 OFFCURVE",
"378 125 CURVE SMOOTH",
"378 50 OFFCURVE",
"317 3 OFFCURVE",
"228 3 CURVE SMOOTH",
"155 3 OFFCURVE",
"84 34 OFFCURVE",
"63 127 CURVE",
"42 127 LINE",
"64 23 OFFCURVE",
"145 -15 OFFCURVE",
"228 -15 CURVE SMOOTH",
"326 -15 OFFCURVE",
"398 40 OFFCURVE",
"398 125 CURVE SMOOTH",
"398 197 OFFCURVE",
"359 237 OFFCURVE",
"265 261 CURVE SMOOTH",
"190 280 LINE SMOOTH"
);
}
);
width = 438;
},
{
associatedMasterId = "2F6174A6-5E34-4AB0-BBF3-B5DC3B823A34";
background = {
paths = (
{
closed = 1;
nodes = (
"195 339 OFFCURVE",
"184 358 OFFCURVE",
"184 380 CURVE SMOOTH",
"184 408 OFFCURVE",
"206 428 OFFCURVE",
"239 428 CURVE SMOOTH",
"279 428 OFFCURVE",
"298 402 OFFCURVE",
"301 364 CURVE",
"437 364 LINE",
"426 460 OFFCURVE",
"377 540 OFFCURVE",
"237 540 CURVE SMOOTH",
"122 540 OFFCURVE",
"47 474 OFFCURVE",
"47 375 CURVE SMOOTH",
"47 289 OFFCURVE",
"92 241 OFFCURVE",
"199 213 CURVE SMOOTH",
"260 196 LINE SMOOTH",
"290 188 OFFCURVE",
"302 171 OFFCURVE",
"302 148 CURVE SMOOTH",
"302 113 OFFCURVE",
"278 97 OFFCURVE",
"242 97 CURVE SMOOTH",
"202 97 OFFCURVE",
"176 120 OFFCURVE",
"171 160 CURVE",
"35 160 LINE",
"44 49 OFFCURVE",
"121 -15 OFFCURVE",
"240 -15 CURVE SMOOTH",
"354 -15 OFFCURVE",
"439 41 OFFCURVE",
"439 155 CURVE SMOOTH",
"439 241 OFFCURVE",
"387 287 OFFCURVE",
"279 316 CURVE SMOOTH",
"227 330 LINE SMOOTH"
);
}
);
};
layerId = "4524BDE8-2C37-466F-A41D-B96DE0236581";
name = "Bold Universal Display Jul 22 16, 13:02";
paths = (
{
closed = 1;
nodes = (
"196 334 OFFCURVE",
"185 355 OFFCURVE",
"185 378 CURVE SMOOTH",
"185 404 OFFCURVE",
"207 426 OFFCURVE",
"240 426 CURVE SMOOTH",
"281 426 OFFCURVE",
"301 398 OFFCURVE",
"302 357 CURVE",
"441 357 LINE",
"432 457 OFFCURVE",
"381 540 OFFCURVE",
"238 540 CURVE SMOOTH",
"116 540 OFFCURVE",
"41 474 OFFCURVE",
"41 375 CURVE SMOOTH",
"41 289 OFFCURVE",
"88 241 OFFCURVE",
"199 213 CURVE SMOOTH",
"260 196 LINE SMOOTH",
"290 188 OFFCURVE",
"302 171 OFFCURVE",
"302 148 CURVE SMOOTH",
"302 113 OFFCURVE",
"278 97 OFFCURVE",
"242 97 CURVE SMOOTH",
"202 97 OFFCURVE",
"176 123 OFFCURVE",
"171 163 CURVE",
"31 163 LINE",
"39 51 OFFCURVE",
"118 -15 OFFCURVE",
"240 -15 CURVE SMOOTH",
"356 -15 OFFCURVE",
"443 41 OFFCURVE",
"443 155 CURVE SMOOTH",
"443 238 OFFCURVE",
"389 281 OFFCURVE",
"279 311 CURVE SMOOTH",
"227 325 LINE SMOOTH"
);
}
);
width = 469;
},
{
associatedMasterId = "2F6174A6-5E34-4AB0-BBF3-B5DC3B823A34";
background = {
paths = (
{
closed = 1;
nodes = (
"200 335 OFFCURVE",
"184 349 OFFCURVE",
"184 377 CURVE SMOOTH",
"184 409 OFFCURVE",
"209 426 OFFCURVE",
"246 426 CURVE SMOOTH",
"296 426 OFFCURVE",
"315 398 OFFCURVE",
"317 357 CURVE",
"455 357 LINE",
"446 457 OFFCURVE",
"393 540 OFFCURVE",
"245 540 CURVE SMOOTH",
"119 540 OFFCURVE",
"41 474 OFFCURVE",
"41 375 CURVE SMOOTH",
"41 289 OFFCURVE",
"91 245 OFFCURVE",
"206 213 CURVE SMOOTH",
"266 196 LINE SMOOTH",
"302 187 OFFCURVE",
"315 172 OFFCURVE",
"315 147 CURVE SMOOTH",
"315 116 OFFCURVE",
"291 97 OFFCURVE",
"250 97 CURVE SMOOTH",
"199 97 OFFCURVE",
"175 123 OFFCURVE",
"171 163 CURVE",
"30 163 LINE",
"38 51 OFFCURVE",
"117 -15 OFFCURVE",
"245 -15 CURVE SMOOTH",
"363 -15 OFFCURVE",
"458 40 OFFCURVE",
"458 151 CURVE SMOOTH",
"458 239 OFFCURVE",
"399 280 OFFCURVE",
"297 308 CURVE SMOOTH",
"241 324 LINE SMOOTH"
);
}
);
};
layerId = "98D7EC01-16D5-4287-8CF0-DB87B886E8D1";
name = "Bold Universal Display Jul 24 16, 19:32";
paths = (
{
closed = 1;
nodes = (
"200 335 OFFCURVE",
"184 349 OFFCURVE",
"184 377 CURVE SMOOTH",
"184 409 OFFCURVE",
"209 426 OFFCURVE",
"246 426 CURVE SMOOTH",
"296 426 OFFCURVE",
"315 398 OFFCURVE",
"317 357 CURVE",
"455 357 LINE",
"446 457 OFFCURVE",
"393 540 OFFCURVE",
"245 540 CURVE SMOOTH",
"119 540 OFFCURVE",
"41 474 OFFCURVE",
"41 375 CURVE SMOOTH",
"41 289 OFFCURVE",
"91 245 OFFCURVE",
"206 213 CURVE SMOOTH",
"266 196 LINE SMOOTH",
"302 187 OFFCURVE",
"315 172 OFFCURVE",
"315 147 CURVE SMOOTH",
"315 116 OFFCURVE",
"291 97 OFFCURVE",
"250 97 CURVE SMOOTH",
"199 97 OFFCURVE",
"175 123 OFFCURVE",
"171 163 CURVE",
"30 163 LINE",
"38 51 OFFCURVE",
"117 -15 OFFCURVE",
"245 -15 CURVE SMOOTH",
"363 -15 OFFCURVE",
"458 40 OFFCURVE",
"458 151 CURVE SMOOTH",
"458 239 OFFCURVE",
"399 280 OFFCURVE",
"297 308 CURVE SMOOTH",
"241 324 LINE SMOOTH"
);
}
);
width = 487;
},
{
associatedMasterId = "2F6174A6-5E34-4AB0-BBF3-B5DC3B823A34";
background = {
paths = (
{
closed = 1;
nodes = (
"208 335 OFFCURVE",
"192 349 OFFCURVE",
"192 377 CURVE SMOOTH",
"192 409 OFFCURVE",
"218 427 OFFCURVE",
"255 427 CURVE SMOOTH",
"295 427 OFFCURVE",
"316 408 OFFCURVE",
"324 374 CURVE SMOOTH",
"328 357 LINE",
"466 357 LINE",
"461 382 LINE SMOOTH",
"441 487 OFFCURVE",
"370 540 OFFCURVE",
"253 540 CURVE SMOOTH",
"127 540 OFFCURVE",
"49 474 OFFCURVE",
"49 375 CURVE SMOOTH",
"49 289 OFFCURVE",
"99 245 OFFCURVE",
"214 213 CURVE SMOOTH",
"274 196 LINE SMOOTH",
"310 187 OFFCURVE",
"323 172 OFFCURVE",
"323 147 CURVE SMOOTH",
"323 116 OFFCURVE",
"299 97 OFFCURVE",
"258 97 CURVE SMOOTH",
"207 97 OFFCURVE",
"183 123 OFFCURVE",
"179 163 CURVE",
"38 163 LINE",
"46 51 OFFCURVE",
"125 -15 OFFCURVE",
"253 -15 CURVE SMOOTH",
"371 -15 OFFCURVE",
"466 40 OFFCURVE",
"466 151 CURVE SMOOTH",
"466 239 OFFCURVE",
"407 280 OFFCURVE",
"305 308 CURVE SMOOTH",
"249 324 LINE SMOOTH"
);
}
);
};
layerId = "255928C6-CE5E-42EF-9AE6-1CBF3B9227AA";
name = "Bold Universal Display Aug 4 16, 17:12";
paths = (
{
closed = 1;
nodes = (
"207 336 OFFCURVE",
"191 350 OFFCURVE",
"191 377 CURVE SMOOTH",
"191 410 OFFCURVE",
"217 428 OFFCURVE",
"255 428 CURVE SMOOTH",
"295 428 OFFCURVE",
"316 409 OFFCURVE",
"324 374 CURVE SMOOTH",
"328 357 LINE",
"466 357 LINE",
"461 382 LINE SMOOTH",
"441 487 OFFCURVE",
"370 540 OFFCURVE",
"253 540 CURVE SMOOTH",
"128 540 OFFCURVE",
"50 474 OFFCURVE",
"50 375 CURVE SMOOTH",
"50 290 OFFCURVE",
"100 246 OFFCURVE",
"214 214 CURVE SMOOTH",
"274 197 LINE SMOOTH",
"311 188 OFFCURVE",
"324 173 OFFCURVE",
"324 147 CURVE SMOOTH",
"324 116 OFFCURVE",
"300 97 OFFCURVE",
"258 97 CURVE SMOOTH",
"207 97 OFFCURVE",
"183 123 OFFCURVE",
"179 163 CURVE",
"39 163 LINE",
"47 51 OFFCURVE",
"128 -15 OFFCURVE",
"253 -15 CURVE SMOOTH",
"370 -15 OFFCURVE",
"465 40 OFFCURVE",
"465 151 CURVE SMOOTH",
"465 240 OFFCURVE",
"406 281 OFFCURVE",
"305 309 CURVE SMOOTH",
"249 325 LINE SMOOTH"
);
}
);
width = 504;
},
{
associatedMasterId = "2F6174A6-5E34-4AB0-BBF3-B5DC3B823A34";
background = {
paths = (
{
closed = 1;
nodes = (
"110 300 OFFCURVE",
"79 334 OFFCURVE",
"80 393 CURVE SMOOTH",
"81 464 OFFCURVE",
"141 512 OFFCURVE",
"225 512 CURVE SMOOTH",
"301 512 OFFCURVE",
"353 479 OFFCURVE",
"373 405 CURVE SMOOTH",
"377 390 LINE",
"397 390 LINE",
"392 408 LINE SMOOTH",
"369 492 OFFCURVE",
"312 530 OFFCURVE",
"225 530 CURVE SMOOTH",
"130 530 OFFCURVE",
"60 474 OFFCURVE",
"60 393 CURVE SMOOTH",
"60 325 OFFCURVE",
"98 285 OFFCURVE",
"187 262 CURVE SMOOTH",
"262 243 LINE SMOOTH",
"333 225 OFFCURVE",
"378 199 OFFCURVE",
"378 127 CURVE SMOOTH",
"378 46 OFFCURVE",
"313 3 OFFCURVE",
"228 3 CURVE SMOOTH",
"154 3 OFFCURVE",
"83 34 OFFCURVE",
"62 127 CURVE",
"41 127 LINE",
"63 23 OFFCURVE",
"144 -15 OFFCURVE",
"228 -15 CURVE SMOOTH",
"319 -15 OFFCURVE",
"398 34 OFFCURVE",
"398 127 CURVE SMOOTH",
"398 205 OFFCURVE",
"346 241 OFFCURVE",
"265 261 CURVE SMOOTH",
"190 280 LINE SMOOTH"
);
}
);
};
guideLines = (
{
angle = -74.4759;
position = "{397, 390}";
}
);
layerId = "488317E3-845E-4C8D-BC22-DF5FEAF6DA3B";
name = "Universal Display Jul 28 16, 10:44";
paths = (
{
closed = 1;
nodes = (
"110 301 OFFCURVE",
"80 334 OFFCURVE",
"80 393 CURVE SMOOTH",
"80 464 OFFCURVE",
"141 512 OFFCURVE",
"225 512 CURVE SMOOTH",
"301 512 OFFCURVE",
"353 480 OFFCURVE",
"373 405 CURVE SMOOTH",
"377 390 LINE",
"397 390 LINE",
"392 408 LINE SMOOTH",
"368 494 OFFCURVE",
"311 530 OFFCURVE",
"225 530 CURVE SMOOTH",
"130 530 OFFCURVE",
"60 474 OFFCURVE",
"60 393 CURVE SMOOTH",
"60 325 OFFCURVE",
"98 286 OFFCURVE",
"187 262 CURVE SMOOTH",
"262 243 LINE SMOOTH",
"347 221 OFFCURVE",
"378 190 OFFCURVE",
"378 125 CURVE SMOOTH",
"378 50 OFFCURVE",
"317 3 OFFCURVE",
"228 3 CURVE SMOOTH",
"155 3 OFFCURVE",
"84 34 OFFCURVE",
"63 127 CURVE",
"42 127 LINE",
"64 23 OFFCURVE",
"145 -15 OFFCURVE",
"228 -15 CURVE SMOOTH",
"326 -15 OFFCURVE",
"398 40 OFFCURVE",
"398 125 CURVE SMOOTH",
"398 197 OFFCURVE",
"359 237 OFFCURVE",
"265 261 CURVE SMOOTH",
"190 280 LINE SMOOTH"
);
}
);
width = 438;
},
{
associatedMasterId = "2F6174A6-5E34-4AB0-BBF3-B5DC3B823A34";
background = {
paths = (
{
closed = 1;
nodes = (
"110 300 OFFCURVE",
"80 334 OFFCURVE",
"80 393 CURVE SMOOTH",
"80 464 OFFCURVE",
"141 512 OFFCURVE",
"225 512 CURVE SMOOTH",
"301 512 OFFCURVE",
"353 480 OFFCURVE",
"373 405 CURVE SMOOTH",
"377 390 LINE",
"397 390 LINE",
"392 408 LINE SMOOTH",
"368 494 OFFCURVE",
"311 530 OFFCURVE",
"225 530 CURVE SMOOTH",
"130 530 OFFCURVE",
"60 474 OFFCURVE",
"60 393 CURVE SMOOTH",
"60 325 OFFCURVE",
"98 285 OFFCURVE",
"187 262 CURVE SMOOTH",
"262 243 LINE SMOOTH",
"347 221 OFFCURVE",
"378 190 OFFCURVE",
"378 125 CURVE SMOOTH",
"378 50 OFFCURVE",
"317 3 OFFCURVE",
"228 3 CURVE SMOOTH",
"155 3 OFFCURVE",
"84 34 OFFCURVE",
"63 127 CURVE",
"42 127 LINE",
"64 23 OFFCURVE",
"145 -15 OFFCURVE",
"228 -15 CURVE SMOOTH",
"326 -15 OFFCURVE",
"398 40 OFFCURVE",
"398 125 CURVE SMOOTH",
"398 197 OFFCURVE",
"359 237 OFFCURVE",
"265 261 CURVE SMOOTH",
"190 280 LINE SMOOTH"
);
}
);
};
guideLines = (
{
angle = -74.4759;
position = "{397, 390}";
}
);
layerId = "46E1FAB5-6307-48BD-AE83-33AD3EACF029";
name = "Universal Display Aug 4 16, 17:22";
paths = (
{
closed = 1;
nodes = (
"110 300 OFFCURVE",
"80 334 OFFCURVE",
"80 393 CURVE SMOOTH",
"80 464 OFFCURVE",
"141 512 OFFCURVE",
"225 512 CURVE SMOOTH",
"301 512 OFFCURVE",
"353 480 OFFCURVE",
"373 405 CURVE SMOOTH",
"377 390 LINE",
"397 390 LINE",
"392 408 LINE SMOOTH",
"368 494 OFFCURVE",
"311 530 OFFCURVE",
"225 530 CURVE SMOOTH",
"130 530 OFFCURVE",
"60 474 OFFCURVE",
"60 393 CURVE SMOOTH",
"60 325 OFFCURVE",
"98 285 OFFCURVE",
"187 262 CURVE SMOOTH",
"262 243 LINE SMOOTH",
"347 221 OFFCURVE",
"378 190 OFFCURVE",
"378 125 CURVE SMOOTH",
"378 50 OFFCURVE",
"317 3 OFFCURVE",
"228 3 CURVE SMOOTH",
"155 3 OFFCURVE",
"84 34 OFFCURVE",
"63 127 CURVE",
"42 127 LINE",
"64 23 OFFCURVE",
"145 -15 OFFCURVE",
"228 -15 CURVE SMOOTH",
"326 -15 OFFCURVE",
"398 40 OFFCURVE",
"398 125 CURVE SMOOTH",
"398 197 OFFCURVE",
"359 237 OFFCURVE",
"265 261 CURVE SMOOTH",
"190 280 LINE SMOOTH"
);
}
);
width = 438;
},
{
associatedMasterId = "2F6174A6-5E34-4AB0-BBF3-B5DC3B823A34";
background = {
paths = (
{
closed = 1;
nodes = (
"311 189 OFFCURVE",
"328 176 OFFCURVE",
"328 148 CURVE SMOOTH",
"328 115 OFFCURVE",
"301 97 OFFCURVE",
"261 97 CURVE SMOOTH",
"219 97 OFFCURVE",
"201 117 OFFCURVE",
"191 151 CURVE SMOOTH",
"186 168 LINE",
"44 168 LINE",
"50 142 LINE SMOOTH",
"76 31 OFFCURVE",
"148 -15 OFFCURVE",
"263 -15 CURVE SMOOTH",
"392 -15 OFFCURVE",
"470 50 OFFCURVE",
"470 150 CURVE SMOOTH",
"470 236 OFFCURVE",
"419 279 OFFCURVE",
"303 312 CURVE SMOOTH",
"243 329 LINE SMOOTH",
"204 340 OFFCURVE",
"190 353 OFFCURVE",
"190 378 CURVE SMOOTH",
"190 409 OFFCURVE",
"215 428 OFFCURVE",
"259 428 CURVE SMOOTH",
"301 428 OFFCURVE",
"325 411 OFFCURVE",
"339 375 CURVE SMOOTH",
"344 362 LINE",
"488 362 LINE",
"481 385 LINE SMOOTH",
"452 479 OFFCURVE",
"382 540 OFFCURVE",
"262 540 CURVE SMOOTH",
"149 540 OFFCURVE",
"48 485 OFFCURVE",
"48 374 CURVE SMOOTH",
"48 286 OFFCURVE",
"108 247 OFFCURVE",
"212 217 CURVE SMOOTH",
"268 201 LINE SMOOTH"
);
}
);
};
guideLines = (
{
angle = 270;
position = "{478, 293}";
},
{
angle = -70.3462;
position = "{183, 163}";
},
{
angle = 104.0362;
position = "{39, 163}";
}
);
layerId = "3B507AE5-07A9-4FBD-A452-195402E39508";
name = "Text Oct 5 16, 11:55";
paths = (
{
closed = 1;
nodes = (
"216 335 OFFCURVE",
"199 349 OFFCURVE",
"199 377 CURVE SMOOTH",
"199 410 OFFCURVE",
"226 428 OFFCURVE",
"266 428 CURVE SMOOTH",
"308 428 OFFCURVE",
"326 408 OFFCURVE",
"336 374 CURVE SMOOTH",
"341 357 LINE",
"483 357 LINE",
"477 383 LINE SMOOTH",
"451 494 OFFCURVE",
"379 540 OFFCURVE",
"264 540 CURVE SMOOTH",
"135 540 OFFCURVE",
"57 475 OFFCURVE",
"57 375 CURVE SMOOTH",
"57 289 OFFCURVE",
"108 245 OFFCURVE",
"224 213 CURVE SMOOTH",
"284 196 LINE SMOOTH",
"323 187 OFFCURVE",
"337 172 OFFCURVE",
"337 147 CURVE SMOOTH",
"337 116 OFFCURVE",
"312 97 OFFCURVE",
"269 97 CURVE SMOOTH",
"224 97 OFFCURVE",
"202 110 OFFCURVE",
"188 149 CURVE SMOOTH",
"183 163 LINE",
"39 163 LINE",
"45 139 LINE SMOOTH",
"70 39 OFFCURVE",
"144 -15 OFFCURVE",
"265 -15 CURVE SMOOTH",
"378 -15 OFFCURVE",
"479 40 OFFCURVE",
"479 151 CURVE SMOOTH",
"479 239 OFFCURVE",
"419 280 OFFCURVE",
"315 308 CURVE SMOOTH",
"259 324 LINE SMOOTH"
);
}
);
width = 520;
},
{
associatedMasterId = "C76CAC8E-7AD6-478C-8F7E-02FEF6F1EA84";
background = {
paths = (
{
closed = 1;
nodes = (
"195 339 OFFCURVE",
"184 358 OFFCURVE",
"184 380 CURVE SMOOTH",
"184 408 OFFCURVE",
"206 428 OFFCURVE",
"239 428 CURVE SMOOTH",
"279 428 OFFCURVE",
"298 402 OFFCURVE",
"301 364 CURVE",
"437 364 LINE",
"426 460 OFFCURVE",
"377 540 OFFCURVE",
"237 540 CURVE SMOOTH",
"122 540 OFFCURVE",
"47 474 OFFCURVE",
"47 375 CURVE SMOOTH",
"47 289 OFFCURVE",
"92 241 OFFCURVE",
"199 213 CURVE SMOOTH",
"260 196 LINE SMOOTH",
"290 188 OFFCURVE",
"302 171 OFFCURVE",
"302 148 CURVE SMOOTH",
"302 113 OFFCURVE",
"278 97 OFFCURVE",
"242 97 CURVE SMOOTH",
"202 97 OFFCURVE",
"176 120 OFFCURVE",
"171 160 CURVE",
"35 160 LINE",
"44 49 OFFCURVE",
"121 -15 OFFCURVE",
"240 -15 CURVE SMOOTH",
"354 -15 OFFCURVE",
"439 41 OFFCURVE",
"439 155 CURVE SMOOTH",
"439 241 OFFCURVE",
"387 287 OFFCURVE",
"279 316 CURVE SMOOTH",
"227 330 LINE SMOOTH"
);
}
);
};
layerId = "3AED00A7-2080-44B9-8C67-1FC3455B5B68";
name = "Bold Universal Display Jul 22 16, 13:02";
paths = (
{
closed = 1;
nodes = (
"196 334 OFFCURVE",
"185 355 OFFCURVE",
"185 378 CURVE SMOOTH",
"185 404 OFFCURVE",
"207 426 OFFCURVE",
"240 426 CURVE SMOOTH",
"281 426 OFFCURVE",
"301 398 OFFCURVE",
"302 357 CURVE",
"441 357 LINE",
"432 457 OFFCURVE",
"381 540 OFFCURVE",
"238 540 CURVE SMOOTH",
"116 540 OFFCURVE",
"41 474 OFFCURVE",
"41 375 CURVE SMOOTH",
"41 289 OFFCURVE",
"88 241 OFFCURVE",
"199 213 CURVE SMOOTH",
"260 196 LINE SMOOTH",
"290 188 OFFCURVE",
"302 171 OFFCURVE",
"302 148 CURVE SMOOTH",
"302 113 OFFCURVE",
"278 97 OFFCURVE",
"242 97 CURVE SMOOTH",
"202 97 OFFCURVE",
"176 123 OFFCURVE",
"171 163 CURVE",
"31 163 LINE",
"39 51 OFFCURVE",
"118 -15 OFFCURVE",
"240 -15 CURVE SMOOTH",
"356 -15 OFFCURVE",
"443 41 OFFCURVE",
"443 155 CURVE SMOOTH",
"443 238 OFFCURVE",
"389 281 OFFCURVE",
"279 311 CURVE SMOOTH",
"227 325 LINE SMOOTH"
);
}
);
width = 469;
},
{
associatedMasterId = "C76CAC8E-7AD6-478C-8F7E-02FEF6F1EA84";
background = {
paths = (
{
closed = 1;
nodes = (
"200 335 OFFCURVE",
"184 349 OFFCURVE",
"184 377 CURVE SMOOTH",
"184 409 OFFCURVE",
"209 426 OFFCURVE",
"246 426 CURVE SMOOTH",
"296 426 OFFCURVE",
"315 398 OFFCURVE",
"317 357 CURVE",
"455 357 LINE",
"446 457 OFFCURVE",
"393 540 OFFCURVE",
"245 540 CURVE SMOOTH",
"119 540 OFFCURVE",
"41 474 OFFCURVE",
"41 375 CURVE SMOOTH",
"41 289 OFFCURVE",
"91 245 OFFCURVE",
"206 213 CURVE SMOOTH",
"266 196 LINE SMOOTH",
"302 187 OFFCURVE",
"315 172 OFFCURVE",
"315 147 CURVE SMOOTH",
"315 116 OFFCURVE",
"291 97 OFFCURVE",
"250 97 CURVE SMOOTH",
"199 97 OFFCURVE",
"175 123 OFFCURVE",
"171 163 CURVE",
"30 163 LINE",
"38 51 OFFCURVE",
"117 -15 OFFCURVE",
"245 -15 CURVE SMOOTH",
"363 -15 OFFCURVE",
"458 40 OFFCURVE",
"458 151 CURVE SMOOTH",
"458 239 OFFCURVE",
"399 280 OFFCURVE",
"297 308 CURVE SMOOTH",
"241 324 LINE SMOOTH"
);
}
);
};
layerId = "9A4D6FF2-E00A-4971-843D-5C9E2203B2D2";
name = "Bold Universal Display Jul 24 16, 19:32";
paths = (
{
closed = 1;
nodes = (
"200 335 OFFCURVE",
"184 349 OFFCURVE",
"184 377 CURVE SMOOTH",
"184 409 OFFCURVE",
"209 426 OFFCURVE",
"246 426 CURVE SMOOTH",
"296 426 OFFCURVE",
"315 398 OFFCURVE",
"317 357 CURVE",
"455 357 LINE",
"446 457 OFFCURVE",
"393 540 OFFCURVE",
"245 540 CURVE SMOOTH",
"119 540 OFFCURVE",
"41 474 OFFCURVE",
"41 375 CURVE SMOOTH",
"41 289 OFFCURVE",
"91 245 OFFCURVE",
"206 213 CURVE SMOOTH",
"266 196 LINE SMOOTH",
"302 187 OFFCURVE",
"315 172 OFFCURVE",
"315 147 CURVE SMOOTH",
"315 116 OFFCURVE",
"291 97 OFFCURVE",
"250 97 CURVE SMOOTH",
"199 97 OFFCURVE",
"175 123 OFFCURVE",
"171 163 CURVE",
"30 163 LINE",
"38 51 OFFCURVE",
"117 -15 OFFCURVE",
"245 -15 CURVE SMOOTH",
"363 -15 OFFCURVE",
"458 40 OFFCURVE",
"458 151 CURVE SMOOTH",
"458 239 OFFCURVE",
"399 280 OFFCURVE",
"297 308 CURVE SMOOTH",
"241 324 LINE SMOOTH"
);
}
);
width = 487;
},
{
associatedMasterId = "C76CAC8E-7AD6-478C-8F7E-02FEF6F1EA84";
background = {
paths = (
{
closed = 1;
nodes = (
"110 300 OFFCURVE",
"79 334 OFFCURVE",
"80 393 CURVE SMOOTH",
"81 464 OFFCURVE",
"141 512 OFFCURVE",
"225 512 CURVE SMOOTH",
"301 512 OFFCURVE",
"353 479 OFFCURVE",
"373 405 CURVE SMOOTH",
"377 390 LINE",
"397 390 LINE",
"392 408 LINE SMOOTH",
"369 492 OFFCURVE",
"312 530 OFFCURVE",
"225 530 CURVE SMOOTH",
"130 530 OFFCURVE",
"60 474 OFFCURVE",
"60 393 CURVE SMOOTH",
"60 325 OFFCURVE",
"98 285 OFFCURVE",
"187 262 CURVE SMOOTH",
"262 243 LINE SMOOTH",
"333 225 OFFCURVE",
"378 199 OFFCURVE",
"378 127 CURVE SMOOTH",
"378 46 OFFCURVE",
"313 3 OFFCURVE",
"228 3 CURVE SMOOTH",
"154 3 OFFCURVE",
"83 34 OFFCURVE",
"62 127 CURVE",
"41 127 LINE",
"63 23 OFFCURVE",
"144 -15 OFFCURVE",
"228 -15 CURVE SMOOTH",
"319 -15 OFFCURVE",
"398 34 OFFCURVE",
"398 127 CURVE SMOOTH",
"398 205 OFFCURVE",
"346 241 OFFCURVE",
"265 261 CURVE SMOOTH",
"190 280 LINE SMOOTH"
);
}
);
};
guideLines = (
{
angle = -74.4759;
position = "{397, 390}";
}
);
layerId = "13C9C58E-8264-4216-AD15-0F6E7E99993F";
name = "Universal Display Jul 28 16, 10:44";
paths = (
{
closed = 1;
nodes = (
"110 301 OFFCURVE",
"80 334 OFFCURVE",
"80 393 CURVE SMOOTH",
"80 464 OFFCURVE",
"141 512 OFFCURVE",
"225 512 CURVE SMOOTH",
"301 512 OFFCURVE",
"353 480 OFFCURVE",
"373 405 CURVE SMOOTH",
"377 390 LINE",
"397 390 LINE",
"392 408 LINE SMOOTH",
"368 494 OFFCURVE",
"311 530 OFFCURVE",
"225 530 CURVE SMOOTH",
"130 530 OFFCURVE",
"60 474 OFFCURVE",
"60 393 CURVE SMOOTH",
"60 325 OFFCURVE",
"98 286 OFFCURVE",
"187 262 CURVE SMOOTH",
"262 243 LINE SMOOTH",
"347 221 OFFCURVE",
"378 190 OFFCURVE",
"378 125 CURVE SMOOTH",
"378 50 OFFCURVE",
"317 3 OFFCURVE",
"228 3 CURVE SMOOTH",
"155 3 OFFCURVE",
"84 34 OFFCURVE",
"63 127 CURVE",
"42 127 LINE",
"64 23 OFFCURVE",
"145 -15 OFFCURVE",
"228 -15 CURVE SMOOTH",
"326 -15 OFFCURVE",
"398 40 OFFCURVE",
"398 125 CURVE SMOOTH",
"398 197 OFFCURVE",
"359 237 OFFCURVE",
"265 261 CURVE SMOOTH",
"190 280 LINE SMOOTH"
);
}
);
width = 438;
},
{
associatedMasterId = "C76CAC8E-7AD6-478C-8F7E-02FEF6F1EA84";
background = {
paths = (
{
closed = 1;
nodes = (
"208 335 OFFCURVE",
"192 349 OFFCURVE",
"192 377 CURVE SMOOTH",
"192 409 OFFCURVE",
"218 427 OFFCURVE",
"255 427 CURVE SMOOTH",
"295 427 OFFCURVE",
"316 408 OFFCURVE",
"324 374 CURVE SMOOTH",
"328 357 LINE",
"466 357 LINE",
"461 382 LINE SMOOTH",
"441 487 OFFCURVE",
"370 540 OFFCURVE",
"253 540 CURVE SMOOTH",
"127 540 OFFCURVE",
"49 474 OFFCURVE",
"49 375 CURVE SMOOTH",
"49 289 OFFCURVE",
"99 245 OFFCURVE",
"214 213 CURVE SMOOTH",
"274 196 LINE SMOOTH",
"310 187 OFFCURVE",
"323 172 OFFCURVE",
"323 147 CURVE SMOOTH",
"323 116 OFFCURVE",
"299 97 OFFCURVE",
"258 97 CURVE SMOOTH",
"207 97 OFFCURVE",
"183 123 OFFCURVE",
"179 163 CURVE",
"38 163 LINE",
"46 51 OFFCURVE",
"125 -15 OFFCURVE",
"253 -15 CURVE SMOOTH",
"371 -15 OFFCURVE",
"466 40 OFFCURVE",
"466 151 CURVE SMOOTH",
"466 239 OFFCURVE",
"407 280 OFFCURVE",
"305 308 CURVE SMOOTH",
"249 324 LINE SMOOTH"
);
}
);
};
layerId = "10F377D6-9EE9-4A2A-8C8C-3E3E38C08C57";
name = "Bold Universal Display Aug 4 16, 17:12";
paths = (
{
closed = 1;
nodes = (
"207 336 OFFCURVE",
"191 350 OFFCURVE",
"191 377 CURVE SMOOTH",
"191 410 OFFCURVE",
"217 428 OFFCURVE",
"255 428 CURVE SMOOTH",
"295 428 OFFCURVE",
"316 409 OFFCURVE",
"324 374 CURVE SMOOTH",
"328 357 LINE",
"466 357 LINE",
"461 382 LINE SMOOTH",
"441 487 OFFCURVE",
"370 540 OFFCURVE",
"253 540 CURVE SMOOTH",
"128 540 OFFCURVE",
"50 474 OFFCURVE",
"50 375 CURVE SMOOTH",
"50 290 OFFCURVE",
"100 246 OFFCURVE",
"214 214 CURVE SMOOTH",
"274 197 LINE SMOOTH",
"311 188 OFFCURVE",
"324 173 OFFCURVE",
"324 147 CURVE SMOOTH",
"324 116 OFFCURVE",
"300 97 OFFCURVE",
"258 97 CURVE SMOOTH",
"207 97 OFFCURVE",
"183 123 OFFCURVE",
"179 163 CURVE",
"39 163 LINE",
"47 51 OFFCURVE",
"128 -15 OFFCURVE",
"253 -15 CURVE SMOOTH",
"370 -15 OFFCURVE",
"465 40 OFFCURVE",
"465 151 CURVE SMOOTH",
"465 240 OFFCURVE",
"406 281 OFFCURVE",
"305 309 CURVE SMOOTH",
"249 325 LINE SMOOTH"
);
}
);
width = 504;
},
{
associatedMasterId = "C76CAC8E-7AD6-478C-8F7E-02FEF6F1EA84";
background = {
paths = (
{
closed = 1;
nodes = (
"110 300 OFFCURVE",
"80 334 OFFCURVE",
"80 393 CURVE SMOOTH",
"80 464 OFFCURVE",
"141 512 OFFCURVE",
"225 512 CURVE SMOOTH",
"301 512 OFFCURVE",
"353 480 OFFCURVE",
"373 405 CURVE SMOOTH",
"377 390 LINE",
"397 390 LINE",
"392 408 LINE SMOOTH",
"368 494 OFFCURVE",
"311 530 OFFCURVE",
"225 530 CURVE SMOOTH",
"130 530 OFFCURVE",
"60 474 OFFCURVE",
"60 393 CURVE SMOOTH",
"60 325 OFFCURVE",
"98 285 OFFCURVE",
"187 262 CURVE SMOOTH",
"262 243 LINE SMOOTH",
"347 221 OFFCURVE",
"378 190 OFFCURVE",
"378 125 CURVE SMOOTH",
"378 50 OFFCURVE",
"317 3 OFFCURVE",
"228 3 CURVE SMOOTH",
"155 3 OFFCURVE",
"84 34 OFFCURVE",
"63 127 CURVE",
"42 127 LINE",
"64 23 OFFCURVE",
"145 -15 OFFCURVE",
"228 -15 CURVE SMOOTH",
"326 -15 OFFCURVE",
"398 40 OFFCURVE",
"398 125 CURVE SMOOTH",
"398 197 OFFCURVE",
"359 237 OFFCURVE",
"265 261 CURVE SMOOTH",
"190 280 LINE SMOOTH"
);
}
);
};
guideLines = (
{
angle = -74.4759;
position = "{397, 390}";
}
);
layerId = "7CB6CCA2-C271-4F09-A751-4B06080E71CF";
name = "Universal Display Aug 4 16, 17:22";
paths = (
{
closed = 1;
nodes = (
"110 300 OFFCURVE",
"80 334 OFFCURVE",
"80 393 CURVE SMOOTH",
"80 464 OFFCURVE",
"141 512 OFFCURVE",
"225 512 CURVE SMOOTH",
"301 512 OFFCURVE",
"353 480 OFFCURVE",
"373 405 CURVE SMOOTH",
"377 390 LINE",
"397 390 LINE",
"392 408 LINE SMOOTH",
"368 494 OFFCURVE",
"311 530 OFFCURVE",
"225 530 CURVE SMOOTH",
"130 530 OFFCURVE",
"60 474 OFFCURVE",
"60 393 CURVE SMOOTH",
"60 325 OFFCURVE",
"98 285 OFFCURVE",
"187 262 CURVE SMOOTH",
"262 243 LINE SMOOTH",
"347 221 OFFCURVE",
"378 190 OFFCURVE",
"378 125 CURVE SMOOTH",
"378 50 OFFCURVE",
"317 3 OFFCURVE",
"228 3 CURVE SMOOTH",
"155 3 OFFCURVE",
"84 34 OFFCURVE",
"63 127 CURVE",
"42 127 LINE",
"64 23 OFFCURVE",
"145 -15 OFFCURVE",
"228 -15 CURVE SMOOTH",
"326 -15 OFFCURVE",
"398 40 OFFCURVE",
"398 125 CURVE SMOOTH",
"398 197 OFFCURVE",
"359 237 OFFCURVE",
"265 261 CURVE SMOOTH",
"190 280 LINE SMOOTH"
);
}
);
width = 438;
},
{
background = {
paths = (
{
closed = 1;
nodes = (
"398 -13 OFFCURVE",
"493 41 OFFCURVE",
"493 155 CURVE SMOOTH",
"493 244 OFFCURVE",
"447 287 OFFCURVE",
"345 305 CURVE SMOOTH",
"254 322 LINE SMOOTH",
"203 331 OFFCURVE",
"185 347 OFFCURVE",
"185 379 CURVE SMOOTH",
"185 417 OFFCURVE",
"213 436 OFFCURVE",
"266 436 CURVE SMOOTH",
"316 436 OFFCURVE",
"338 420 OFFCURVE",
"344 384 CURVE SMOOTH",
"346 373 LINE",
"487 373 LINE",
"484 395 LINE SMOOTH",
"469 493 OFFCURVE",
"400 540 OFFCURVE",
"264 540 CURVE SMOOTH",
"130 540 OFFCURVE",
"48 482 OFFCURVE",
"48 374 CURVE SMOOTH",
"48 283 OFFCURVE",
"104 238 OFFCURVE",
"198 220 CURVE SMOOTH",
"288 203 LINE SMOOTH",
"338 194 OFFCURVE",
"356 178 OFFCURVE",
"356 149 CURVE SMOOTH",
"356 111 OFFCURVE",
"330 91 OFFCURVE",
"274 91 CURVE SMOOTH",
"219 91 OFFCURVE",
"189 105 OFFCURVE",
"181 147 CURVE SMOOTH",
"179 157 LINE",
"37 157 LINE",
"39 140 LINE SMOOTH",
"52 31 OFFCURVE",
"140 -13 OFFCURVE",
"271 -13 CURVE SMOOTH"
);
}
);
};
guideLines = (
{
angle = 270;
position = "{478, 293}";
},
{
angle = -70.3462;
position = "{183, 163}";
},
{
angle = 104.0362;
position = "{39, 163}";
}
);
layerId = "C76CAC8E-7AD6-478C-8F7E-02FEF6F1EA84";
paths = (
{
closed = 1;
nodes = (
"399 -13 OFFCURVE",
"494 41 OFFCURVE",
"494 155 CURVE SMOOTH",
"494 244 OFFCURVE",
"448 287 OFFCURVE",
"345 305 CURVE SMOOTH",
"254 322 LINE SMOOTH",
"204 331 OFFCURVE",
"186 347 OFFCURVE",
"186 379 CURVE SMOOTH",
"186 416 OFFCURVE",
"214 435 OFFCURVE",
"266 435 CURVE SMOOTH",
"316 435 OFFCURVE",
"338 419 OFFCURVE",
"344 384 CURVE SMOOTH",
"346 373 LINE",
"487 373 LINE",
"484 395 LINE SMOOTH",
"469 493 OFFCURVE",
"400 540 OFFCURVE",
"264 540 CURVE SMOOTH",
"130 540 OFFCURVE",
"48 482 OFFCURVE",
"48 374 CURVE SMOOTH",
"48 283 OFFCURVE",
"104 238 OFFCURVE",
"198 220 CURVE SMOOTH",
"288 203 LINE SMOOTH",
"337 194 OFFCURVE",
"355 178 OFFCURVE",
"355 149 CURVE SMOOTH",
"355 112 OFFCURVE",
"329 92 OFFCURVE",
"274 92 CURVE SMOOTH",
"219 92 OFFCURVE",
"189 106 OFFCURVE",
"181 147 CURVE SMOOTH",
"179 157 LINE",
"37 157 LINE",
"39 140 LINE SMOOTH",
"52 31 OFFCURVE",
"140 -13 OFFCURVE",
"271 -13 CURVE SMOOTH"
);
}
);
width = 532;
},
{
associatedMasterId = "C76CAC8E-7AD6-478C-8F7E-02FEF6F1EA84";
background = {
paths = (
{
closed = 1;
nodes = (
"195 339 OFFCURVE",
"184 358 OFFCURVE",
"184 380 CURVE SMOOTH",
"184 408 OFFCURVE",
"206 428 OFFCURVE",
"239 428 CURVE SMOOTH",
"279 428 OFFCURVE",
"298 402 OFFCURVE",
"301 364 CURVE",
"437 364 LINE",
"426 460 OFFCURVE",
"377 540 OFFCURVE",
"237 540 CURVE SMOOTH",
"122 540 OFFCURVE",
"47 474 OFFCURVE",
"47 375 CURVE SMOOTH",
"47 289 OFFCURVE",
"92 241 OFFCURVE",
"199 213 CURVE SMOOTH",
"260 196 LINE SMOOTH",
"290 188 OFFCURVE",
"302 171 OFFCURVE",
"302 148 CURVE SMOOTH",
"302 113 OFFCURVE",
"278 97 OFFCURVE",
"242 97 CURVE SMOOTH",
"202 97 OFFCURVE",
"176 120 OFFCURVE",
"171 160 CURVE",
"35 160 LINE",
"44 49 OFFCURVE",
"121 -15 OFFCURVE",
"240 -15 CURVE SMOOTH",
"354 -15 OFFCURVE",
"439 41 OFFCURVE",
"439 155 CURVE SMOOTH",
"439 241 OFFCURVE",
"387 287 OFFCURVE",
"279 316 CURVE SMOOTH",
"227 330 LINE SMOOTH"
);
}
);
};
layerId = "EBD3216B-8492-4091-AF9F-D81DEB32FA4F";
name = "Bold Universal Display Jul 22 16, 13:02";
paths = (
{
closed = 1;
nodes = (
"196 334 OFFCURVE",
"185 355 OFFCURVE",
"185 378 CURVE SMOOTH",
"185 404 OFFCURVE",
"207 426 OFFCURVE",
"240 426 CURVE SMOOTH",
"281 426 OFFCURVE",
"301 398 OFFCURVE",
"302 357 CURVE",
"441 357 LINE",
"432 457 OFFCURVE",
"381 540 OFFCURVE",
"238 540 CURVE SMOOTH",
"116 540 OFFCURVE",
"41 474 OFFCURVE",
"41 375 CURVE SMOOTH",
"41 289 OFFCURVE",
"88 241 OFFCURVE",
"199 213 CURVE SMOOTH",
"260 196 LINE SMOOTH",
"290 188 OFFCURVE",
"302 171 OFFCURVE",
"302 148 CURVE SMOOTH",
"302 113 OFFCURVE",
"278 97 OFFCURVE",
"242 97 CURVE SMOOTH",
"202 97 OFFCURVE",
"176 123 OFFCURVE",
"171 163 CURVE",
"31 163 LINE",
"39 51 OFFCURVE",
"118 -15 OFFCURVE",
"240 -15 CURVE SMOOTH",
"356 -15 OFFCURVE",
"443 41 OFFCURVE",
"443 155 CURVE SMOOTH",
"443 238 OFFCURVE",
"389 281 OFFCURVE",
"279 311 CURVE SMOOTH",
"227 325 LINE SMOOTH"
);
}
);
width = 469;
},
{
associatedMasterId = "C76CAC8E-7AD6-478C-8F7E-02FEF6F1EA84";
background = {
paths = (
{
closed = 1;
nodes = (
"200 335 OFFCURVE",
"184 349 OFFCURVE",
"184 377 CURVE SMOOTH",
"184 409 OFFCURVE",
"209 426 OFFCURVE",
"246 426 CURVE SMOOTH",
"296 426 OFFCURVE",
"315 398 OFFCURVE",
"317 357 CURVE",
"455 357 LINE",
"446 457 OFFCURVE",
"393 540 OFFCURVE",
"245 540 CURVE SMOOTH",
"119 540 OFFCURVE",
"41 474 OFFCURVE",
"41 375 CURVE SMOOTH",
"41 289 OFFCURVE",
"91 245 OFFCURVE",
"206 213 CURVE SMOOTH",
"266 196 LINE SMOOTH",
"302 187 OFFCURVE",
"315 172 OFFCURVE",
"315 147 CURVE SMOOTH",
"315 116 OFFCURVE",
"291 97 OFFCURVE",
"250 97 CURVE SMOOTH",
"199 97 OFFCURVE",
"175 123 OFFCURVE",
"171 163 CURVE",
"30 163 LINE",
"38 51 OFFCURVE",
"117 -15 OFFCURVE",
"245 -15 CURVE SMOOTH",
"363 -15 OFFCURVE",
"458 40 OFFCURVE",
"458 151 CURVE SMOOTH",
"458 239 OFFCURVE",
"399 280 OFFCURVE",
"297 308 CURVE SMOOTH",
"241 324 LINE SMOOTH"
);
}
);
};
layerId = "4CED0ED8-3787-45B0-A0BE-DBABC913C956";
name = "Bold Universal Display Jul 24 16, 19:32";
paths = (
{
closed = 1;
nodes = (
"200 335 OFFCURVE",
"184 349 OFFCURVE",
"184 377 CURVE SMOOTH",
"184 409 OFFCURVE",
"209 426 OFFCURVE",
"246 426 CURVE SMOOTH",
"296 426 OFFCURVE",
"315 398 OFFCURVE",
"317 357 CURVE",
"455 357 LINE",
"446 457 OFFCURVE",
"393 540 OFFCURVE",
"245 540 CURVE SMOOTH",
"119 540 OFFCURVE",
"41 474 OFFCURVE",
"41 375 CURVE SMOOTH",
"41 289 OFFCURVE",
"91 245 OFFCURVE",
"206 213 CURVE SMOOTH",
"266 196 LINE SMOOTH",
"302 187 OFFCURVE",
"315 172 OFFCURVE",
"315 147 CURVE SMOOTH",
"315 116 OFFCURVE",
"291 97 OFFCURVE",
"250 97 CURVE SMOOTH",
"199 97 OFFCURVE",
"175 123 OFFCURVE",
"171 163 CURVE",
"30 163 LINE",
"38 51 OFFCURVE",
"117 -15 OFFCURVE",
"245 -15 CURVE SMOOTH",
"363 -15 OFFCURVE",
"458 40 OFFCURVE",
"458 151 CURVE SMOOTH",
"458 239 OFFCURVE",
"399 280 OFFCURVE",
"297 308 CURVE SMOOTH",
"241 324 LINE SMOOTH"
);
}
);
width = 487;
},
{
associatedMasterId = "C76CAC8E-7AD6-478C-8F7E-02FEF6F1EA84";
background = {
paths = (
{
closed = 1;
nodes = (
"208 335 OFFCURVE",
"192 349 OFFCURVE",
"192 377 CURVE SMOOTH",
"192 409 OFFCURVE",
"218 427 OFFCURVE",
"255 427 CURVE SMOOTH",
"295 427 OFFCURVE",
"316 408 OFFCURVE",
"324 374 CURVE SMOOTH",
"328 357 LINE",
"466 357 LINE",
"461 382 LINE SMOOTH",
"441 487 OFFCURVE",
"370 540 OFFCURVE",
"253 540 CURVE SMOOTH",
"127 540 OFFCURVE",
"49 474 OFFCURVE",
"49 375 CURVE SMOOTH",
"49 289 OFFCURVE",
"99 245 OFFCURVE",
"214 213 CURVE SMOOTH",
"274 196 LINE SMOOTH",
"310 187 OFFCURVE",
"323 172 OFFCURVE",
"323 147 CURVE SMOOTH",
"323 116 OFFCURVE",
"299 97 OFFCURVE",
"258 97 CURVE SMOOTH",
"207 97 OFFCURVE",
"183 123 OFFCURVE",
"179 163 CURVE",
"38 163 LINE",
"46 51 OFFCURVE",
"125 -15 OFFCURVE",
"253 -15 CURVE SMOOTH",
"371 -15 OFFCURVE",
"466 40 OFFCURVE",
"466 151 CURVE SMOOTH",
"466 239 OFFCURVE",
"407 280 OFFCURVE",
"305 308 CURVE SMOOTH",
"249 324 LINE SMOOTH"
);
}
);
};
layerId = "83498011-FE34-4020-A3D6-45B14A44D758";
name = "Bold Universal Display Aug 4 16, 17:12";
paths = (
{
closed = 1;
nodes = (
"207 336 OFFCURVE",
"191 350 OFFCURVE",
"191 377 CURVE SMOOTH",
"191 410 OFFCURVE",
"217 428 OFFCURVE",
"255 428 CURVE SMOOTH",
"295 428 OFFCURVE",
"316 409 OFFCURVE",
"324 374 CURVE SMOOTH",
"328 357 LINE",
"466 357 LINE",
"461 382 LINE SMOOTH",
"441 487 OFFCURVE",
"370 540 OFFCURVE",
"253 540 CURVE SMOOTH",
"128 540 OFFCURVE",
"50 474 OFFCURVE",
"50 375 CURVE SMOOTH",
"50 290 OFFCURVE",
"100 246 OFFCURVE",
"214 214 CURVE SMOOTH",
"274 197 LINE SMOOTH",
"311 188 OFFCURVE",
"324 173 OFFCURVE",
"324 147 CURVE SMOOTH",
"324 116 OFFCURVE",
"300 97 OFFCURVE",
"258 97 CURVE SMOOTH",
"207 97 OFFCURVE",
"183 123 OFFCURVE",
"179 163 CURVE",
"39 163 LINE",
"47 51 OFFCURVE",
"128 -15 OFFCURVE",
"253 -15 CURVE SMOOTH",
"370 -15 OFFCURVE",
"465 40 OFFCURVE",
"465 151 CURVE SMOOTH",
"465 240 OFFCURVE",
"406 281 OFFCURVE",
"305 309 CURVE SMOOTH",
"249 325 LINE SMOOTH"
);
}
);
width = 504;
},
{
associatedMasterId = "C76CAC8E-7AD6-478C-8F7E-02FEF6F1EA84";
background = {
paths = (
{
closed = 1;
nodes = (
"110 300 OFFCURVE",
"79 334 OFFCURVE",
"80 393 CURVE SMOOTH",
"81 464 OFFCURVE",
"141 512 OFFCURVE",
"225 512 CURVE SMOOTH",
"301 512 OFFCURVE",
"353 479 OFFCURVE",
"373 405 CURVE SMOOTH",
"377 390 LINE",
"397 390 LINE",
"392 408 LINE SMOOTH",
"369 492 OFFCURVE",
"312 530 OFFCURVE",
"225 530 CURVE SMOOTH",
"130 530 OFFCURVE",
"60 474 OFFCURVE",
"60 393 CURVE SMOOTH",
"60 325 OFFCURVE",
"98 285 OFFCURVE",
"187 262 CURVE SMOOTH",
"262 243 LINE SMOOTH",
"333 225 OFFCURVE",
"378 199 OFFCURVE",
"378 127 CURVE SMOOTH",
"378 46 OFFCURVE",
"313 3 OFFCURVE",
"228 3 CURVE SMOOTH",
"154 3 OFFCURVE",
"83 34 OFFCURVE",
"62 127 CURVE",
"41 127 LINE",
"63 23 OFFCURVE",
"144 -15 OFFCURVE",
"228 -15 CURVE SMOOTH",
"319 -15 OFFCURVE",
"398 34 OFFCURVE",
"398 127 CURVE SMOOTH",
"398 205 OFFCURVE",
"346 241 OFFCURVE",
"265 261 CURVE SMOOTH",
"190 280 LINE SMOOTH"
);
}
);
};
guideLines = (
{
angle = -74.4759;
position = "{397, 390}";
}
);
layerId = "A64727DC-AE34-4AB5-9D48-D28A43A0C016";
name = "Universal Display Jul 28 16, 10:44";
paths = (
{
closed = 1;
nodes = (
"110 301 OFFCURVE",
"80 334 OFFCURVE",
"80 393 CURVE SMOOTH",
"80 464 OFFCURVE",
"141 512 OFFCURVE",
"225 512 CURVE SMOOTH",
"301 512 OFFCURVE",
"353 480 OFFCURVE",
"373 405 CURVE SMOOTH",
"377 390 LINE",
"397 390 LINE",
"392 408 LINE SMOOTH",
"368 494 OFFCURVE",
"311 530 OFFCURVE",
"225 530 CURVE SMOOTH",
"130 530 OFFCURVE",
"60 474 OFFCURVE",
"60 393 CURVE SMOOTH",
"60 325 OFFCURVE",
"98 286 OFFCURVE",
"187 262 CURVE SMOOTH",
"262 243 LINE SMOOTH",
"347 221 OFFCURVE",
"378 190 OFFCURVE",
"378 125 CURVE SMOOTH",
"378 50 OFFCURVE",
"317 3 OFFCURVE",
"228 3 CURVE SMOOTH",
"155 3 OFFCURVE",
"84 34 OFFCURVE",
"63 127 CURVE",
"42 127 LINE",
"64 23 OFFCURVE",
"145 -15 OFFCURVE",
"228 -15 CURVE SMOOTH",
"326 -15 OFFCURVE",
"398 40 OFFCURVE",
"398 125 CURVE SMOOTH",
"398 197 OFFCURVE",
"359 237 OFFCURVE",
"265 261 CURVE SMOOTH",
"190 280 LINE SMOOTH"
);
}
);
width = 438;
},
{
associatedMasterId = "C76CAC8E-7AD6-478C-8F7E-02FEF6F1EA84";
background = {
paths = (
{
closed = 1;
nodes = (
"110 300 OFFCURVE",
"80 334 OFFCURVE",
"80 393 CURVE SMOOTH",
"80 464 OFFCURVE",
"141 512 OFFCURVE",
"225 512 CURVE SMOOTH",
"301 512 OFFCURVE",
"353 480 OFFCURVE",
"373 405 CURVE SMOOTH",
"377 390 LINE",
"397 390 LINE",
"392 408 LINE SMOOTH",
"368 494 OFFCURVE",
"311 530 OFFCURVE",
"225 530 CURVE SMOOTH",
"130 530 OFFCURVE",
"60 474 OFFCURVE",
"60 393 CURVE SMOOTH",
"60 325 OFFCURVE",
"98 285 OFFCURVE",
"187 262 CURVE SMOOTH",
"262 243 LINE SMOOTH",
"347 221 OFFCURVE",
"378 190 OFFCURVE",
"378 125 CURVE SMOOTH",
"378 50 OFFCURVE",
"317 3 OFFCURVE",
"228 3 CURVE SMOOTH",
"155 3 OFFCURVE",
"84 34 OFFCURVE",
"63 127 CURVE",
"42 127 LINE",
"64 23 OFFCURVE",
"145 -15 OFFCURVE",
"228 -15 CURVE SMOOTH",
"326 -15 OFFCURVE",
"398 40 OFFCURVE",
"398 125 CURVE SMOOTH",
"398 197 OFFCURVE",
"359 237 OFFCURVE",
"265 261 CURVE SMOOTH",
"190 280 LINE SMOOTH"
);
}
);
};
guideLines = (
{
angle = -74.4759;
position = "{397, 390}";
}
);
layerId = "B81F91B2-0ED9-4C57-960C-12F64303B069";
name = "Universal Display Aug 4 16, 17:22";
paths = (
{
closed = 1;
nodes = (
"110 300 OFFCURVE",
"80 334 OFFCURVE",
"80 393 CURVE SMOOTH",
"80 464 OFFCURVE",
"141 512 OFFCURVE",
"225 512 CURVE SMOOTH",
"301 512 OFFCURVE",
"353 480 OFFCURVE",
"373 405 CURVE SMOOTH",
"377 390 LINE",
"397 390 LINE",
"392 408 LINE SMOOTH",
"368 494 OFFCURVE",
"311 530 OFFCURVE",
"225 530 CURVE SMOOTH",
"130 530 OFFCURVE",
"60 474 OFFCURVE",
"60 393 CURVE SMOOTH",
"60 325 OFFCURVE",
"98 285 OFFCURVE",
"187 262 CURVE SMOOTH",
"262 243 LINE SMOOTH",
"347 221 OFFCURVE",
"378 190 OFFCURVE",
"378 125 CURVE SMOOTH",
"378 50 OFFCURVE",
"317 3 OFFCURVE",
"228 3 CURVE SMOOTH",
"155 3 OFFCURVE",
"84 34 OFFCURVE",
"63 127 CURVE",
"42 127 LINE",
"64 23 OFFCURVE",
"145 -15 OFFCURVE",
"228 -15 CURVE SMOOTH",
"326 -15 OFFCURVE",
"398 40 OFFCURVE",
"398 125 CURVE SMOOTH",
"398 197 OFFCURVE",
"359 237 OFFCURVE",
"265 261 CURVE SMOOTH",
"190 280 LINE SMOOTH"
);
}
);
width = 438;
},
{
associatedMasterId = "C76CAC8E-7AD6-478C-8F7E-02FEF6F1EA84";
background = {
paths = (
{
closed = 1;
nodes = (
"311 189 OFFCURVE",
"328 176 OFFCURVE",
"328 148 CURVE SMOOTH",
"328 115 OFFCURVE",
"301 97 OFFCURVE",
"261 97 CURVE SMOOTH",
"219 97 OFFCURVE",
"201 117 OFFCURVE",
"191 151 CURVE SMOOTH",
"186 168 LINE",
"44 168 LINE",
"50 142 LINE SMOOTH",
"76 31 OFFCURVE",
"148 -15 OFFCURVE",
"263 -15 CURVE SMOOTH",
"392 -15 OFFCURVE",
"470 50 OFFCURVE",
"470 150 CURVE SMOOTH",
"470 236 OFFCURVE",
"419 279 OFFCURVE",
"303 312 CURVE SMOOTH",
"243 329 LINE SMOOTH",
"204 340 OFFCURVE",
"190 353 OFFCURVE",
"190 378 CURVE SMOOTH",
"190 409 OFFCURVE",
"215 428 OFFCURVE",
"259 428 CURVE SMOOTH",
"301 428 OFFCURVE",
"325 411 OFFCURVE",
"339 375 CURVE SMOOTH",
"344 362 LINE",
"488 362 LINE",
"481 385 LINE SMOOTH",
"452 479 OFFCURVE",
"382 540 OFFCURVE",
"262 540 CURVE SMOOTH",
"149 540 OFFCURVE",
"48 485 OFFCURVE",
"48 374 CURVE SMOOTH",
"48 286 OFFCURVE",
"108 247 OFFCURVE",
"212 217 CURVE SMOOTH",
"268 201 LINE SMOOTH"
);
}
);
};
guideLines = (
{
angle = 270;
position = "{478, 293}";
},
{
angle = -70.3462;
position = "{183, 163}";
},
{
angle = 104.0362;
position = "{39, 163}";
}
);
layerId = "4A2D0F2A-B141-453E-8A6D-2C3D4E7CAB18";
name = "Text Oct 5 16, 11:55";
paths = (
{
closed = 1;
nodes = (
"216 335 OFFCURVE",
"199 349 OFFCURVE",
"199 377 CURVE SMOOTH",
"199 410 OFFCURVE",
"226 428 OFFCURVE",
"266 428 CURVE SMOOTH",
"308 428 OFFCURVE",
"326 408 OFFCURVE",
"336 374 CURVE SMOOTH",
"341 357 LINE",
"483 357 LINE",
"477 383 LINE SMOOTH",
"451 494 OFFCURVE",
"379 540 OFFCURVE",
"264 540 CURVE SMOOTH",
"135 540 OFFCURVE",
"57 475 OFFCURVE",
"57 375 CURVE SMOOTH",
"57 289 OFFCURVE",
"108 245 OFFCURVE",
"224 213 CURVE SMOOTH",
"284 196 LINE SMOOTH",
"323 187 OFFCURVE",
"337 172 OFFCURVE",
"337 147 CURVE SMOOTH",
"337 116 OFFCURVE",
"312 97 OFFCURVE",
"269 97 CURVE SMOOTH",
"224 97 OFFCURVE",
"202 110 OFFCURVE",
"188 149 CURVE SMOOTH",
"183 163 LINE",
"39 163 LINE",
"45 139 LINE SMOOTH",
"70 39 OFFCURVE",
"144 -15 OFFCURVE",
"265 -15 CURVE SMOOTH",
"378 -15 OFFCURVE",
"479 40 OFFCURVE",
"479 151 CURVE SMOOTH",
"479 239 OFFCURVE",
"419 280 OFFCURVE",
"315 308 CURVE SMOOTH",
"259 324 LINE SMOOTH"
);
}
);
width = 520;
},
{
associatedMasterId = "062D78B0-B209-4D64-99AA-ACBF5D882D7F";
background = {
paths = (
{
closed = 1;
nodes = (
"195 339 OFFCURVE",
"184 358 OFFCURVE",
"184 380 CURVE SMOOTH",
"184 408 OFFCURVE",
"206 428 OFFCURVE",
"239 428 CURVE SMOOTH",
"279 428 OFFCURVE",
"298 402 OFFCURVE",
"301 364 CURVE",
"437 364 LINE",
"426 460 OFFCURVE",
"377 540 OFFCURVE",
"237 540 CURVE SMOOTH",
"122 540 OFFCURVE",
"47 474 OFFCURVE",
"47 375 CURVE SMOOTH",
"47 289 OFFCURVE",
"92 241 OFFCURVE",
"199 213 CURVE SMOOTH",
"260 196 LINE SMOOTH",
"290 188 OFFCURVE",
"302 171 OFFCURVE",
"302 148 CURVE SMOOTH",
"302 113 OFFCURVE",
"278 97 OFFCURVE",
"242 97 CURVE SMOOTH",
"202 97 OFFCURVE",
"176 120 OFFCURVE",
"171 160 CURVE",
"35 160 LINE",
"44 49 OFFCURVE",
"121 -15 OFFCURVE",
"240 -15 CURVE SMOOTH",
"354 -15 OFFCURVE",
"439 41 OFFCURVE",
"439 155 CURVE SMOOTH",
"439 241 OFFCURVE",
"387 287 OFFCURVE",
"279 316 CURVE SMOOTH",
"227 330 LINE SMOOTH"
);
}
);
};
layerId = "3C729B18-5C67-48C7-8639-9264B9263992";
name = "Bold Universal Display Jul 22 16, 13:02";
paths = (
{
closed = 1;
nodes = (
"196 334 OFFCURVE",
"185 355 OFFCURVE",
"185 378 CURVE SMOOTH",
"185 404 OFFCURVE",
"207 426 OFFCURVE",
"240 426 CURVE SMOOTH",
"281 426 OFFCURVE",
"301 398 OFFCURVE",
"302 357 CURVE",
"441 357 LINE",
"432 457 OFFCURVE",
"381 540 OFFCURVE",
"238 540 CURVE SMOOTH",
"116 540 OFFCURVE",
"41 474 OFFCURVE",
"41 375 CURVE SMOOTH",
"41 289 OFFCURVE",
"88 241 OFFCURVE",
"199 213 CURVE SMOOTH",
"260 196 LINE SMOOTH",
"290 188 OFFCURVE",
"302 171 OFFCURVE",
"302 148 CURVE SMOOTH",
"302 113 OFFCURVE",
"278 97 OFFCURVE",
"242 97 CURVE SMOOTH",
"202 97 OFFCURVE",
"176 123 OFFCURVE",
"171 163 CURVE",
"31 163 LINE",
"39 51 OFFCURVE",
"118 -15 OFFCURVE",
"240 -15 CURVE SMOOTH",
"356 -15 OFFCURVE",
"443 41 OFFCURVE",
"443 155 CURVE SMOOTH",
"443 238 OFFCURVE",
"389 281 OFFCURVE",
"279 311 CURVE SMOOTH",
"227 325 LINE SMOOTH"
);
}
);
width = 469;
},
{
associatedMasterId = "062D78B0-B209-4D64-99AA-ACBF5D882D7F";
background = {
paths = (
{
closed = 1;
nodes = (
"200 335 OFFCURVE",
"184 349 OFFCURVE",
"184 377 CURVE SMOOTH",
"184 409 OFFCURVE",
"209 426 OFFCURVE",
"246 426 CURVE SMOOTH",
"296 426 OFFCURVE",
"315 398 OFFCURVE",
"317 357 CURVE",
"455 357 LINE",
"446 457 OFFCURVE",
"393 540 OFFCURVE",
"245 540 CURVE SMOOTH",
"119 540 OFFCURVE",
"41 474 OFFCURVE",
"41 375 CURVE SMOOTH",
"41 289 OFFCURVE",
"91 245 OFFCURVE",
"206 213 CURVE SMOOTH",
"266 196 LINE SMOOTH",
"302 187 OFFCURVE",
"315 172 OFFCURVE",
"315 147 CURVE SMOOTH",
"315 116 OFFCURVE",
"291 97 OFFCURVE",
"250 97 CURVE SMOOTH",
"199 97 OFFCURVE",
"175 123 OFFCURVE",
"171 163 CURVE",
"30 163 LINE",
"38 51 OFFCURVE",
"117 -15 OFFCURVE",
"245 -15 CURVE SMOOTH",
"363 -15 OFFCURVE",
"458 40 OFFCURVE",
"458 151 CURVE SMOOTH",
"458 239 OFFCURVE",
"399 280 OFFCURVE",
"297 308 CURVE SMOOTH",
"241 324 LINE SMOOTH"
);
}
);
};
layerId = "BBEA3E78-2973-40F8-8793-75ECDF270547";
name = "Bold Universal Display Jul 24 16, 19:32";
paths = (
{
closed = 1;
nodes = (
"200 335 OFFCURVE",
"184 349 OFFCURVE",
"184 377 CURVE SMOOTH",
"184 409 OFFCURVE",
"209 426 OFFCURVE",
"246 426 CURVE SMOOTH",
"296 426 OFFCURVE",
"315 398 OFFCURVE",
"317 357 CURVE",
"455 357 LINE",
"446 457 OFFCURVE",
"393 540 OFFCURVE",
"245 540 CURVE SMOOTH",
"119 540 OFFCURVE",
"41 474 OFFCURVE",
"41 375 CURVE SMOOTH",
"41 289 OFFCURVE",
"91 245 OFFCURVE",
"206 213 CURVE SMOOTH",
"266 196 LINE SMOOTH",
"302 187 OFFCURVE",
"315 172 OFFCURVE",
"315 147 CURVE SMOOTH",
"315 116 OFFCURVE",
"291 97 OFFCURVE",
"250 97 CURVE SMOOTH",
"199 97 OFFCURVE",
"175 123 OFFCURVE",
"171 163 CURVE",
"30 163 LINE",
"38 51 OFFCURVE",
"117 -15 OFFCURVE",
"245 -15 CURVE SMOOTH",
"363 -15 OFFCURVE",
"458 40 OFFCURVE",
"458 151 CURVE SMOOTH",
"458 239 OFFCURVE",
"399 280 OFFCURVE",
"297 308 CURVE SMOOTH",
"241 324 LINE SMOOTH"
);
}
);
width = 487;
},
{
associatedMasterId = "062D78B0-B209-4D64-99AA-ACBF5D882D7F";
background = {
paths = (
{
closed = 1;
nodes = (
"110 300 OFFCURVE",
"79 334 OFFCURVE",
"80 393 CURVE SMOOTH",
"81 464 OFFCURVE",
"141 512 OFFCURVE",
"225 512 CURVE SMOOTH",
"301 512 OFFCURVE",
"353 479 OFFCURVE",
"373 405 CURVE SMOOTH",
"377 390 LINE",
"397 390 LINE",
"392 408 LINE SMOOTH",
"369 492 OFFCURVE",
"312 530 OFFCURVE",
"225 530 CURVE SMOOTH",
"130 530 OFFCURVE",
"60 474 OFFCURVE",
"60 393 CURVE SMOOTH",
"60 325 OFFCURVE",
"98 285 OFFCURVE",
"187 262 CURVE SMOOTH",
"262 243 LINE SMOOTH",
"333 225 OFFCURVE",
"378 199 OFFCURVE",
"378 127 CURVE SMOOTH",
"378 46 OFFCURVE",
"313 3 OFFCURVE",
"228 3 CURVE SMOOTH",
"154 3 OFFCURVE",
"83 34 OFFCURVE",
"62 127 CURVE",
"41 127 LINE",
"63 23 OFFCURVE",
"144 -15 OFFCURVE",
"228 -15 CURVE SMOOTH",
"319 -15 OFFCURVE",
"398 34 OFFCURVE",
"398 127 CURVE SMOOTH",
"398 205 OFFCURVE",
"346 241 OFFCURVE",
"265 261 CURVE SMOOTH",
"190 280 LINE SMOOTH"
);
}
);
};
guideLines = (
{
angle = -74.4759;
position = "{397, 390}";
}
);
layerId = "9B734888-38F0-4962-8746-4EA37EDA4D0C";
name = "Universal Display Jul 28 16, 10:44";
paths = (
{
closed = 1;
nodes = (
"110 301 OFFCURVE",
"80 334 OFFCURVE",
"80 393 CURVE SMOOTH",
"80 464 OFFCURVE",
"141 512 OFFCURVE",
"225 512 CURVE SMOOTH",
"301 512 OFFCURVE",
"353 480 OFFCURVE",
"373 405 CURVE SMOOTH",
"377 390 LINE",
"397 390 LINE",
"392 408 LINE SMOOTH",
"368 494 OFFCURVE",
"311 530 OFFCURVE",
"225 530 CURVE SMOOTH",
"130 530 OFFCURVE",
"60 474 OFFCURVE",
"60 393 CURVE SMOOTH",
"60 325 OFFCURVE",
"98 286 OFFCURVE",
"187 262 CURVE SMOOTH",
"262 243 LINE SMOOTH",
"347 221 OFFCURVE",
"378 190 OFFCURVE",
"378 125 CURVE SMOOTH",
"378 50 OFFCURVE",
"317 3 OFFCURVE",
"228 3 CURVE SMOOTH",
"155 3 OFFCURVE",
"84 34 OFFCURVE",
"63 127 CURVE",
"42 127 LINE",
"64 23 OFFCURVE",
"145 -15 OFFCURVE",
"228 -15 CURVE SMOOTH",
"326 -15 OFFCURVE",
"398 40 OFFCURVE",
"398 125 CURVE SMOOTH",
"398 197 OFFCURVE",
"359 237 OFFCURVE",
"265 261 CURVE SMOOTH",
"190 280 LINE SMOOTH"
);
}
);
width = 438;
},
{
associatedMasterId = "062D78B0-B209-4D64-99AA-ACBF5D882D7F";
background = {
paths = (
{
closed = 1;
nodes = (
"208 335 OFFCURVE",
"192 349 OFFCURVE",
"192 377 CURVE SMOOTH",
"192 409 OFFCURVE",
"218 427 OFFCURVE",
"255 427 CURVE SMOOTH",
"295 427 OFFCURVE",
"316 408 OFFCURVE",
"324 374 CURVE SMOOTH",
"328 357 LINE",
"466 357 LINE",
"461 382 LINE SMOOTH",
"441 487 OFFCURVE",
"370 540 OFFCURVE",
"253 540 CURVE SMOOTH",
"127 540 OFFCURVE",
"49 474 OFFCURVE",
"49 375 CURVE SMOOTH",
"49 289 OFFCURVE",
"99 245 OFFCURVE",
"214 213 CURVE SMOOTH",
"274 196 LINE SMOOTH",
"310 187 OFFCURVE",
"323 172 OFFCURVE",
"323 147 CURVE SMOOTH",
"323 116 OFFCURVE",
"299 97 OFFCURVE",
"258 97 CURVE SMOOTH",
"207 97 OFFCURVE",
"183 123 OFFCURVE",
"179 163 CURVE",
"38 163 LINE",
"46 51 OFFCURVE",
"125 -15 OFFCURVE",
"253 -15 CURVE SMOOTH",
"371 -15 OFFCURVE",
"466 40 OFFCURVE",
"466 151 CURVE SMOOTH",
"466 239 OFFCURVE",
"407 280 OFFCURVE",
"305 308 CURVE SMOOTH",
"249 324 LINE SMOOTH"
);
}
);
};
layerId = "93BCEDC8-FC75-4EA3-B8B0-EFD510E743EA";
name = "Bold Universal Display Aug 4 16, 17:12";
paths = (
{
closed = 1;
nodes = (
"207 336 OFFCURVE",
"191 350 OFFCURVE",
"191 377 CURVE SMOOTH",
"191 410 OFFCURVE",
"217 428 OFFCURVE",
"255 428 CURVE SMOOTH",
"295 428 OFFCURVE",
"316 409 OFFCURVE",
"324 374 CURVE SMOOTH",
"328 357 LINE",
"466 357 LINE",
"461 382 LINE SMOOTH",
"441 487 OFFCURVE",
"370 540 OFFCURVE",
"253 540 CURVE SMOOTH",
"128 540 OFFCURVE",
"50 474 OFFCURVE",
"50 375 CURVE SMOOTH",
"50 290 OFFCURVE",
"100 246 OFFCURVE",
"214 214 CURVE SMOOTH",
"274 197 LINE SMOOTH",
"311 188 OFFCURVE",
"324 173 OFFCURVE",
"324 147 CURVE SMOOTH",
"324 116 OFFCURVE",
"300 97 OFFCURVE",
"258 97 CURVE SMOOTH",
"207 97 OFFCURVE",
"183 123 OFFCURVE",
"179 163 CURVE",
"39 163 LINE",
"47 51 OFFCURVE",
"128 -15 OFFCURVE",
"253 -15 CURVE SMOOTH",
"370 -15 OFFCURVE",
"465 40 OFFCURVE",
"465 151 CURVE SMOOTH",
"465 240 OFFCURVE",
"406 281 OFFCURVE",
"305 309 CURVE SMOOTH",
"249 325 LINE SMOOTH"
);
}
);
width = 504;
},
{
associatedMasterId = "062D78B0-B209-4D64-99AA-ACBF5D882D7F";
background = {
paths = (
{
closed = 1;
nodes = (
"110 300 OFFCURVE",
"80 334 OFFCURVE",
"80 393 CURVE SMOOTH",
"80 464 OFFCURVE",
"141 512 OFFCURVE",
"225 512 CURVE SMOOTH",
"301 512 OFFCURVE",
"353 480 OFFCURVE",
"373 405 CURVE SMOOTH",
"377 390 LINE",
"397 390 LINE",
"392 408 LINE SMOOTH",
"368 494 OFFCURVE",
"311 530 OFFCURVE",
"225 530 CURVE SMOOTH",
"130 530 OFFCURVE",
"60 474 OFFCURVE",
"60 393 CURVE SMOOTH",
"60 325 OFFCURVE",
"98 285 OFFCURVE",
"187 262 CURVE SMOOTH",
"262 243 LINE SMOOTH",
"347 221 OFFCURVE",
"378 190 OFFCURVE",
"378 125 CURVE SMOOTH",
"378 50 OFFCURVE",
"317 3 OFFCURVE",
"228 3 CURVE SMOOTH",
"155 3 OFFCURVE",
"84 34 OFFCURVE",
"63 127 CURVE",
"42 127 LINE",
"64 23 OFFCURVE",
"145 -15 OFFCURVE",
"228 -15 CURVE SMOOTH",
"326 -15 OFFCURVE",
"398 40 OFFCURVE",
"398 125 CURVE SMOOTH",
"398 197 OFFCURVE",
"359 237 OFFCURVE",
"265 261 CURVE SMOOTH",
"190 280 LINE SMOOTH"
);
}
);
};
guideLines = (
{
angle = -74.4759;
position = "{397, 390}";
}
);
layerId = "28C30A3F-564C-4CF3-8B67-290A974D4C13";
name = "Universal Display Aug 4 16, 17:22";
paths = (
{
closed = 1;
nodes = (
"110 300 OFFCURVE",
"80 334 OFFCURVE",
"80 393 CURVE SMOOTH",
"80 464 OFFCURVE",
"141 512 OFFCURVE",
"225 512 CURVE SMOOTH",
"301 512 OFFCURVE",
"353 480 OFFCURVE",
"373 405 CURVE SMOOTH",
"377 390 LINE",
"397 390 LINE",
"392 408 LINE SMOOTH",
"368 494 OFFCURVE",
"311 530 OFFCURVE",
"225 530 CURVE SMOOTH",
"130 530 OFFCURVE",
"60 474 OFFCURVE",
"60 393 CURVE SMOOTH",
"60 325 OFFCURVE",
"98 285 OFFCURVE",
"187 262 CURVE SMOOTH",
"262 243 LINE SMOOTH",
"347 221 OFFCURVE",
"378 190 OFFCURVE",
"378 125 CURVE SMOOTH",
"378 50 OFFCURVE",
"317 3 OFFCURVE",
"228 3 CURVE SMOOTH",
"155 3 OFFCURVE",
"84 34 OFFCURVE",
"63 127 CURVE",
"42 127 LINE",
"64 23 OFFCURVE",
"145 -15 OFFCURVE",
"228 -15 CURVE SMOOTH",
"326 -15 OFFCURVE",
"398 40 OFFCURVE",
"398 125 CURVE SMOOTH",
"398 197 OFFCURVE",
"359 237 OFFCURVE",
"265 261 CURVE SMOOTH",
"190 280 LINE SMOOTH"
);
}
);
width = 438;
},
{
associatedMasterId = "062D78B0-B209-4D64-99AA-ACBF5D882D7F";
background = {
paths = (
{
closed = 1;
nodes = (
"195 339 OFFCURVE",
"184 358 OFFCURVE",
"184 380 CURVE SMOOTH",
"184 408 OFFCURVE",
"206 428 OFFCURVE",
"239 428 CURVE SMOOTH",
"279 428 OFFCURVE",
"298 402 OFFCURVE",
"301 364 CURVE",
"437 364 LINE",
"426 460 OFFCURVE",
"377 540 OFFCURVE",
"237 540 CURVE SMOOTH",
"122 540 OFFCURVE",
"47 474 OFFCURVE",
"47 375 CURVE SMOOTH",
"47 289 OFFCURVE",
"92 241 OFFCURVE",
"199 213 CURVE SMOOTH",
"260 196 LINE SMOOTH",
"290 188 OFFCURVE",
"302 171 OFFCURVE",
"302 148 CURVE SMOOTH",
"302 113 OFFCURVE",
"278 97 OFFCURVE",
"242 97 CURVE SMOOTH",
"202 97 OFFCURVE",
"176 120 OFFCURVE",
"171 160 CURVE",
"35 160 LINE",
"44 49 OFFCURVE",
"121 -15 OFFCURVE",
"240 -15 CURVE SMOOTH",
"354 -15 OFFCURVE",
"439 41 OFFCURVE",
"439 155 CURVE SMOOTH",
"439 241 OFFCURVE",
"387 287 OFFCURVE",
"279 316 CURVE SMOOTH",
"227 330 LINE SMOOTH"
);
}
);
};
layerId = "478E7E1B-F30A-4393-B109-EDBAD545E2C9";
name = "Bold Universal Display Jul 22 16, 13:02";
paths = (
{
closed = 1;
nodes = (
"196 334 OFFCURVE",
"185 355 OFFCURVE",
"185 378 CURVE SMOOTH",
"185 404 OFFCURVE",
"207 426 OFFCURVE",
"240 426 CURVE SMOOTH",
"281 426 OFFCURVE",
"301 398 OFFCURVE",
"302 357 CURVE",
"441 357 LINE",
"432 457 OFFCURVE",
"381 540 OFFCURVE",
"238 540 CURVE SMOOTH",
"116 540 OFFCURVE",
"41 474 OFFCURVE",
"41 375 CURVE SMOOTH",
"41 289 OFFCURVE",
"88 241 OFFCURVE",
"199 213 CURVE SMOOTH",
"260 196 LINE SMOOTH",
"290 188 OFFCURVE",
"302 171 OFFCURVE",
"302 148 CURVE SMOOTH",
"302 113 OFFCURVE",
"278 97 OFFCURVE",
"242 97 CURVE SMOOTH",
"202 97 OFFCURVE",
"176 123 OFFCURVE",
"171 163 CURVE",
"31 163 LINE",
"39 51 OFFCURVE",
"118 -15 OFFCURVE",
"240 -15 CURVE SMOOTH",
"356 -15 OFFCURVE",
"443 41 OFFCURVE",
"443 155 CURVE SMOOTH",
"443 238 OFFCURVE",
"389 281 OFFCURVE",
"279 311 CURVE SMOOTH",
"227 325 LINE SMOOTH"
);
}
);
width = 469;
},
{
associatedMasterId = "062D78B0-B209-4D64-99AA-ACBF5D882D7F";
background = {
paths = (
{
closed = 1;
nodes = (
"200 335 OFFCURVE",
"184 349 OFFCURVE",
"184 377 CURVE SMOOTH",
"184 409 OFFCURVE",
"209 426 OFFCURVE",
"246 426 CURVE SMOOTH",
"296 426 OFFCURVE",
"315 398 OFFCURVE",
"317 357 CURVE",
"455 357 LINE",
"446 457 OFFCURVE",
"393 540 OFFCURVE",
"245 540 CURVE SMOOTH",
"119 540 OFFCURVE",
"41 474 OFFCURVE",
"41 375 CURVE SMOOTH",
"41 289 OFFCURVE",
"91 245 OFFCURVE",
"206 213 CURVE SMOOTH",
"266 196 LINE SMOOTH",
"302 187 OFFCURVE",
"315 172 OFFCURVE",
"315 147 CURVE SMOOTH",
"315 116 OFFCURVE",
"291 97 OFFCURVE",
"250 97 CURVE SMOOTH",
"199 97 OFFCURVE",
"175 123 OFFCURVE",
"171 163 CURVE",
"30 163 LINE",
"38 51 OFFCURVE",
"117 -15 OFFCURVE",
"245 -15 CURVE SMOOTH",
"363 -15 OFFCURVE",
"458 40 OFFCURVE",
"458 151 CURVE SMOOTH",
"458 239 OFFCURVE",
"399 280 OFFCURVE",
"297 308 CURVE SMOOTH",
"241 324 LINE SMOOTH"
);
}
);
};
layerId = "0112A4B1-8DB0-47D0-A219-1ADE56ACEEA5";
name = "Bold Universal Display Jul 24 16, 19:32";
paths = (
{
closed = 1;
nodes = (
"200 335 OFFCURVE",
"184 349 OFFCURVE",
"184 377 CURVE SMOOTH",
"184 409 OFFCURVE",
"209 426 OFFCURVE",
"246 426 CURVE SMOOTH",
"296 426 OFFCURVE",
"315 398 OFFCURVE",
"317 357 CURVE",
"455 357 LINE",
"446 457 OFFCURVE",
"393 540 OFFCURVE",
"245 540 CURVE SMOOTH",
"119 540 OFFCURVE",
"41 474 OFFCURVE",
"41 375 CURVE SMOOTH",
"41 289 OFFCURVE",
"91 245 OFFCURVE",
"206 213 CURVE SMOOTH",
"266 196 LINE SMOOTH",
"302 187 OFFCURVE",
"315 172 OFFCURVE",
"315 147 CURVE SMOOTH",
"315 116 OFFCURVE",
"291 97 OFFCURVE",
"250 97 CURVE SMOOTH",
"199 97 OFFCURVE",
"175 123 OFFCURVE",
"171 163 CURVE",
"30 163 LINE",
"38 51 OFFCURVE",
"117 -15 OFFCURVE",
"245 -15 CURVE SMOOTH",
"363 -15 OFFCURVE",
"458 40 OFFCURVE",
"458 151 CURVE SMOOTH",
"458 239 OFFCURVE",
"399 280 OFFCURVE",
"297 308 CURVE SMOOTH",
"241 324 LINE SMOOTH"
);
}
);
width = 487;
},
{
associatedMasterId = "062D78B0-B209-4D64-99AA-ACBF5D882D7F";
background = {
paths = (
{
closed = 1;
nodes = (
"208 335 OFFCURVE",
"192 349 OFFCURVE",
"192 377 CURVE SMOOTH",
"192 409 OFFCURVE",
"218 427 OFFCURVE",
"255 427 CURVE SMOOTH",
"295 427 OFFCURVE",
"316 408 OFFCURVE",
"324 374 CURVE SMOOTH",
"328 357 LINE",
"466 357 LINE",
"461 382 LINE SMOOTH",
"441 487 OFFCURVE",
"370 540 OFFCURVE",
"253 540 CURVE SMOOTH",
"127 540 OFFCURVE",
"49 474 OFFCURVE",
"49 375 CURVE SMOOTH",
"49 289 OFFCURVE",
"99 245 OFFCURVE",
"214 213 CURVE SMOOTH",
"274 196 LINE SMOOTH",
"310 187 OFFCURVE",
"323 172 OFFCURVE",
"323 147 CURVE SMOOTH",
"323 116 OFFCURVE",
"299 97 OFFCURVE",
"258 97 CURVE SMOOTH",
"207 97 OFFCURVE",
"183 123 OFFCURVE",
"179 163 CURVE",
"38 163 LINE",
"46 51 OFFCURVE",
"125 -15 OFFCURVE",
"253 -15 CURVE SMOOTH",
"371 -15 OFFCURVE",
"466 40 OFFCURVE",
"466 151 CURVE SMOOTH",
"466 239 OFFCURVE",
"407 280 OFFCURVE",
"305 308 CURVE SMOOTH",
"249 324 LINE SMOOTH"
);
}
);
};
layerId = "89B5D975-505F-4DB6-9A9D-18AEE64AB3EF";
name = "Bold Universal Display Aug 4 16, 17:12";
paths = (
{
closed = 1;
nodes = (
"207 336 OFFCURVE",
"191 350 OFFCURVE",
"191 377 CURVE SMOOTH",
"191 410 OFFCURVE",
"217 428 OFFCURVE",
"255 428 CURVE SMOOTH",
"295 428 OFFCURVE",
"316 409 OFFCURVE",
"324 374 CURVE SMOOTH",
"328 357 LINE",
"466 357 LINE",
"461 382 LINE SMOOTH",
"441 487 OFFCURVE",
"370 540 OFFCURVE",
"253 540 CURVE SMOOTH",
"128 540 OFFCURVE",
"50 474 OFFCURVE",
"50 375 CURVE SMOOTH",
"50 290 OFFCURVE",
"100 246 OFFCURVE",
"214 214 CURVE SMOOTH",
"274 197 LINE SMOOTH",
"311 188 OFFCURVE",
"324 173 OFFCURVE",
"324 147 CURVE SMOOTH",
"324 116 OFFCURVE",
"300 97 OFFCURVE",
"258 97 CURVE SMOOTH",
"207 97 OFFCURVE",
"183 123 OFFCURVE",
"179 163 CURVE",
"39 163 LINE",
"47 51 OFFCURVE",
"128 -15 OFFCURVE",
"253 -15 CURVE SMOOTH",
"370 -15 OFFCURVE",
"465 40 OFFCURVE",
"465 151 CURVE SMOOTH",
"465 240 OFFCURVE",
"406 281 OFFCURVE",
"305 309 CURVE SMOOTH",
"249 325 LINE SMOOTH"
);
}
);
width = 504;
},
{
associatedMasterId = "062D78B0-B209-4D64-99AA-ACBF5D882D7F";
background = {
paths = (
{
closed = 1;
nodes = (
"110 300 OFFCURVE",
"79 334 OFFCURVE",
"80 393 CURVE SMOOTH",
"81 464 OFFCURVE",
"141 512 OFFCURVE",
"225 512 CURVE SMOOTH",
"301 512 OFFCURVE",
"353 479 OFFCURVE",
"373 405 CURVE SMOOTH",
"377 390 LINE",
"397 390 LINE",
"392 408 LINE SMOOTH",
"369 492 OFFCURVE",
"312 530 OFFCURVE",
"225 530 CURVE SMOOTH",
"130 530 OFFCURVE",
"60 474 OFFCURVE",
"60 393 CURVE SMOOTH",
"60 325 OFFCURVE",
"98 285 OFFCURVE",
"187 262 CURVE SMOOTH",
"262 243 LINE SMOOTH",
"333 225 OFFCURVE",
"378 199 OFFCURVE",
"378 127 CURVE SMOOTH",
"378 46 OFFCURVE",
"313 3 OFFCURVE",
"228 3 CURVE SMOOTH",
"154 3 OFFCURVE",
"83 34 OFFCURVE",
"62 127 CURVE",
"41 127 LINE",
"63 23 OFFCURVE",
"144 -15 OFFCURVE",
"228 -15 CURVE SMOOTH",
"319 -15 OFFCURVE",
"398 34 OFFCURVE",
"398 127 CURVE SMOOTH",
"398 205 OFFCURVE",
"346 241 OFFCURVE",
"265 261 CURVE SMOOTH",
"190 280 LINE SMOOTH"
);
}
);
};
guideLines = (
{
angle = -74.4759;
position = "{397, 390}";
}
);
layerId = "6128C249-D8B0-40C9-918B-94E2CE82C711";
name = "Universal Display Jul 28 16, 10:44";
paths = (
{
closed = 1;
nodes = (
"110 301 OFFCURVE",
"80 334 OFFCURVE",
"80 393 CURVE SMOOTH",
"80 464 OFFCURVE",
"141 512 OFFCURVE",
"225 512 CURVE SMOOTH",
"301 512 OFFCURVE",
"353 480 OFFCURVE",
"373 405 CURVE SMOOTH",
"377 390 LINE",
"397 390 LINE",
"392 408 LINE SMOOTH",
"368 494 OFFCURVE",
"311 530 OFFCURVE",
"225 530 CURVE SMOOTH",
"130 530 OFFCURVE",
"60 474 OFFCURVE",
"60 393 CURVE SMOOTH",
"60 325 OFFCURVE",
"98 286 OFFCURVE",
"187 262 CURVE SMOOTH",
"262 243 LINE SMOOTH",
"347 221 OFFCURVE",
"378 190 OFFCURVE",
"378 125 CURVE SMOOTH",
"378 50 OFFCURVE",
"317 3 OFFCURVE",
"228 3 CURVE SMOOTH",
"155 3 OFFCURVE",
"84 34 OFFCURVE",
"63 127 CURVE",
"42 127 LINE",
"64 23 OFFCURVE",
"145 -15 OFFCURVE",
"228 -15 CURVE SMOOTH",
"326 -15 OFFCURVE",
"398 40 OFFCURVE",
"398 125 CURVE SMOOTH",
"398 197 OFFCURVE",
"359 237 OFFCURVE",
"265 261 CURVE SMOOTH",
"190 280 LINE SMOOTH"
);
}
);
width = 438;
},
{
associatedMasterId = "062D78B0-B209-4D64-99AA-ACBF5D882D7F";
background = {
paths = (
{
closed = 1;
nodes = (
"110 300 OFFCURVE",
"80 334 OFFCURVE",
"80 393 CURVE SMOOTH",
"80 464 OFFCURVE",
"141 512 OFFCURVE",
"225 512 CURVE SMOOTH",
"301 512 OFFCURVE",
"353 480 OFFCURVE",
"373 405 CURVE SMOOTH",
"377 390 LINE",
"397 390 LINE",
"392 408 LINE SMOOTH",
"368 494 OFFCURVE",
"311 530 OFFCURVE",
"225 530 CURVE SMOOTH",
"130 530 OFFCURVE",
"60 474 OFFCURVE",
"60 393 CURVE SMOOTH",
"60 325 OFFCURVE",
"98 285 OFFCURVE",
"187 262 CURVE SMOOTH",
"262 243 LINE SMOOTH",
"347 221 OFFCURVE",
"378 190 OFFCURVE",
"378 125 CURVE SMOOTH",
"378 50 OFFCURVE",
"317 3 OFFCURVE",
"228 3 CURVE SMOOTH",
"155 3 OFFCURVE",
"84 34 OFFCURVE",
"63 127 CURVE",
"42 127 LINE",
"64 23 OFFCURVE",
"145 -15 OFFCURVE",
"228 -15 CURVE SMOOTH",
"326 -15 OFFCURVE",
"398 40 OFFCURVE",
"398 125 CURVE SMOOTH",
"398 197 OFFCURVE",
"359 237 OFFCURVE",
"265 261 CURVE SMOOTH",
"190 280 LINE SMOOTH"
);
}
);
};
guideLines = (
{
angle = -74.4759;
position = "{397, 390}";
}
);
layerId = "ACD73EB7-9121-4558-8437-9245BE92F37F";
name = "Universal Display Aug 4 16, 17:22";
paths = (
{
closed = 1;
nodes = (
"110 300 OFFCURVE",
"80 334 OFFCURVE",
"80 393 CURVE SMOOTH",
"80 464 OFFCURVE",
"141 512 OFFCURVE",
"225 512 CURVE SMOOTH",
"301 512 OFFCURVE",
"353 480 OFFCURVE",
"373 405 CURVE SMOOTH",
"377 390 LINE",
"397 390 LINE",
"392 408 LINE SMOOTH",
"368 494 OFFCURVE",
"311 530 OFFCURVE",
"225 530 CURVE SMOOTH",
"130 530 OFFCURVE",
"60 474 OFFCURVE",
"60 393 CURVE SMOOTH",
"60 325 OFFCURVE",
"98 285 OFFCURVE",
"187 262 CURVE SMOOTH",
"262 243 LINE SMOOTH",
"347 221 OFFCURVE",
"378 190 OFFCURVE",
"378 125 CURVE SMOOTH",
"378 50 OFFCURVE",
"317 3 OFFCURVE",
"228 3 CURVE SMOOTH",
"155 3 OFFCURVE",
"84 34 OFFCURVE",
"63 127 CURVE",
"42 127 LINE",
"64 23 OFFCURVE",
"145 -15 OFFCURVE",
"228 -15 CURVE SMOOTH",
"326 -15 OFFCURVE",
"398 40 OFFCURVE",
"398 125 CURVE SMOOTH",
"398 197 OFFCURVE",
"359 237 OFFCURVE",
"265 261 CURVE SMOOTH",
"190 280 LINE SMOOTH"
);
}
);
width = 438;
},
{
associatedMasterId = "062D78B0-B209-4D64-99AA-ACBF5D882D7F";
background = {
paths = (
{
closed = 1;
nodes = (
"311 189 OFFCURVE",
"328 176 OFFCURVE",
"328 148 CURVE SMOOTH",
"328 115 OFFCURVE",
"301 97 OFFCURVE",
"261 97 CURVE SMOOTH",
"219 97 OFFCURVE",
"201 117 OFFCURVE",
"191 151 CURVE SMOOTH",
"186 168 LINE",
"44 168 LINE",
"50 142 LINE SMOOTH",
"76 31 OFFCURVE",
"148 -15 OFFCURVE",
"263 -15 CURVE SMOOTH",
"392 -15 OFFCURVE",
"470 50 OFFCURVE",
"470 150 CURVE SMOOTH",
"470 236 OFFCURVE",
"419 279 OFFCURVE",
"303 312 CURVE SMOOTH",
"243 329 LINE SMOOTH",
"204 340 OFFCURVE",
"190 353 OFFCURVE",
"190 378 CURVE SMOOTH",
"190 409 OFFCURVE",
"215 428 OFFCURVE",
"259 428 CURVE SMOOTH",
"301 428 OFFCURVE",
"325 411 OFFCURVE",
"339 375 CURVE SMOOTH",
"344 362 LINE",
"488 362 LINE",
"481 385 LINE SMOOTH",
"452 479 OFFCURVE",
"382 540 OFFCURVE",
"262 540 CURVE SMOOTH",
"149 540 OFFCURVE",
"48 485 OFFCURVE",
"48 374 CURVE SMOOTH",
"48 286 OFFCURVE",
"108 247 OFFCURVE",
"212 217 CURVE SMOOTH",
"268 201 LINE SMOOTH"
);
}
);
};
guideLines = (
{
angle = 270;
position = "{478, 293}";
},
{
angle = -70.3462;
position = "{183, 163}";
},
{
angle = 104.0362;
position = "{39, 163}";
}
);
layerId = "2B23054C-DE3E-40E8-84C4-892D8878F6D7";
name = "Text Oct 5 16, 11:55";
paths = (
{
closed = 1;
nodes = (
"216 335 OFFCURVE",
"199 349 OFFCURVE",
"199 377 CURVE SMOOTH",
"199 410 OFFCURVE",
"226 428 OFFCURVE",
"266 428 CURVE SMOOTH",
"308 428 OFFCURVE",
"326 408 OFFCURVE",
"336 374 CURVE SMOOTH",
"341 357 LINE",
"483 357 LINE",
"477 383 LINE SMOOTH",
"451 494 OFFCURVE",
"379 540 OFFCURVE",
"264 540 CURVE SMOOTH",
"135 540 OFFCURVE",
"57 475 OFFCURVE",
"57 375 CURVE SMOOTH",
"57 289 OFFCURVE",
"108 245 OFFCURVE",
"224 213 CURVE SMOOTH",
"284 196 LINE SMOOTH",
"323 187 OFFCURVE",
"337 172 OFFCURVE",
"337 147 CURVE SMOOTH",
"337 116 OFFCURVE",
"312 97 OFFCURVE",
"269 97 CURVE SMOOTH",
"224 97 OFFCURVE",
"202 110 OFFCURVE",
"188 149 CURVE SMOOTH",
"183 163 LINE",
"39 163 LINE",
"45 139 LINE SMOOTH",
"70 39 OFFCURVE",
"144 -15 OFFCURVE",
"265 -15 CURVE SMOOTH",
"378 -15 OFFCURVE",
"479 40 OFFCURVE",
"479 151 CURVE SMOOTH",
"479 239 OFFCURVE",
"419 280 OFFCURVE",
"315 308 CURVE SMOOTH",
"259 324 LINE SMOOTH"
);
}
);
width = 520;
}
);
unicode = 0073;
},
{
color = 5;
glyphname = t;
lastChange = "2016-11-25 09:30:50 +0000";
layers = (
{
background = {
paths = (
{
closed = 1;
nodes = (
"24 410 LINE",
"388 410 LINE",
"388 525 LINE",
"24 525 LINE"
);
},
{
closed = 1;
nodes = (
"391 117 LINE",
"381 115 OFFCURVE",
"358 113 OFFCURVE",
"338 113 CURVE SMOOTH",
"288 113 OFFCURVE",
"263 132 OFFCURVE",
"263 189 CURVE SMOOTH",
"263 655 LINE",
"123 655 LINE",
"123 164 LINE SMOOTH",
"123 44 OFFCURVE",
"182 -12 OFFCURVE",
"307 -12 CURVE SMOOTH",
"338 -12 OFFCURVE",
"372 -9 OFFCURVE",
"391 -4 CURVE"
);
}
);
};
layerId = "C76CAC8E-7AD6-478C-8F7E-02FEF6F1EA84";
paths = (
{
closed = 1;
nodes = (
"25 410 LINE",
"391 410 LINE",
"391 525 LINE",
"25 525 LINE"
);
},
{
closed = 1;
nodes = (
"391 119 LINE",
"381 117 OFFCURVE",
"358 115 OFFCURVE",
"338 115 CURVE SMOOTH",
"288 115 OFFCURVE",
"263 134 OFFCURVE",
"263 191 CURVE SMOOTH",
"263 665 LINE",
"123 665 LINE",
"123 168 LINE SMOOTH",
"123 48 OFFCURVE",
"182 -8 OFFCURVE",
"307 -8 CURVE SMOOTH",
"338 -8 OFFCURVE",
"372 -5 OFFCURVE",
"391 0 CURVE"
);
}
);
width = 431;
}
);
unicode = 0074;
},
{
color = 4;
glyphname = v;
lastChange = "2016-11-25 09:30:50 +0000";
layers = (
{
background = {
paths = (
{
closed = 1;
nodes = (
"349 67 LINE",
"349 120 LINE",
"284 120 LINE",
"284 67 LINE"
);
},
{
closed = 1;
nodes = (
"607 525 LINE",
"460 525 LINE",
"301 76 LINE",
"322 76 LINE",
"163 525 LINE",
"16 525 LINE",
"220 0 LINE",
"403 0 LINE"
);
}
);
};
guideLines = (
{
angle = 10.2793;
position = "{153, 393}";
showMeasurement = 1;
}
);
layerId = "C76CAC8E-7AD6-478C-8F7E-02FEF6F1EA84";
paths = (
{
closed = 1;
nodes = (
"404 0 LINE",
"608 525 LINE",
"460 525 LINE",
"299 76 LINE",
"324 76 LINE",
"163 525 LINE",
"16 525 LINE",
"219 0 LINE"
);
},
{
closed = 1;
nodes = (
"349 67 LINE",
"349 122 LINE",
"284 122 LINE",
"284 67 LINE"
);
}
);
width = 624;
}
);
unicode = 0076;
},
{
color = 4;
glyphname = w;
lastChange = "2016-11-25 09:30:50 +0000";
layers = (
{
background = {
paths = (
{
closed = 1;
nodes = (
"374 525 LINE",
"260 112 LINE",
"279 112 LINE",
"162 525 LINE",
"18 525 LINE",
"178 0 LINE",
"341 0 LINE",
"444 371 LINE",
"436 371 LINE",
"539 0 LINE",
"702 0 LINE",
"862 525 LINE",
"718 525 LINE",
"601 112 LINE",
"620 112 LINE",
"506 525 LINE"
);
}
);
};
layerId = "C76CAC8E-7AD6-478C-8F7E-02FEF6F1EA84";
paths = (
{
closed = 1;
nodes = (
"718 525 LINE",
"601 112 LINE",
"620 112 LINE",
"505 525 LINE",
"374 525 LINE",
"260 112 LINE",
"279 112 LINE",
"162 525 LINE",
"20 525 LINE",
"182 0 LINE",
"335 0 LINE",
"444 371 LINE",
"436 371 LINE",
"545 0 LINE",
"698 0 LINE",
"860 525 LINE"
);
},
{
closed = 1;
nodes = (
"297 101 LINE",
"297 156 LINE",
"232 156 LINE",
"232 101 LINE"
);
},
{
closed = 1;
nodes = (
"647 101 LINE",
"647 156 LINE",
"582 156 LINE",
"582 101 LINE"
);
},
{
closed = 1;
nodes = (
"467 350 LINE",
"467 405 LINE",
"402 405 LINE",
"402 350 LINE"
);
}
);
width = 880;
}
);
unicode = 0077;
},
{
color = 4;
glyphname = x;
lastChange = "2016-11-25 09:30:50 +0000";
layers = (
{
background = {
paths = (
{
closed = 1;
nodes = (
"594 0 LINE",
"183 525 LINE",
"17 525 LINE",
"428 0 LINE"
);
},
{
closed = 1;
nodes = (
"15 0 LINE",
"181 0 LINE",
"592 525 LINE",
"426 525 LINE"
);
}
);
};
layerId = "C76CAC8E-7AD6-478C-8F7E-02FEF6F1EA84";
paths = (
{
closed = 1;
nodes = (
"592 0 LINE",
"349 318 LINE",
"325 324 LINE",
"185 525 LINE",
"20 525 LINE",
"251 218 LINE",
"283 204 LINE",
"427 0 LINE"
);
},
{
closed = 1;
nodes = (
"251 311 LINE",
"17 0 LINE",
"182 0 LINE",
"331 211 LINE"
);
},
{
closed = 1;
nodes = (
"351 207 LINE",
"589 525 LINE",
"424 525 LINE",
"271 307 LINE"
);
},
{
closed = 1;
nodes = (
"323 338 LINE",
"323 358 LINE",
"280 358 LINE",
"280 338 LINE"
);
},
{
closed = 1;
nodes = (
"323 169 LINE",
"323 189 LINE",
"280 189 LINE",
"280 169 LINE"
);
}
);
width = 609;
},
{
associatedMasterId = "C76CAC8E-7AD6-478C-8F7E-02FEF6F1EA84";
background = {
paths = (
{
closed = 1;
nodes = (
"588 0 LINE",
"177 525 LINE",
"11 525 LINE",
"422 0 LINE"
);
},
{
closed = 1;
nodes = (
"9 0 LINE",
"175 0 LINE",
"586 525 LINE",
"420 525 LINE"
);
}
);
};
layerId = "1AE7004A-35CB-429B-B223-9BFADB82362A";
name = "Text Autospaced Nov 11 16, 17:28";
paths = (
{
closed = 1;
nodes = (
"586 0 LINE",
"343 318 LINE",
"319 324 LINE",
"179 525 LINE",
"14 525 LINE",
"245 218 LINE",
"277 204 LINE",
"421 0 LINE"
);
},
{
closed = 1;
nodes = (
"245 311 LINE",
"11 0 LINE",
"176 0 LINE",
"325 211 LINE"
);
},
{
closed = 1;
nodes = (
"345 207 LINE",
"583 525 LINE",
"418 525 LINE",
"265 307 LINE"
);
},
{
closed = 1;
nodes = (
"317 338 LINE",
"317 358 LINE",
"274 358 LINE",
"274 338 LINE"
);
},
{
closed = 1;
nodes = (
"317 169 LINE",
"317 189 LINE",
"274 189 LINE",
"274 169 LINE"
);
}
);
width = 597;
},
{
associatedMasterId = "062D78B0-B209-4D64-99AA-ACBF5D882D7F";
background = {
paths = (
{
closed = 1;
nodes = (
"588 0 LINE",
"177 525 LINE",
"11 525 LINE",
"422 0 LINE"
);
},
{
closed = 1;
nodes = (
"9 0 LINE",
"175 0 LINE",
"586 525 LINE",
"420 525 LINE"
);
}
);
};
layerId = "58A11417-DC0D-4BFF-9581-C0A0BC7ACF7E";
name = "Text Autospaced Nov 11 16, 17:28";
paths = (
{
closed = 1;
nodes = (
"586 0 LINE",
"343 318 LINE",
"319 324 LINE",
"179 525 LINE",
"14 525 LINE",
"245 218 LINE",
"277 204 LINE",
"421 0 LINE"
);
},
{
closed = 1;
nodes = (
"245 311 LINE",
"11 0 LINE",
"176 0 LINE",
"325 211 LINE"
);
},
{
closed = 1;
nodes = (
"345 207 LINE",
"583 525 LINE",
"418 525 LINE",
"265 307 LINE"
);
},
{
closed = 1;
nodes = (
"317 338 LINE",
"317 358 LINE",
"274 358 LINE",
"274 338 LINE"
);
},
{
closed = 1;
nodes = (
"317 169 LINE",
"317 189 LINE",
"274 189 LINE",
"274 169 LINE"
);
}
);
width = 597;
}
);
unicode = 0078;
},
{
color = 5;
glyphname = y;
lastChange = "2016-11-25 09:30:50 +0000";
layers = (
{
background = {
paths = (
{
closed = 1;
nodes = (
"359 67 LINE",
"359 147 LINE",
"264 147 LINE",
"264 67 LINE"
);
},
{
closed = 1;
nodes = (
"52 -203 LINE",
"85 -213 OFFCURVE",
"119 -218 OFFCURVE",
"162 -218 CURVE SMOOTH",
"254 -218 OFFCURVE",
"312 -178 OFFCURVE",
"345 -100 CURVE SMOOTH",
"602 525 LINE",
"454 525 LINE",
"286 76 LINE",
"332 76 LINE",
"163 525 LINE",
"16 525 LINE",
"237 -20 LINE",
"248 23 LINE",
"223 -44 LINE SMOOTH",
"208 -84 OFFCURVE",
"186 -100 OFFCURVE",
"139 -100 CURVE SMOOTH",
"115 -100 OFFCURVE",
"81 -96 OFFCURVE",
"52 -89 CURVE"
);
}
);
};
layerId = "C76CAC8E-7AD6-478C-8F7E-02FEF6F1EA84";
paths = (
{
closed = 1;
nodes = (
"359 67 LINE",
"359 147 LINE",
"264 147 LINE",
"264 67 LINE"
);
},
{
closed = 1;
nodes = (
"56 -193 LINE",
"89 -203 OFFCURVE",
"123 -208 OFFCURVE",
"166 -208 CURVE SMOOTH",
"258 -208 OFFCURVE",
"317 -168 OFFCURVE",
"349 -90 CURVE SMOOTH",
"602 525 LINE",
"454 525 LINE",
"286 76 LINE",
"332 76 LINE",
"163 525 LINE",
"16 525 LINE",
"237 -20 LINE",
"252 33 LINE",
"227 -34 LINE SMOOTH",
"212 -74 OFFCURVE",
"190 -90 OFFCURVE",
"143 -90 CURVE SMOOTH",
"119 -90 OFFCURVE",
"85 -86 OFFCURVE",
"56 -79 CURVE"
);
}
);
width = 618;
}
);
leftMetricsKey = "=v";
rightMetricsKey = "=v";
unicode = 0079;
},
{
color = 4;
glyphname = z;
lastChange = "2016-11-25 09:30:50 +0000";
layers = (
{
background = {
paths = (
{
closed = 1;
nodes = (
"467 410 LINE",
"467 525 LINE",
"45 525 LINE",
"45 410 LINE",
"308 410 LINE",
"42 115 LINE",
"42 0 LINE",
"470 0 LINE",
"470 115 LINE",
"201 115 LINE"
);
}
);
};
layerId = "C76CAC8E-7AD6-478C-8F7E-02FEF6F1EA84";
paths = (
{
closed = 1;
nodes = (
"468 415 LINE",
"468 525 LINE",
"46 525 LINE",
"46 410 LINE",
"309 410 LINE",
"42 110 LINE",
"42 0 LINE",
"471 0 LINE",
"471 115 LINE",
"202 115 LINE"
);
}
);
width = 513;
}
);
unicode = 007A;
},
{
glyphname = hyphen;
lastChange = "2016-11-25 09:30:50 +0000";
layers = (
{
layerId = "C76CAC8E-7AD6-478C-8F7E-02FEF6F1EA84";
paths = (
{
closed = 1;
nodes = (
"80 224 LINE",
"400 224 LINE",
"400 344 LINE",
"80 344 LINE"
);
}
);
width = 480;
}
);
unicode = 002D;
},
